<svg width="351" height="48" viewBox="0 0 351 48" fill="none" xmlns="http://www.w3.org/2000/svg">
<g filter="url(#filter0_d_240_3109)">
<rect x="4" y="2" width="343" height="40" rx="8" fill="#F5F6FF" shape-rendering="crispEdges"/>
<rect x="4.5" y="2.5" width="342" height="39" rx="7.5" stroke="url(#paint0_linear_240_3109)" shape-rendering="crispEdges"/>
<path d="M120.8 22.2222C120.8 21.4 120.733 20.8 120.589 20.1778H111.2V23.8888H116.711C116.6 24.8111 116 26.2 114.667 27.1333L114.648 27.2575L117.616 29.5572L117.822 29.5778C119.711 27.8333 120.8 25.2666 120.8 22.2222Z" fill="#2C6AC9"/>
<path d="M111.2 32.0001C113.9 32.0001 116.167 31.1111 117.822 29.5778L114.667 27.1333C113.822 27.7222 112.689 28.1333 111.2 28.1333C108.556 28.1333 106.311 26.3889 105.511 23.9778L105.394 23.9878L102.307 26.3767L102.267 26.4889C103.911 29.7556 107.289 32.0001 111.2 32.0001Z" fill="#2F9461"/>
<path d="M105.511 23.9778C105.3 23.3556 105.178 22.6889 105.178 22C105.178 21.3111 105.3 20.6445 105.5 20.0222L105.494 19.8897L102.369 17.4625L102.267 17.5111C101.589 18.8667 101.2 20.3889 101.2 22C101.2 23.6111 101.589 25.1333 102.267 26.4889L105.511 23.9778Z" fill="#FBBC55"/>
<path d="M111.2 15.8666C113.078 15.8666 114.344 16.6777 115.067 17.3555L117.889 14.6C116.156 12.9888 113.9 12 111.2 12C107.289 12 103.911 14.2444 102.267 17.511L105.5 20.0222C106.311 17.6111 108.556 15.8666 111.2 15.8666Z" fill="#CD3636"/>
<path d="M131.817 18.376V21.183H135.359V22.632H131.817V25.495H136.311V27H129.927V16.878H136.311V18.376H131.817ZM139.453 20.7C139.598 20.5553 139.75 20.4223 139.908 20.301C140.072 20.175 140.242 20.07 140.419 19.986C140.601 19.8973 140.795 19.8297 141 19.783C141.206 19.7317 141.43 19.706 141.672 19.706C142.064 19.706 142.412 19.7737 142.715 19.909C143.019 20.0397 143.271 20.2263 143.471 20.469C143.677 20.707 143.831 20.994 143.933 21.33C144.041 21.6613 144.094 22.0277 144.094 22.429V27H142.365V22.429C142.365 21.9903 142.265 21.652 142.064 21.414C141.864 21.1713 141.558 21.05 141.147 21.05C140.849 21.05 140.569 21.1177 140.307 21.253C140.046 21.3883 139.799 21.5727 139.565 21.806V27H137.836V19.818H138.893C139.117 19.818 139.264 19.923 139.334 20.133L139.453 20.7ZM148.317 27.112C147.692 27.112 147.211 26.937 146.875 26.587C146.544 26.2323 146.378 25.7447 146.378 25.124V21.113H145.643C145.55 21.113 145.47 21.0827 145.405 21.022C145.34 20.9613 145.307 20.8703 145.307 20.749V20.063L146.462 19.874L146.826 17.914C146.849 17.8207 146.894 17.7483 146.959 17.697C147.024 17.6457 147.108 17.62 147.211 17.62H148.107V19.881H150.025V21.113H148.107V25.005C148.107 25.229 148.161 25.404 148.268 25.53C148.38 25.656 148.532 25.719 148.723 25.719C148.83 25.719 148.919 25.7073 148.989 25.684C149.064 25.656 149.127 25.628 149.178 25.6C149.234 25.572 149.283 25.5463 149.325 25.523C149.367 25.495 149.409 25.481 149.451 25.481C149.502 25.481 149.544 25.495 149.577 25.523C149.61 25.5463 149.645 25.5837 149.682 25.635L150.2 26.475C149.948 26.685 149.659 26.8437 149.332 26.951C149.005 27.0583 148.667 27.112 148.317 27.112ZM153.043 21.064C153.267 20.6347 153.533 20.2987 153.841 20.056C154.149 19.8087 154.513 19.685 154.933 19.685C155.264 19.685 155.53 19.7573 155.731 19.902L155.619 21.197C155.596 21.281 155.561 21.3417 155.514 21.379C155.472 21.4117 155.414 21.428 155.339 21.428C155.269 21.428 155.164 21.4163 155.024 21.393C154.889 21.3697 154.756 21.358 154.625 21.358C154.434 21.358 154.263 21.386 154.114 21.442C153.965 21.498 153.829 21.5797 153.708 21.687C153.591 21.7897 153.486 21.9157 153.393 22.065C153.304 22.2143 153.22 22.3847 153.141 22.576V27H151.412V19.818H152.427C152.604 19.818 152.728 19.8507 152.798 19.916C152.868 19.9767 152.915 20.0887 152.938 20.252L153.043 21.064ZM160.613 23.934C160.114 23.9573 159.694 24.0017 159.353 24.067C159.012 24.1277 158.739 24.207 158.534 24.305C158.329 24.403 158.182 24.5173 158.093 24.648C158.004 24.7787 157.96 24.921 157.96 25.075C157.96 25.3783 158.049 25.5953 158.226 25.726C158.408 25.8567 158.644 25.922 158.933 25.922C159.288 25.922 159.593 25.859 159.85 25.733C160.111 25.6023 160.366 25.4063 160.613 25.145V23.934ZM156.651 20.819C157.477 20.063 158.471 19.685 159.633 19.685C160.053 19.685 160.429 19.755 160.76 19.895C161.091 20.0303 161.371 20.2217 161.6 20.469C161.829 20.7117 162.001 21.0033 162.118 21.344C162.239 21.6847 162.3 22.058 162.3 22.464V27H161.516C161.353 27 161.227 26.9767 161.138 26.93C161.049 26.8787 160.979 26.7783 160.928 26.629L160.774 26.111C160.592 26.2743 160.415 26.419 160.242 26.545C160.069 26.6663 159.89 26.769 159.703 26.853C159.516 26.937 159.316 27 159.101 27.042C158.891 27.0887 158.658 27.112 158.401 27.112C158.098 27.112 157.818 27.0723 157.561 26.993C157.304 26.909 157.083 26.7853 156.896 26.622C156.709 26.4587 156.565 26.2557 156.462 26.013C156.359 25.7703 156.308 25.488 156.308 25.166C156.308 24.984 156.338 24.8043 156.399 24.627C156.46 24.445 156.558 24.2723 156.693 24.109C156.833 23.9457 157.013 23.7917 157.232 23.647C157.451 23.5023 157.72 23.3763 158.037 23.269C158.359 23.1617 158.732 23.0753 159.157 23.01C159.582 22.94 160.067 22.898 160.613 22.884V22.464C160.613 21.9833 160.51 21.6287 160.305 21.4C160.1 21.1667 159.803 21.05 159.416 21.05C159.136 21.05 158.903 21.0827 158.716 21.148C158.534 21.2133 158.373 21.288 158.233 21.372C158.093 21.4513 157.965 21.5237 157.848 21.589C157.736 21.6543 157.61 21.687 157.47 21.687C157.349 21.687 157.246 21.6567 157.162 21.596C157.078 21.5307 157.01 21.456 156.959 21.372L156.651 20.819ZM165.839 21.064C166.063 20.6347 166.329 20.2987 166.637 20.056C166.945 19.8087 167.309 19.685 167.729 19.685C168.061 19.685 168.327 19.7573 168.527 19.902L168.415 21.197C168.392 21.281 168.357 21.3417 168.31 21.379C168.268 21.4117 168.21 21.428 168.135 21.428C168.065 21.428 167.96 21.4163 167.82 21.393C167.685 21.3697 167.552 21.358 167.421 21.358C167.23 21.358 167.06 21.386 166.91 21.442C166.761 21.498 166.626 21.5797 166.504 21.687C166.388 21.7897 166.283 21.9157 166.189 22.065C166.101 22.2143 166.017 22.3847 165.937 22.576V27H164.208V19.818H165.223C165.401 19.818 165.524 19.8507 165.594 19.916C165.664 19.9767 165.711 20.0887 165.734 20.252L165.839 21.064ZM178.239 21.337C178.188 21.4023 178.137 21.4537 178.085 21.491C178.039 21.5283 177.969 21.547 177.875 21.547C177.787 21.547 177.7 21.5213 177.616 21.47C177.532 21.414 177.432 21.3533 177.315 21.288C177.199 21.218 177.059 21.1573 176.895 21.106C176.737 21.05 176.538 21.022 176.3 21.022C175.997 21.022 175.731 21.078 175.502 21.19C175.274 21.2973 175.082 21.4537 174.928 21.659C174.779 21.8643 174.667 22.114 174.592 22.408C174.518 22.6973 174.48 23.0263 174.48 23.395C174.48 23.7777 174.52 24.1183 174.599 24.417C174.683 24.7157 174.802 24.9677 174.956 25.173C175.11 25.3737 175.297 25.5277 175.516 25.635C175.736 25.7377 175.983 25.789 176.258 25.789C176.534 25.789 176.755 25.7563 176.923 25.691C177.096 25.621 177.241 25.5463 177.357 25.467C177.474 25.383 177.574 25.3083 177.658 25.243C177.747 25.173 177.845 25.138 177.952 25.138C178.092 25.138 178.197 25.1917 178.267 25.299L178.764 25.929C178.573 26.153 178.365 26.342 178.141 26.496C177.917 26.6453 177.684 26.7667 177.441 26.86C177.203 26.9487 176.956 27.0117 176.699 27.049C176.447 27.0863 176.195 27.105 175.943 27.105C175.5 27.105 175.082 27.0233 174.69 26.86C174.298 26.692 173.955 26.4493 173.661 26.132C173.367 25.8147 173.134 25.4273 172.961 24.97C172.793 24.508 172.709 23.983 172.709 23.395C172.709 22.8677 172.784 22.38 172.933 21.932C173.087 21.4793 173.311 21.0897 173.605 20.763C173.899 20.4317 174.263 20.1727 174.697 19.986C175.131 19.7993 175.631 19.706 176.195 19.706C176.732 19.706 177.201 19.7923 177.602 19.965C178.008 20.1377 178.372 20.385 178.694 20.707L178.239 21.337ZM183.183 19.706C183.715 19.706 184.198 19.7923 184.632 19.965C185.071 20.1377 185.444 20.3827 185.752 20.7C186.065 21.0173 186.305 21.4047 186.473 21.862C186.641 22.3193 186.725 22.8303 186.725 23.395C186.725 23.9643 186.641 24.4777 186.473 24.935C186.305 25.3923 186.065 25.782 185.752 26.104C185.444 26.426 185.071 26.6733 184.632 26.846C184.198 27.0187 183.715 27.105 183.183 27.105C182.647 27.105 182.159 27.0187 181.72 26.846C181.282 26.6733 180.906 26.426 180.593 26.104C180.285 25.782 180.045 25.3923 179.872 24.935C179.704 24.4777 179.62 23.9643 179.62 23.395C179.62 22.8303 179.704 22.3193 179.872 21.862C180.045 21.4047 180.285 21.0173 180.593 20.7C180.906 20.3827 181.282 20.1377 181.72 19.965C182.159 19.7923 182.647 19.706 183.183 19.706ZM183.183 25.775C183.781 25.775 184.222 25.5743 184.506 25.173C184.796 24.7717 184.94 24.1837 184.94 23.409C184.94 22.6343 184.796 22.044 184.506 21.638C184.222 21.232 183.781 21.029 183.183 21.029C182.577 21.029 182.126 21.2343 181.832 21.645C181.543 22.051 181.398 22.639 181.398 23.409C181.398 24.179 181.543 24.767 181.832 25.173C182.126 25.5743 182.577 25.775 183.183 25.775ZM188.324 27V19.818H189.381C189.605 19.818 189.752 19.923 189.822 20.133L189.934 20.665C190.06 20.525 190.191 20.3967 190.326 20.28C190.466 20.1633 190.613 20.063 190.767 19.979C190.926 19.895 191.094 19.8297 191.271 19.783C191.453 19.7317 191.652 19.706 191.866 19.706C192.319 19.706 192.69 19.8297 192.979 20.077C193.273 20.3197 193.493 20.644 193.637 21.05C193.749 20.812 193.889 20.609 194.057 20.441C194.225 20.2683 194.41 20.1283 194.61 20.021C194.811 19.9137 195.023 19.8343 195.247 19.783C195.476 19.7317 195.705 19.706 195.933 19.706C196.33 19.706 196.682 19.7667 196.99 19.888C197.298 20.0093 197.557 20.1867 197.767 20.42C197.977 20.6533 198.136 20.938 198.243 21.274C198.355 21.61 198.411 21.995 198.411 22.429V27H196.682V22.429C196.682 21.9717 196.582 21.6287 196.381 21.4C196.181 21.1667 195.887 21.05 195.499 21.05C195.322 21.05 195.156 21.0803 195.002 21.141C194.853 21.2017 194.72 21.2903 194.603 21.407C194.491 21.519 194.403 21.6613 194.337 21.834C194.272 22.0067 194.239 22.205 194.239 22.429V27H192.503V22.429C192.503 21.9483 192.405 21.5983 192.209 21.379C192.018 21.1597 191.736 21.05 191.362 21.05C191.11 21.05 190.875 21.113 190.655 21.239C190.441 21.3603 190.24 21.5283 190.053 21.743V27H188.324ZM212.636 21.925V26.02C212.123 26.398 211.574 26.6757 210.991 26.853C210.412 27.0257 209.792 27.112 209.129 27.112C208.303 27.112 207.554 26.9837 206.882 26.727C206.215 26.4703 205.643 26.1133 205.167 25.656C204.696 25.1987 204.332 24.6527 204.075 24.018C203.818 23.3833 203.69 22.6903 203.69 21.939C203.69 21.1783 203.814 20.4807 204.061 19.846C204.308 19.2113 204.658 18.6653 205.111 18.208C205.568 17.7507 206.121 17.396 206.77 17.144C207.419 16.892 208.147 16.766 208.954 16.766C209.365 16.766 209.747 16.7987 210.102 16.864C210.461 16.9293 210.793 17.0203 211.096 17.137C211.404 17.249 211.684 17.3867 211.936 17.55C212.188 17.7133 212.419 17.893 212.629 18.089L212.09 18.943C212.006 19.0783 211.896 19.1623 211.761 19.195C211.626 19.223 211.479 19.188 211.32 19.09C211.166 19.0013 211.012 18.9127 210.858 18.824C210.704 18.7353 210.531 18.6583 210.34 18.593C210.153 18.5277 209.941 18.474 209.703 18.432C209.47 18.39 209.199 18.369 208.891 18.369C208.392 18.369 207.939 18.453 207.533 18.621C207.132 18.789 206.789 19.0293 206.504 19.342C206.219 19.6547 206 20.0303 205.846 20.469C205.692 20.9077 205.615 21.3977 205.615 21.939C205.615 22.5177 205.697 23.0357 205.86 23.493C206.028 23.9457 206.261 24.3307 206.56 24.648C206.863 24.9607 207.227 25.201 207.652 25.369C208.077 25.5323 208.55 25.614 209.073 25.614C209.446 25.614 209.78 25.5743 210.074 25.495C210.368 25.4157 210.655 25.3083 210.935 25.173V23.339H209.661C209.54 23.339 209.444 23.3063 209.374 23.241C209.309 23.171 209.276 23.087 209.276 22.989V21.925H212.636ZM217.553 19.706C218.085 19.706 218.568 19.7923 219.002 19.965C219.441 20.1377 219.814 20.3827 220.122 20.7C220.435 21.0173 220.675 21.4047 220.843 21.862C221.011 22.3193 221.095 22.8303 221.095 23.395C221.095 23.9643 221.011 24.4777 220.843 24.935C220.675 25.3923 220.435 25.782 220.122 26.104C219.814 26.426 219.441 26.6733 219.002 26.846C218.568 27.0187 218.085 27.105 217.553 27.105C217.017 27.105 216.529 27.0187 216.09 26.846C215.652 26.6733 215.276 26.426 214.963 26.104C214.655 25.782 214.415 25.3923 214.242 24.935C214.074 24.4777 213.99 23.9643 213.99 23.395C213.99 22.8303 214.074 22.3193 214.242 21.862C214.415 21.4047 214.655 21.0173 214.963 20.7C215.276 20.3827 215.652 20.1377 216.09 19.965C216.529 19.7923 217.017 19.706 217.553 19.706ZM217.553 25.775C218.151 25.775 218.592 25.5743 218.876 25.173C219.166 24.7717 219.31 24.1837 219.31 23.409C219.31 22.6343 219.166 22.044 218.876 21.638C218.592 21.232 218.151 21.029 217.553 21.029C216.947 21.029 216.496 21.2343 216.202 21.645C215.913 22.051 215.768 22.639 215.768 23.409C215.768 24.179 215.913 24.767 216.202 25.173C216.496 25.5743 216.947 25.775 217.553 25.775ZM225.872 19.706C226.404 19.706 226.887 19.7923 227.321 19.965C227.76 20.1377 228.133 20.3827 228.441 20.7C228.754 21.0173 228.994 21.4047 229.162 21.862C229.33 22.3193 229.414 22.8303 229.414 23.395C229.414 23.9643 229.33 24.4777 229.162 24.935C228.994 25.3923 228.754 25.782 228.441 26.104C228.133 26.426 227.76 26.6733 227.321 26.846C226.887 27.0187 226.404 27.105 225.872 27.105C225.336 27.105 224.848 27.0187 224.409 26.846C223.971 26.6733 223.595 26.426 223.282 26.104C222.974 25.782 222.734 25.3923 222.561 24.935C222.393 24.4777 222.309 23.9643 222.309 23.395C222.309 22.8303 222.393 22.3193 222.561 21.862C222.734 21.4047 222.974 21.0173 223.282 20.7C223.595 20.3827 223.971 20.1377 224.409 19.965C224.848 19.7923 225.336 19.706 225.872 19.706ZM225.872 25.775C226.47 25.775 226.911 25.5743 227.195 25.173C227.485 24.7717 227.629 24.1837 227.629 23.409C227.629 22.6343 227.485 22.044 227.195 21.638C226.911 21.232 226.47 21.029 225.872 21.029C225.266 21.029 224.815 21.2343 224.521 21.645C224.232 22.051 224.087 22.639 224.087 23.409C224.087 24.179 224.232 24.767 224.521 25.173C224.815 25.5743 225.266 25.775 225.872 25.775ZM233.584 23.234C233.798 23.234 233.985 23.206 234.144 23.15C234.302 23.0893 234.433 23.0077 234.536 22.905C234.643 22.8023 234.722 22.6787 234.774 22.534C234.83 22.3893 234.858 22.2307 234.858 22.058C234.858 21.7033 234.75 21.4233 234.536 21.218C234.326 21.008 234.008 20.903 233.584 20.903C233.159 20.903 232.839 21.008 232.625 21.218C232.415 21.4233 232.31 21.7033 232.31 22.058C232.31 22.226 232.335 22.3823 232.387 22.527C232.443 22.6717 232.522 22.7977 232.625 22.905C232.732 23.0077 232.865 23.0893 233.024 23.15C233.187 23.206 233.374 23.234 233.584 23.234ZM235.537 27.322C235.537 27.182 235.495 27.0677 235.411 26.979C235.327 26.8903 235.212 26.8227 235.068 26.776C234.923 26.7247 234.753 26.6873 234.557 26.664C234.365 26.6407 234.16 26.6243 233.941 26.615C233.726 26.601 233.502 26.5893 233.269 26.58C233.04 26.5707 232.816 26.552 232.597 26.524C232.405 26.6313 232.249 26.7573 232.128 26.902C232.011 27.0467 231.953 27.2147 231.953 27.406C231.953 27.532 231.983 27.6487 232.044 27.756C232.109 27.868 232.209 27.9637 232.345 28.043C232.485 28.1223 232.664 28.183 232.884 28.225C233.103 28.2717 233.371 28.295 233.689 28.295C234.011 28.295 234.288 28.2693 234.522 28.218C234.755 28.1713 234.946 28.1037 235.096 28.015C235.25 27.931 235.362 27.8283 235.432 27.707C235.502 27.5903 235.537 27.462 235.537 27.322ZM237.259 20.063V20.707C237.259 20.9123 237.135 21.0383 236.888 21.085L236.244 21.204C236.342 21.4513 236.391 21.722 236.391 22.016C236.391 22.3707 236.318 22.6927 236.174 22.982C236.034 23.2667 235.838 23.5093 235.586 23.71C235.334 23.9107 235.035 24.067 234.69 24.179C234.349 24.2863 233.98 24.34 233.584 24.34C233.444 24.34 233.308 24.333 233.178 24.319C233.047 24.305 232.919 24.2863 232.793 24.263C232.569 24.3983 232.457 24.55 232.457 24.718C232.457 24.8627 232.522 24.97 232.653 25.04C232.788 25.1053 232.965 25.152 233.185 25.18C233.404 25.208 233.654 25.2267 233.934 25.236C234.214 25.2407 234.501 25.2547 234.795 25.278C235.089 25.3013 235.376 25.3433 235.656 25.404C235.936 25.46 236.185 25.551 236.405 25.677C236.624 25.803 236.799 25.9757 236.93 26.195C237.065 26.4097 237.133 26.6873 237.133 27.028C237.133 27.3453 237.053 27.6533 236.895 27.952C236.741 28.2507 236.514 28.5167 236.216 28.75C235.922 28.9833 235.558 29.17 235.124 29.31C234.694 29.4547 234.204 29.527 233.654 29.527C233.112 29.527 232.641 29.4733 232.24 29.366C231.838 29.2633 231.505 29.1233 231.239 28.946C230.973 28.7733 230.774 28.5727 230.644 28.344C230.513 28.1153 230.448 27.8773 230.448 27.63C230.448 27.294 230.548 27.014 230.749 26.79C230.954 26.5613 231.234 26.3793 231.589 26.244C231.397 26.146 231.246 26.0153 231.134 25.852C231.022 25.6887 230.966 25.474 230.966 25.208C230.966 25.1007 230.984 24.991 231.022 24.879C231.064 24.7623 231.122 24.648 231.197 24.536C231.276 24.424 231.374 24.319 231.491 24.221C231.607 24.1183 231.745 24.0273 231.904 23.948C231.54 23.752 231.253 23.4907 231.043 23.164C230.837 22.8373 230.735 22.4547 230.735 22.016C230.735 21.6613 230.805 21.3417 230.945 21.057C231.089 20.7677 231.288 20.5227 231.54 20.322C231.796 20.1167 232.097 19.9603 232.443 19.853C232.793 19.7457 233.173 19.692 233.584 19.692C233.892 19.692 234.181 19.7247 234.452 19.79C234.722 19.8507 234.97 19.9417 235.194 20.063H237.259ZM240.385 16.598V27H238.656V16.598H240.385ZM247.015 22.583C247.015 22.359 246.982 22.149 246.917 21.953C246.856 21.7523 246.763 21.5773 246.637 21.428C246.511 21.2787 246.35 21.162 246.154 21.078C245.963 20.9893 245.739 20.945 245.482 20.945C244.983 20.945 244.588 21.0873 244.299 21.372C244.014 21.6567 243.832 22.0603 243.753 22.583H247.015ZM243.718 23.626C243.746 23.9947 243.811 24.3143 243.914 24.585C244.017 24.851 244.152 25.0727 244.32 25.25C244.488 25.4227 244.686 25.5533 244.915 25.642C245.148 25.726 245.405 25.768 245.685 25.768C245.965 25.768 246.205 25.7353 246.406 25.67C246.611 25.6047 246.789 25.5323 246.938 25.453C247.092 25.3737 247.225 25.3013 247.337 25.236C247.454 25.1707 247.566 25.138 247.673 25.138C247.818 25.138 247.925 25.1917 247.995 25.299L248.492 25.929C248.301 26.153 248.086 26.342 247.848 26.496C247.61 26.6453 247.36 26.7667 247.099 26.86C246.842 26.9487 246.579 27.0117 246.308 27.049C246.042 27.0863 245.783 27.105 245.531 27.105C245.032 27.105 244.567 27.0233 244.138 26.86C243.709 26.692 243.335 26.447 243.018 26.125C242.701 25.7983 242.451 25.397 242.269 24.921C242.087 24.4403 241.996 23.885 241.996 23.255C241.996 22.765 242.075 22.3053 242.234 21.876C242.393 21.442 242.619 21.0663 242.913 20.749C243.212 20.427 243.573 20.1727 243.998 19.986C244.427 19.7993 244.91 19.706 245.447 19.706C245.9 19.706 246.317 19.7783 246.7 19.923C247.083 20.0677 247.412 20.28 247.687 20.56C247.962 20.8353 248.177 21.176 248.331 21.582C248.49 21.9833 248.569 22.443 248.569 22.961C248.569 23.2223 248.541 23.3997 248.485 23.493C248.429 23.5817 248.322 23.626 248.163 23.626H243.718Z" fill="#2D3370"/>
</g>
<defs>
<filter id="filter0_d_240_3109" x="0" y="0" width="351" height="48" filterUnits="userSpaceOnUse" color-interpolation-filters="sRGB">
<feFlood flood-opacity="0" result="BackgroundImageFix"/>
<feColorMatrix in="SourceAlpha" type="matrix" values="0 0 0 0 0 0 0 0 0 0 0 0 0 0 0 0 0 0 127 0" result="hardAlpha"/>
<feOffset dy="2"/>
<feGaussianBlur stdDeviation="2"/>
<feComposite in2="hardAlpha" operator="out"/>
<feColorMatrix type="matrix" values="0 0 0 0 0 0 0 0 0 0 0 0 0 0 0 0 0 0 0.04 0"/>
<feBlend mode="normal" in2="BackgroundImageFix" result="effect1_dropShadow_240_3109"/>
<feBlend mode="normal" in="SourceGraphic" in2="effect1_dropShadow_240_3109" result="shape"/>
</filter>
<linearGradient id="paint0_linear_240_3109" x1="4" y1="22" x2="347" y2="22" gradientUnits="userSpaceOnUse">
<stop stop-color="#CD3636"/>
<stop offset="0.385" stop-color="#FBBC55"/>
<stop offset="0.695" stop-color="#2F9461"/>
<stop offset="1" stop-color="#2C6AC9"/>
</linearGradient>
</defs>
</svg>
