<svg width="252" height="230" viewBox="0 0 252 230" fill="none" xmlns="http://www.w3.org/2000/svg">
<path d="M9.62195 221.631C9.62195 217.011 29.4792 213.263 53.9713 213.263C78.4634 213.263 98.3207 217.011 98.3207 221.631C98.3207 226.252 78.4634 230 53.9713 230C29.4739 230 9.62195 226.252 9.62195 221.631Z" fill="#2F419E"/>
<path d="M175.371 205.585H233.512" stroke="#4B4B4B" stroke-miterlimit="10" stroke-linecap="round" stroke-linejoin="round"/>
<path d="M239.824 115.034V117.352" stroke="#FE5A42" stroke-miterlimit="10" stroke-linecap="round" stroke-linejoin="round"/>
<path d="M239.824 119.965V122.283" stroke="#FE5A42" stroke-miterlimit="10" stroke-linecap="round" stroke-linejoin="round"/>
<path d="M236.202 118.658H238.522" stroke="#FE5A42" stroke-miterlimit="10" stroke-linecap="round" stroke-linejoin="round"/>
<path d="M241.131 118.658H243.451" stroke="#FE5A42" stroke-miterlimit="10" stroke-linecap="round" stroke-linejoin="round"/>
<path d="M215.53 178.605V180.923" stroke="#FE5A42" stroke-miterlimit="10" stroke-linecap="round" stroke-linejoin="round"/>
<path d="M215.53 183.536V185.854" stroke="#FE5A42" stroke-miterlimit="10" stroke-linecap="round" stroke-linejoin="round"/>
<path d="M211.903 182.229H214.223" stroke="#FE5A42" stroke-miterlimit="10" stroke-linecap="round" stroke-linejoin="round"/>
<path d="M216.837 182.229H219.157" stroke="#FE5A42" stroke-miterlimit="10" stroke-linecap="round" stroke-linejoin="round"/>
<path d="M35.1696 5.78027V8.09866" stroke="#FE5A42" stroke-miterlimit="10" stroke-linecap="round" stroke-linejoin="round"/>
<path d="M35.1696 10.7062V13.0246" stroke="#FE5A42" stroke-miterlimit="10" stroke-linecap="round" stroke-linejoin="round"/>
<path d="M31.5422 9.39975H33.8623" stroke="#FE5A42" stroke-miterlimit="10" stroke-linecap="round" stroke-linejoin="round"/>
<path d="M36.4717 9.39975H38.7918" stroke="#FE5A42" stroke-miterlimit="10" stroke-linecap="round" stroke-linejoin="round"/>
<path d="M53.9661 64.3075V66.6259" stroke="#FE5A42" stroke-miterlimit="10" stroke-linecap="round" stroke-linejoin="round"/>
<path d="M53.9661 69.2334V71.5518" stroke="#FE5A42" stroke-miterlimit="10" stroke-linecap="round" stroke-linejoin="round"/>
<path d="M50.3439 67.9324H52.664" stroke="#FE5A42" stroke-miterlimit="10" stroke-linecap="round" stroke-linejoin="round"/>
<path d="M55.2734 67.9324H57.5935" stroke="#FE5A42" stroke-miterlimit="10" stroke-linecap="round" stroke-linejoin="round"/>
<path d="M97.4206 19.2677C93.895 19.2677 91.0444 22.1375 91.0444 25.6606V203.063C91.0444 206.586 93.9003 209.434 97.4206 209.434H104.922V19.2677H97.4206Z" fill="#4B4B4B"/>
<path d="M91.0497 25.6499C91.0497 22.1268 93.9056 19.2729 97.4313 19.2729H165.785C169.311 19.2729 172.167 22.1268 172.167 25.6499V203.068C172.167 206.591 169.311 209.445 165.785 209.445H97.4313C93.9056 209.445 91.0497 206.591 91.0497 203.068V25.6499Z" stroke="#4B4B4B" stroke-miterlimit="10" stroke-linecap="round" stroke-linejoin="round"/>
<path d="M110.596 25.093H112.37V35.6784H110.596V25.093Z" fill="#4B4B4B"/>
<path d="M113.693 25.093H114.84V35.6784H113.693V25.093Z" fill="#4B4B4B"/>
<path d="M116.79 25.093H117.417V35.6784H116.79V25.093Z" fill="#4B4B4B"/>
<path d="M118.382 25.093H120.155V35.6784H118.382V25.093Z" fill="#4B4B4B"/>
<path d="M122.218 25.093H123.252V35.6784H122.218V25.093Z" fill="#4B4B4B"/>
<path d="M124.57 25.093H125.776V35.6784H124.57V25.093Z" fill="#4B4B4B"/>
<path d="M127.667 25.093H129.441V35.6784H127.667V25.093Z" fill="#4B4B4B"/>
<path d="M132.516 25.093H133.727V35.6784H132.516V25.093Z" fill="#4B4B4B"/>
<path d="M130.764 25.093H131.606V35.6784H130.764V25.093Z" fill="#4B4B4B"/>
<path d="M176.051 16.8475C177.455 13.6189 181.211 12.1304 184.448 13.5332L247.154 40.706C250.39 42.1088 251.874 45.8622 250.471 49.0961L179.834 211.865C178.43 215.099 174.674 216.582 171.438 215.179L108.726 188.007C105.495 186.604 104.006 182.851 105.41 179.617L176.051 16.8475Z" fill="#F5F6FF"/>
<path d="M226.927 42.6817C227.189 42.0981 227.875 41.8358 228.459 42.0928L232.248 43.7793C232.832 44.0417 233.094 44.727 232.837 45.3107L223.241 66.8187C222.978 67.4023 222.292 67.6646 221.708 67.4076L217.92 65.721C217.336 65.4587 217.073 64.7733 217.331 64.1897L226.927 42.6817Z" fill="#2F419E"/>
<path d="M207.471 109.813C207.734 109.23 208.42 108.967 209.004 109.224L212.921 110.97C213.505 111.232 213.767 111.917 213.51 112.501L194.049 156.117C193.787 156.7 193.101 156.963 192.517 156.706L188.6 154.96C188.016 154.698 187.753 154.013 188.011 153.429L207.471 109.813Z" stroke="#4B4B4B" stroke-miterlimit="10" stroke-linecap="round" stroke-linejoin="round"/>
<path d="M198.995 106.242C199.257 105.658 199.943 105.396 200.527 105.653L202.371 106.472C202.955 106.735 203.217 107.42 202.96 108.004L190.513 135.899C190.25 136.483 189.565 136.745 188.981 136.488L187.137 135.669C186.553 135.407 186.291 134.721 186.548 134.138L198.995 106.242Z" stroke="#4B4B4B" stroke-miterlimit="10" stroke-linecap="round" stroke-linejoin="round"/>
<path d="M235.371 46.8687C235.634 46.2851 236.32 46.0228 236.904 46.2798L239.138 47.2757C239.722 47.538 239.985 48.2234 239.727 48.807L232.162 65.7639C231.899 66.3475 231.213 66.6098 230.629 66.3528L228.395 65.3569C227.811 65.0946 227.548 64.4092 227.806 63.8256L235.371 46.8687Z" fill="#2F419E"/>
<path d="M164.628 80.7932L223.385 106.285" stroke="#4B4B4B" stroke-miterlimit="10" stroke-linecap="round" stroke-linejoin="round" stroke-dasharray="5 9"/>
<path d="M184.437 13.5225C181.206 12.1197 177.444 13.6189 176.041 16.8475L105.41 179.611C104.006 182.84 105.49 186.593 108.726 187.996L115.611 190.978L191.322 16.5102L184.437 13.5225Z" fill="#4B4B4B"/>
<path d="M176.051 16.8475C177.455 13.6189 181.211 12.1304 184.448 13.5332L247.154 40.706C250.39 42.1088 251.874 45.8622 250.471 49.0961L179.834 211.865C178.43 215.099 174.674 216.582 171.438 215.179L108.726 188.007C105.495 186.604 104.006 182.851 105.41 179.617L176.051 16.8475Z" stroke="#4B4B4B" stroke-miterlimit="10" stroke-linecap="round" stroke-linejoin="round"/>
<path d="M194.205 24.1132L195.834 24.82L191.622 34.5326L189.993 33.8258L194.205 24.1132Z" fill="#4B4B4B"/>
<path d="M197.045 25.3393L198.095 25.7945L193.883 35.5071L192.833 35.0519L197.045 25.3393Z" fill="#4B4B4B"/>
<path d="M199.884 26.5708L200.458 26.8171L196.246 36.5297L195.673 36.2834L199.884 26.5708Z" fill="#4B4B4B"/>
<path d="M201.347 27.2026L202.976 27.9094L198.765 37.622L197.136 36.9152L201.347 27.2026Z" fill="#4B4B4B"/>
<path d="M204.867 28.7286L205.816 29.1408L201.604 38.8534L200.656 38.4412L204.867 28.7286Z" fill="#4B4B4B"/>
<path d="M207.027 29.6656L208.13 30.1421L203.919 39.8547L202.815 39.3782L207.027 29.6656Z" fill="#4B4B4B"/>
<path d="M209.867 30.8971L211.495 31.6038L207.284 41.3164L205.655 40.6097L209.867 30.8971Z" fill="#4B4B4B"/>
<path d="M214.319 32.8246L215.428 33.3064L211.212 43.019L210.102 42.5372L214.319 32.8246Z" fill="#4B4B4B"/>
<path d="M212.706 32.1285L213.478 32.4659L209.261 42.1785L208.49 41.8411L212.706 32.1285Z" fill="#4B4B4B"/>
<path d="M77.0007 36.958H179.636C184.732 36.958 188.863 41.0862 188.863 46.1781V191.139C188.863 196.231 184.732 200.359 179.636 200.359H77.0007V36.958Z" fill="#2F419E"/>
<path d="M83.7037 39.2925V195.744" stroke="#F5F6FF" stroke-miterlimit="10" stroke-linecap="round" stroke-linejoin="round"/>
<path d="M125.985 178.417C125.985 177.362 126.842 176.506 127.898 176.506H143.383C144.438 176.506 145.296 177.362 145.296 178.417V186.042C145.296 187.096 144.438 187.953 143.383 187.953H127.898C126.842 187.953 125.985 187.096 125.985 186.042V178.417Z" fill="#F5F6FF"/>
<path d="M125.985 182.229H133.459" stroke="#2F419E" stroke-miterlimit="10" stroke-linecap="round" stroke-linejoin="round"/>
<path d="M137.896 182.229H145.376" stroke="#2F419E" stroke-miterlimit="10" stroke-linecap="round" stroke-linejoin="round"/>
<path d="M133.604 182.229C133.604 181.105 134.52 180.189 135.646 180.189C136.771 180.189 137.687 181.105 137.687 182.229C137.687 183.354 136.771 184.269 135.646 184.269C134.515 184.269 133.604 183.354 133.604 182.229Z" fill="#F5F6FF" stroke="#2F419E" stroke-miterlimit="10" stroke-linecap="round" stroke-linejoin="round"/>
<path d="M110.093 125.699C110.093 111.58 121.548 100.133 135.678 100.133C149.807 100.133 161.263 111.58 161.263 125.699C161.263 139.818 149.807 151.266 135.678 151.266C121.548 151.266 110.093 139.818 110.093 125.699Z" stroke="#F5F6FF" stroke-miterlimit="10" stroke-linecap="round" stroke-linejoin="round"/>
<path d="M121.286 104.994C121.286 104.994 124.908 107.04 125.245 109.508C125.588 111.976 123.713 114.702 125.288 116.19C126.864 117.679 128.653 115.425 129.891 115.639C131.123 115.853 129.934 117.127 131.043 117.727C132.152 118.321 133.513 118.364 133.004 119.772C132.495 121.175 132.152 122.198 130.534 122.326C128.916 122.455 127.978 121.432 126.703 122.583C125.422 123.734 126.778 124.543 125.904 125.469C124.806 126.631 123.199 125.651 122.523 126.717C121.854 127.782 123.349 128.087 123.295 129.271C123.241 130.449 122.314 130.647 122.314 131.439C122.314 132.424 123.375 132.098 124.056 133.179C124.72 134.234 125.213 135.573 123.938 135.658C123.311 135.701 123.193 134.85 122.314 134.277C121.398 133.677 120.477 134.079 119.78 133.345C118.644 132.146 119.866 130.218 118.419 128.858C116.972 127.498 115.36 128.687 113.768 126.968C110.344 123.274 110.569 120.602 110.569 120.602C110.569 120.602 113.908 110.916 117.101 108.148C120.284 105.364 121.286 104.994 121.286 104.994Z" fill="#F5F6FF"/>
<path d="M123.258 103.736C123.258 103.736 123.456 105.503 125.149 105.509C126.274 105.514 126.676 105.053 127.592 103.972C128.509 102.89 128.439 102.655 129.655 103.056C130.871 103.463 130.839 103.667 131.756 103.19C132.672 102.719 133.111 100.283 133.111 100.283C133.111 100.283 129.527 100.556 126.751 101.873C123.965 103.196 123.258 103.736 123.258 103.736Z" fill="#F5F6FF"/>
<path d="M128.182 104.994C127.448 105.342 127.019 107.832 127.019 107.832C127.019 107.832 126.285 110.723 127.571 110.67C128.857 110.616 129.151 108.93 129.682 107.613C130.207 106.301 128.91 104.646 128.182 104.994Z" fill="#F5F6FF"/>
<path d="M135.812 100.374C135.812 100.374 135.056 102.023 134.44 103.394C133.829 104.77 134.628 105.171 133.958 105.964C133.288 106.756 132.715 106.74 131.943 108.17C131.172 109.599 130.513 113.021 131.949 113.331C133.384 113.642 133.593 110.799 134.938 109.626C136.283 108.453 138.009 108.561 139.595 107.367C141.181 106.178 142.22 105.139 142.375 103.785C142.531 102.43 142.225 100.727 142.225 100.727C142.225 100.727 140.221 100.518 138.689 100.411C137.151 100.31 135.812 100.374 135.812 100.374Z" fill="#F5F6FF"/>
<path d="M129.666 133.795C127.389 134.122 125.513 135.117 125.261 137.554C125.01 139.995 128.712 141.816 129.189 143.631C129.559 145.055 129.098 144.455 128.541 146.495C127.989 148.535 130.898 150.923 130.898 150.923L134.579 151.266C134.579 151.266 134.274 147.432 135.704 145.692C137.135 143.952 138.266 141.034 138.314 139.551C138.357 138.062 135.705 137.264 134.37 136.258C133.036 135.246 131.943 133.468 129.666 133.795Z" fill="#F5F6FF"/>
<path d="M152.658 106.863C152.658 106.863 151.04 106.697 150.043 108.046C149.052 109.396 151.725 110.418 150.916 111.751C150.107 113.085 149.55 112.587 148.628 114.038C147.712 115.494 148.671 116.651 147.23 117.063C145.794 117.475 144.465 118.043 144.24 119.467C144.015 120.891 146.844 121.48 148.302 121.255C149.754 121.03 151.608 120.591 152.315 121.619C153.022 122.647 153.349 124.891 155.23 125.148C157.11 125.399 161.118 125.812 161.118 125.812C161.118 125.812 161.804 119.199 159.559 115.783C157.319 112.357 152.658 106.863 152.658 106.863Z" fill="#F5F6FF"/>
<path d="M143.383 128.409C143.576 130.481 145.955 129.57 145.446 131.209C144.937 132.847 143.002 135.144 144.99 135.214C146.978 135.278 149.148 133.201 150.177 134.876C151.206 136.547 150.402 138.089 151.179 139.631C151.961 141.173 153.418 144.054 153.418 144.054C153.418 144.054 156.285 141.366 157.801 138.314C159.323 135.262 158.846 134.32 158.568 132.231C158.289 130.143 158.943 128.714 157.346 127.439C155.749 126.17 154.694 127.804 152.829 126.759C150.964 125.715 150.279 124.966 148.21 124.837C146.147 124.709 143.19 126.336 143.383 128.409Z" fill="#F5F6FF"/>
<path d="M95.4649 71.7072V76.0013H92.9519V63.8151H97.7099C98.6262 63.8151 99.4299 63.981 100.126 64.3184C100.823 64.6557 101.359 65.1269 101.729 65.7479C102.104 66.3637 102.291 67.0651 102.291 67.8522C102.291 69.0462 101.884 69.9885 101.064 70.6792C100.244 71.3699 99.1138 71.7126 97.6671 71.7126H95.4649V71.7072ZM95.4649 69.6726H97.7099C98.3743 69.6726 98.8834 69.5173 99.2316 69.2014C99.5799 68.8909 99.7567 68.4411 99.7567 67.8629C99.7567 67.2686 99.5799 66.7813 99.2316 66.4172C98.878 66.0478 98.3958 65.8604 97.7742 65.8497H95.4702V69.6726H95.4649Z" fill="#F5F6FF"/>
<path d="M109.412 73.4902H105.008L104.172 76.0013H101.498L106.036 63.8151H108.367L112.932 76.0013H110.259L109.412 73.4902ZM105.683 71.4556H108.732L107.199 66.8938L105.683 71.4556Z" fill="#F5F6FF"/>
<path d="M120.391 72.8047C120.391 72.3282 120.225 71.9641 119.887 71.7125C119.55 71.4608 118.95 71.1931 118.076 70.9093C117.203 70.6255 116.517 70.3525 116.008 70.0741C114.626 69.3245 113.929 68.3179 113.929 67.0543C113.929 66.3957 114.117 65.8067 114.486 65.2927C114.856 64.7787 115.392 64.3718 116.088 64.0827C116.785 63.7935 117.562 63.649 118.43 63.649C119.303 63.649 120.075 63.8042 120.761 64.1201C121.441 64.436 121.972 64.8804 122.347 65.4533C122.722 66.0263 122.915 66.6795 122.915 67.413H120.402C120.402 66.8562 120.225 66.4225 119.877 66.1119C119.523 65.8014 119.03 65.6461 118.392 65.6461C117.776 65.6461 117.299 65.7746 116.962 66.037C116.619 66.294 116.453 66.6366 116.453 67.0596C116.453 67.4558 116.651 67.7878 117.053 68.0555C117.455 68.3232 118.039 68.5749 118.816 68.8105C120.246 69.2388 121.286 69.7742 121.939 70.4114C122.593 71.0485 122.92 71.841 122.92 72.7887C122.92 73.8435 122.518 74.6734 121.72 75.273C120.921 75.8727 119.844 76.1725 118.494 76.1725C117.557 76.1725 116.699 76.0012 115.933 75.6585C115.161 75.3159 114.572 74.8447 114.17 74.2504C113.763 73.6561 113.565 72.96 113.565 72.1729H116.088C116.088 73.5168 116.892 74.1915 118.5 74.1915C119.1 74.1915 119.566 74.0683 119.898 73.8274C120.225 73.5757 120.391 73.2384 120.391 72.8047Z" fill="#F5F6FF"/>
<path d="M130.941 72.8047C130.941 72.3282 130.775 71.9641 130.437 71.7125C130.105 71.4608 129.5 71.1931 128.626 70.9093C127.753 70.6255 127.067 70.3525 126.558 70.0741C125.176 69.3245 124.479 68.3179 124.479 67.0543C124.479 66.3957 124.667 65.8067 125.036 65.2927C125.406 64.7787 125.942 64.3718 126.639 64.0827C127.335 63.7935 128.112 63.649 128.98 63.649C129.853 63.649 130.625 63.8042 131.311 64.1201C131.991 64.436 132.522 64.8804 132.897 65.4533C133.272 66.0263 133.459 66.6795 133.459 67.413H130.946C130.946 66.8562 130.77 66.4225 130.416 66.1119C130.062 65.8014 129.569 65.6461 128.932 65.6461C128.316 65.6461 127.839 65.7746 127.501 66.037C127.158 66.294 126.992 66.6366 126.992 67.0596C126.992 67.4558 127.19 67.7878 127.592 68.0555C127.994 68.3232 128.578 68.5749 129.355 68.8105C130.786 69.2388 131.825 69.7742 132.479 70.4114C133.133 71.0485 133.459 71.841 133.459 72.7887C133.459 73.8435 133.058 74.6734 132.259 75.273C131.461 75.8727 130.384 76.1725 129.034 76.1725C128.096 76.1725 127.239 76.0012 126.472 75.6585C125.701 75.3159 125.111 74.8447 124.71 74.2504C124.302 73.6561 124.104 72.96 124.104 72.1729H126.628C126.628 73.5168 127.432 74.1915 129.039 74.1915C129.634 74.1915 130.105 74.0683 130.437 73.8274C130.77 73.5757 130.941 73.2384 130.941 72.8047Z" fill="#F5F6FF"/>
<path d="M137.671 71.7072V76.0013H135.158V63.8151H139.916C140.832 63.8151 141.636 63.981 142.333 64.3184C143.029 64.6557 143.565 65.1269 143.935 65.7479C144.31 66.3637 144.497 67.0651 144.497 67.8522C144.497 69.0462 144.09 69.9885 143.27 70.6792C142.45 71.3699 141.32 71.7126 139.873 71.7126H137.671V71.7072ZM137.671 69.6726H139.916C140.58 69.6726 141.089 69.5173 141.438 69.2014C141.786 68.8909 141.963 68.4411 141.963 67.8629C141.963 67.2686 141.786 66.7813 141.432 66.4172C141.079 66.0478 140.596 65.8604 139.975 65.8497H137.671V69.6726Z" fill="#F5F6FF"/>
<path d="M156.242 70.1812C156.242 71.3805 156.028 72.4353 155.605 73.3348C155.181 74.2397 154.571 74.9357 153.783 75.4283C152.99 75.9209 152.084 76.1672 151.066 76.1672C150.054 76.1672 149.153 75.9263 148.36 75.439C147.567 74.9518 146.951 74.2611 146.517 73.3616C146.083 72.4621 145.864 71.4233 145.858 70.2508V69.6457C145.858 68.4464 146.072 67.3916 146.506 66.476C146.94 65.5658 147.551 64.8644 148.339 64.3771C149.127 63.8899 150.032 63.6436 151.05 63.6436C152.068 63.6436 152.968 63.8899 153.761 64.3771C154.549 64.8644 155.165 65.5658 155.594 66.476C156.028 67.3862 156.242 68.441 156.242 69.635V70.1812ZM153.697 69.6297C153.697 68.35 153.467 67.3809 153.011 66.717C152.556 66.053 151.902 65.7211 151.05 65.7211C150.209 65.7211 149.555 66.0477 149.1 66.7062C148.644 67.3595 148.409 68.3232 148.403 69.5922V70.1865C148.403 71.4287 148.634 72.3978 149.089 73.0832C149.545 73.7685 150.204 74.1112 151.066 74.1112C151.907 74.1112 152.556 73.7792 153.011 73.1206C153.461 72.4621 153.692 71.4929 153.697 70.2293V69.6297Z" fill="#F5F6FF"/>
<path d="M162.586 71.5412H160.582V76.0013H158.069V63.8151H162.602C164.044 63.8151 165.153 64.1363 165.935 64.7788C166.717 65.4213 167.109 66.3262 167.109 67.4988C167.109 68.3287 166.926 69.0247 166.567 69.5762C166.208 70.1331 165.662 70.5721 164.928 70.9041L167.564 75.8835V76.0013H164.869L162.586 71.5412ZM160.582 69.5066H162.608C163.24 69.5066 163.728 69.346 164.076 69.0247C164.424 68.7035 164.596 68.2591 164.596 67.6969C164.596 67.124 164.435 66.6689 164.103 66.3423C163.776 66.0157 163.278 65.8497 162.597 65.8497H160.577V69.5066H160.582Z" fill="#F5F6FF"/>
<path d="M177.782 65.8443H174.047V75.996H171.534V65.8443H167.848V63.8097H177.782V65.8443Z" fill="#F5F6FF"/>
<path d="M167.569 56.319C148.296 71.7232 110.152 104.02 86.9829 115.055C74.9217 120.8 51.9674 125.924 38.3738 123.022C-0.429851 114.745 20.6491 69.03 41.1922 46.5636C53.9339 32.6265 69.2207 24.7343 69.2207 24.7343" stroke="#A0A0A0" stroke-miterlimit="10" stroke-linecap="round" stroke-linejoin="round" stroke-dasharray="6 9"/>
<path d="M183.006 2.84614L180.552 5.50184L204.299 19.1498C194.735 27.1491 185.171 35.7855 178.296 42.1088L165.49 39.5227L161.922 42.9173L171.851 48.0574C171.133 48.732 169.204 50.5364 169.204 50.5364L172.199 55.3392C172.199 55.3392 175.596 53.0422 176.287 52.5817L175.039 61.609L177.578 60.854L180.9 49.4709C186.687 45.5944 193.09 41.2521 203.549 33.9275L197.618 66.5831L204.616 64.3825L212.867 40.9951L222.673 36.1549C223.053 35.9889 223.246 35.5659 223.133 35.1644L221.917 30.806C221.794 30.3616 221.338 30.1046 220.894 30.2331L216.195 31.5449L219.35 22.6087C221.285 21.1684 223.219 19.7281 224.859 18.4484C241.956 5.12705 240.601 2.03765 240.601 2.03765C240.601 2.03765 237.568 -2.64197 227.5 2.18221C224.398 3.67069 219.929 6.82434 215.026 10.5616L204.546 8.02905L207.434 5.91947C207.761 5.67853 207.868 5.23948 207.686 4.8754L206.164 1.86096C205.955 1.44868 205.462 1.2827 205.055 1.49151L196.107 5.99979L183.006 2.84614Z" fill="#EEC765"/>
<path d="M231.38 2.08585C230.479 2.3375 229.392 2.73907 228.1 3.36016C227.972 3.42441 227.65 3.66535 227.495 3.75637C228.202 4.55416 229.011 5.43225 229.595 6.16043L235.157 1.9038C235.157 1.9038 234.091 1.32555 231.38 2.08585ZM225.582 4.9932C225.014 5.37871 223.492 6.51381 223.492 6.51381C223.492 6.51381 225.25 9.21235 225.362 9.39975L227.806 7.53112C227.195 6.77081 226.343 5.84988 225.582 4.9932ZM222.646 7.1349C222.014 7.60607 221.033 8.40921 220.331 8.94464C220.583 9.41046 221.713 11.3487 222.099 11.9055L224.58 10.0048C224.446 9.79061 223.074 7.65962 222.646 7.1349ZM219.538 9.56573C218.734 10.1815 217.684 11.0489 216.811 11.7288C217.197 12.3553 218.322 14.1704 218.584 14.5934L221.312 12.5106C220.904 11.9162 219.763 9.97265 219.538 9.56573ZM216.039 12.3553C215.171 13.0406 214.175 13.8652 213.264 14.588L215.016 17.3347L217.797 15.2037C217.513 14.754 216.286 12.7461 216.039 12.3553ZM212.487 15.2091C211.678 15.857 210.911 16.5102 210.081 17.1795C210.306 17.5061 211.571 19.3801 211.833 19.7602L214.234 17.9237C213.955 17.4954 212.68 15.5143 212.487 15.2091ZM209.315 17.8166C208.404 18.5555 206.727 19.953 206.727 19.953C206.727 19.953 208.211 22.1054 208.415 22.3784L211.045 20.3652C210.772 19.969 209.524 18.1165 209.315 17.8166ZM205.977 20.5687C204.621 21.677 204.605 21.7199 203.276 22.8175C203.507 23.1655 204.605 24.7718 204.841 25.1305L207.648 22.9781C207.418 22.6729 206.223 20.89 205.977 20.5687ZM202.51 23.4493C201.267 24.4773 201.186 24.5469 199.954 25.5642C200.463 26.2924 200.951 27.0152 201.422 27.7434L204.053 25.7302C203.801 25.3554 202.719 23.7652 202.51 23.4493ZM199.188 26.196C198.1 27.0955 198.004 27.1865 196.916 28.0861C197.125 28.3966 198.089 29.8423 198.293 30.1474L200.635 28.3538C200.174 27.6309 199.692 26.9188 199.188 26.196ZM196.123 28.7393C194.789 29.8476 194.607 30.0029 193.294 31.0898C193.46 31.3682 194.258 32.6372 194.526 33.0334L197.521 30.7364C197.302 30.4152 196.343 29.0498 196.123 28.7393ZM192.528 31.7216C191.697 32.4123 191.531 32.5461 190.679 33.2529C190.968 33.7027 191.66 34.8163 191.836 35.0894L193.749 33.617C193.465 33.1994 192.656 31.9304 192.528 31.7216ZM189.918 33.8847C189.077 34.5861 188.857 34.7789 188.027 35.4642C188.493 36.171 189.093 37.1829 189.093 37.1829L191.054 35.6837C190.888 35.4267 190.133 34.2167 189.918 33.8847ZM187.25 36.1014C186.618 36.6314 186.066 37.0919 185.594 37.4774C185.868 37.97 186.468 39.1908 186.468 39.1908L188.305 37.7826C188 37.2793 187.7 36.7814 187.25 36.1014Z" fill="#4B4B4B"/>
<path d="M220.728 33.5206C220.358 32.2035 220.336 31.0577 220.674 30.9613C221.012 30.8649 221.585 31.8608 221.949 33.178C222.319 34.4951 222.34 35.6409 222.003 35.7373C221.671 35.8337 221.097 34.8431 220.728 33.5206Z" fill="#4B4B4B"/>
<path d="M205.537 4.06155C205.028 3.03889 204.83 2.10189 205.092 1.96804C205.355 1.83954 205.982 2.56236 206.491 3.59037C207 4.61303 207.198 5.55003 206.936 5.68388C206.673 5.81239 206.046 5.08421 205.537 4.06155Z" fill="#4B4B4B"/>
<path d="M203.292 33.3278L204.283 28.4394L222.394 14.0526L219.833 21.4628" stroke="#F5F6FF" stroke-miterlimit="10" stroke-linecap="round" stroke-linejoin="round"/>
<path d="M175.987 51.8482L176.389 50.2045L182.154 45.9264L181.158 48.6517" stroke="#F5F6FF" stroke-miterlimit="10" stroke-linecap="round" stroke-linejoin="round"/>
<path d="M204.825 18.9517L214.432 10.9685" stroke="#4B4B4B" stroke-miterlimit="10" stroke-linecap="round" stroke-linejoin="round"/>
<path d="M171.867 47.6183L177.718 42.2695" stroke="#4B4B4B" stroke-miterlimit="10" stroke-linecap="round" stroke-linejoin="round"/>
<path d="M215.557 31.3736L212.787 32.1446C212.787 32.1446 210.794 34.1952 210.836 36.5618C210.879 38.923 212.235 40.7917 212.235 40.7917" stroke="#F5F6FF" stroke-miterlimit="10" stroke-linecap="round" stroke-linejoin="round"/>
<path d="M196.771 6.40137L203.914 8.40386" stroke="#F5F6FF" stroke-miterlimit="10" stroke-linecap="round" stroke-linejoin="round"/>
<path d="M35.1643 91.2126H55.6431V129.062H35.1643V91.2126Z" stroke="#4B4B4B" stroke-miterlimit="10" stroke-linecap="round" stroke-linejoin="round"/>
<path d="M39.7884 90.1203C39.7884 89.7027 40.126 89.3654 40.5439 89.3654H50.2689C50.6869 89.3654 51.0244 89.7027 51.0244 90.1203V92.3102C51.0244 92.7279 50.6869 93.0652 50.2689 93.0652H40.5439C40.126 93.0652 39.7884 92.7279 39.7884 92.3102V90.1203Z" fill="#4B4B4B"/>
<path d="M12.5369 128.135C12.5369 122.546 17.0752 118.011 22.6691 118.011H64.3876C69.9815 118.011 74.5199 122.546 74.5199 128.135V202.319C74.5199 207.908 69.9869 212.443 64.3876 212.443H22.6691C17.0752 212.443 12.5369 207.908 12.5369 202.319V128.135Z" fill="#EEC765"/>
<path d="M14.723 124.275H57.331C61.1138 124.275 64.184 127.343 64.184 131.123V205.585" stroke="#F5F6FF" stroke-miterlimit="10" stroke-linecap="round" stroke-linejoin="round"/>
<path d="M68.7974 156.352V158.376H72.8803C73.2232 158.376 73.5125 158.665 73.5125 159.008V171.441C73.5125 171.783 73.2232 172.072 72.8803 172.072H68.7974V174.096H72.8803C74.343 174.096 75.5379 172.902 75.5379 171.441V159.008C75.5379 157.546 74.343 156.352 72.8803 156.352H68.7974Z" fill="#4B4B4B"/>
<path d="M26.9396 142.865L43.5337 146.95L40.8975 157.637L24.3033 153.552L26.9396 142.865Z" fill="#2F419E"/>
<path d="M26.1358 146.12L42.73 150.206L40.8975 157.632L24.3033 153.547L26.1358 146.12Z" fill="#9291F1"/>
<path d="M21.4795 144.552C20.8205 140.804 23.3227 137.232 27.0734 136.568C30.8241 135.91 34.398 138.41 35.0624 142.158C35.7215 145.906 33.2192 149.477 29.4685 150.141C25.7178 150.8 22.1386 148.3 21.4795 144.552Z" fill="#F5F6FF"/>
<path d="M23.3978 144.214C22.9263 141.521 24.7213 138.956 27.4164 138.485C30.1062 138.014 32.6781 139.808 33.1496 142.501C33.6212 145.194 31.8262 147.759 29.131 148.23C26.4359 148.701 23.8693 146.907 23.3978 144.214Z" fill="#FE5A42"/>
<path d="M29.5007 140.916C28.6006 141.103 28.1505 142.929 28.1505 142.929C28.1505 142.929 27.2128 141.152 26.184 141.543C26.0447 141.596 25.8733 141.687 25.7768 141.88C24.8016 143.738 28.7077 146.083 28.7077 146.083C28.7077 146.083 31.6976 142.196 30.0633 141.018C29.8651 140.879 29.6507 140.884 29.5007 140.916Z" fill="#F5F6FF"/>
<path d="M10.7097 134.384C10.7097 134.384 -5.0593 154.907 3.59411 149.006C12.2475 143.106 38.2613 119.076 45.318 110.777C52.38 102.478 31.8315 115.805 31.8315 115.805C31.8315 115.805 20.7027 108.464 12.5904 115.671C4.67109 122.706 10.7097 134.384 10.7097 134.384Z" fill="#2F419E"/>
<path d="M45.318 110.777C38.2613 119.076 12.2475 143.106 3.59411 149.006C-5.0593 154.907 10.7097 134.384 10.7097 134.384L10.7044 134.373C10.624 134.213 9.7774 132.521 9.16122 130.106C8.1271 126.063 7.73059 119.992 12.5958 115.665C17.6753 111.152 23.939 112.346 27.9094 113.866C30.2777 114.777 31.8315 115.799 31.8315 115.799C31.8315 115.799 52.38 102.473 45.318 110.777Z" fill="#2F419E"/>
<path d="M23.9921 221.323C26.0864 220.456 27.0809 218.057 26.2134 215.964C25.3459 213.872 22.9449 212.878 20.8507 213.745C18.7564 214.612 17.7619 217.011 18.6294 219.104C19.4969 221.196 21.8979 222.19 23.9921 221.323Z" fill="#4B4B4B"/>
<path d="M63.7367 218.471C64.2558 216.266 62.8879 214.058 60.6815 213.539C58.475 213.021 56.2655 214.388 55.7464 216.592C55.2273 218.797 56.5952 221.005 58.8017 221.524C61.0082 222.043 63.2177 220.676 63.7367 218.471Z" fill="#4B4B4B"/>
<path d="M72.9017 218.842C75.1685 218.842 77.006 217.006 77.006 214.74C77.006 212.475 75.1685 210.639 72.9017 210.639C70.6349 210.639 68.7974 212.475 68.7974 214.74C68.7974 217.006 70.6349 218.842 72.9017 218.842Z" fill="#4B4B4B"/>
<path d="M22.4173 167.864V205.585" stroke="#F5F6FF" stroke-miterlimit="10" stroke-linecap="round" stroke-linejoin="round"/>
<path d="M29.3185 167.864V205.585" stroke="#F5F6FF" stroke-miterlimit="10" stroke-linecap="round" stroke-linejoin="round"/>
<path d="M36.2252 167.864V205.585" stroke="#F5F6FF" stroke-miterlimit="10" stroke-linecap="round" stroke-linejoin="round"/>
<path d="M43.1265 167.864V205.585" stroke="#F5F6FF" stroke-miterlimit="10" stroke-linecap="round" stroke-linejoin="round"/>
<path d="M50.0278 167.864V205.585" stroke="#F5F6FF" stroke-miterlimit="10" stroke-linecap="round" stroke-linejoin="round"/>
<path d="M56.9344 167.864V205.585" stroke="#F5F6FF" stroke-miterlimit="10" stroke-linecap="round" stroke-linejoin="round"/>
<path d="M9.16125 130.106L27.9094 113.866C30.2777 114.777 31.8316 115.799 31.8316 115.799L10.7098 134.384" fill="#EEC765"/>
<path d="M31.8316 115.799L10.7098 134.384L10.7044 134.373L9.16125 130.106L27.9094 113.866C30.2777 114.777 31.8316 115.799 31.8316 115.799Z" stroke="#4B4B4B" stroke-miterlimit="10" stroke-linecap="round" stroke-linejoin="round"/>
<path d="M20.0061 135.374C13.3084 141.377 7.06083 146.645 3.59411 149.006C-5.0593 154.907 10.7097 134.384 10.7097 134.384L10.7044 134.373C10.624 134.213 9.77741 132.521 9.16122 130.106C8.1271 126.063 7.73059 119.992 12.5958 115.665C15.382 113.186 18.5273 112.431 21.4528 112.501" stroke="#4B4B4B" stroke-miterlimit="10" stroke-linecap="round" stroke-linejoin="round"/>
</svg>
