<svg width="251" height="240" viewBox="0 0 251 240" fill="none" xmlns="http://www.w3.org/2000/svg">
<path d="M1.83429 223.1C1.83429 217.958 42.9447 213.786 93.6525 213.786C144.36 213.786 185.471 217.958 185.471 223.1C185.471 228.241 144.36 232.413 93.6525 232.413C42.9393 232.413 1.83429 228.246 1.83429 223.1Z" fill="#EEC765"/>
<path d="M149.17 231.384C149.17 226.629 171.964 222.767 200.085 222.767C228.201 222.767 251 226.623 251 231.384C251 236.144 228.206 240 200.085 240C171.964 239.994 149.17 236.138 149.17 231.384Z" fill="#EEC765"/>
<path d="M66.9435 205.022H195.439" stroke="#4B4B4B" stroke-miterlimit="10" stroke-linecap="round" stroke-linejoin="round"/>
<path d="M1 205.022H20.8709" stroke="#4B4B4B" stroke-miterlimit="10" stroke-linecap="round" stroke-linejoin="round"/>
<path d="M39.0513 205.022H48.3706" stroke="#4B4B4B" stroke-miterlimit="10" stroke-linecap="round" stroke-linejoin="round"/>
<path d="M240.797 205.022H246.059" stroke="#4B4B4B" stroke-miterlimit="10" stroke-linecap="round" stroke-linejoin="round"/>
<path d="M120.531 9.36255L120.525 11.0019" stroke="#FE5A42" stroke-miterlimit="10" stroke-linecap="round" stroke-linejoin="round"/>
<path d="M120.514 12.8483L120.509 14.4877" stroke="#FE5A42" stroke-miterlimit="10" stroke-linecap="round" stroke-linejoin="round"/>
<path d="M123.083 11.9388L121.441 11.9279" stroke="#FE5A42" stroke-miterlimit="10" stroke-linecap="round" stroke-linejoin="round"/>
<path d="M119.593 11.9224L117.951 11.9115" stroke="#FE5A42" stroke-miterlimit="10" stroke-linecap="round" stroke-linejoin="round"/>
<path d="M18.5152 35.0808L18.5043 36.7202" stroke="#FE5A42" stroke-miterlimit="10" stroke-linecap="round" stroke-linejoin="round"/>
<path d="M18.4988 38.5665L18.4879 40.2059" stroke="#FE5A42" stroke-miterlimit="10" stroke-linecap="round" stroke-linejoin="round"/>
<path d="M21.0672 37.657L19.4258 37.6461" stroke="#FE5A42" stroke-miterlimit="10" stroke-linecap="round" stroke-linejoin="round"/>
<path d="M17.5772 37.6407L15.9359 37.6298" stroke="#FE5A42" stroke-miterlimit="10" stroke-linecap="round" stroke-linejoin="round"/>
<path d="M237.226 72.6345L237.215 74.2739" stroke="#FE5A42" stroke-miterlimit="10" stroke-linecap="round" stroke-linejoin="round"/>
<path d="M237.209 76.1202L237.204 77.7596" stroke="#FE5A42" stroke-miterlimit="10" stroke-linecap="round" stroke-linejoin="round"/>
<path d="M239.777 75.2105L238.136 75.2051" stroke="#FE5A42" stroke-miterlimit="10" stroke-linecap="round" stroke-linejoin="round"/>
<path d="M236.288 75.1944L234.646 75.189" stroke="#FE5A42" stroke-miterlimit="10" stroke-linecap="round" stroke-linejoin="round"/>
<path d="M135.019 188.1C133.601 188.1 132.445 189.386 132.445 190.96C132.445 191.738 132.724 192.436 133.176 192.953C132.173 193.65 131.475 194.827 131.475 196.237C131.475 198.41 133.062 200.186 135.019 200.186C136.977 200.186 138.564 198.41 138.564 196.237C138.564 194.821 137.849 193.645 136.841 192.953C137.299 192.441 137.571 191.738 137.571 190.96C137.571 189.386 136.437 188.1 135.019 188.1Z" fill="#EEC765"/>
<path d="M135.019 195.121V204.614" stroke="#4B4B4B" stroke-miterlimit="10" stroke-linecap="round" stroke-linejoin="round"/>
<path d="M120.52 193.688C120.52 189.881 122.532 186.793 125.008 186.793C127.489 186.793 129.495 189.881 129.495 193.688C129.495 197.495 127.483 200.584 125.008 200.584C122.526 200.584 120.52 197.495 120.52 193.688Z" fill="#2F419E"/>
<path d="M125.117 190.655V205.023" stroke="#4B4B4B" stroke-miterlimit="10" stroke-linecap="round" stroke-linejoin="round"/>
<path d="M127.647 191.668L125.122 193.797" stroke="#4B4B4B" stroke-miterlimit="10" stroke-linecap="round" stroke-linejoin="round"/>
<path d="M122.434 195.9L125.008 198.214" stroke="#4B4B4B" stroke-miterlimit="10" stroke-linecap="round" stroke-linejoin="round"/>
<path d="M18.5806 173.978H16.6666V178.362H18.5806V173.978Z" fill="#EEC765"/>
<path d="M18.4988 184.996H16.5848V189.38H18.4988V184.996Z" fill="#EEC765"/>
<path d="M18.4988 196.02H16.5848V200.404H18.4988V196.02Z" fill="#EEC765"/>
<path d="M18.6188 140.912H16.7048V145.296H18.6188V140.912Z" fill="#EEC765"/>
<path d="M18.5424 151.936H16.6284V156.32H18.5424V151.936Z" fill="#EEC765"/>
<path d="M18.5424 162.954H16.6284V167.338H18.5424V162.954Z" fill="#EEC765"/>
<path d="M8.84145 173.978H6.92743V178.362H8.84145V173.978Z" fill="#EEC765"/>
<path d="M8.84145 184.996H6.92743V189.38H8.84145V184.996Z" fill="#EEC765"/>
<path d="M8.84145 196.02H6.92743V200.404H8.84145V196.02Z" fill="#EEC765"/>
<path d="M229.09 130.961H231.124V135.117H229.09V130.961Z" stroke="#4B4B4B" stroke-miterlimit="10" stroke-linecap="round" stroke-linejoin="round"/>
<path d="M229.09 142.165H231.124V146.326H229.09V142.165Z" stroke="#4B4B4B" stroke-miterlimit="10" stroke-linecap="round" stroke-linejoin="round"/>
<path d="M229.09 153.368H231.124V157.529H229.09V153.368Z" stroke="#4B4B4B" stroke-miterlimit="10" stroke-linecap="round" stroke-linejoin="round"/>
<path d="M229.09 164.566H231.124V168.727H229.09V164.566Z" stroke="#4B4B4B" stroke-miterlimit="10" stroke-linecap="round" stroke-linejoin="round"/>
<path d="M229.09 175.77H231.124V179.931H229.09V175.77Z" stroke="#4B4B4B" stroke-miterlimit="10" stroke-linecap="round" stroke-linejoin="round"/>
<path d="M236.195 146.979H238.229V151.14H236.195V146.979Z" stroke="#4B4B4B" stroke-miterlimit="10" stroke-linecap="round" stroke-linejoin="round"/>
<path d="M221.783 146.979H223.817V151.14H221.783V146.979Z" stroke="#4B4B4B" stroke-miterlimit="10" stroke-linecap="round" stroke-linejoin="round"/>
<path d="M221.783 135.819H223.817V139.98H221.783V135.819Z" stroke="#4B4B4B" stroke-miterlimit="10" stroke-linecap="round" stroke-linejoin="round"/>
<path d="M236.195 158.183H238.229V162.344H236.195V158.183Z" stroke="#4B4B4B" stroke-miterlimit="10" stroke-linecap="round" stroke-linejoin="round"/>
<path d="M221.783 158.183H223.817V162.344H221.783V158.183Z" stroke="#4B4B4B" stroke-miterlimit="10" stroke-linecap="round" stroke-linejoin="round"/>
<path d="M236.195 169.386H238.229V173.547H236.195V169.386Z" stroke="#4B4B4B" stroke-miterlimit="10" stroke-linecap="round" stroke-linejoin="round"/>
<path d="M236.195 182.632H238.229V186.793H236.195V182.632Z" stroke="#4B4B4B" stroke-miterlimit="10" stroke-linecap="round" stroke-linejoin="round"/>
<path d="M191.175 198.28H194.506V205.023H191.175V198.28Z" stroke="#4B4B4B" stroke-miterlimit="10" stroke-linecap="round" stroke-linejoin="round"/>
<path d="M221.379 169.386H223.413V173.547H221.379V169.386Z" stroke="#4B4B4B" stroke-miterlimit="10" stroke-linecap="round" stroke-linejoin="round"/>
<path d="M243.426 205.023V139.354H236.037V124.545H222.595L218.342 124.463V176.913" stroke="#4B4B4B" stroke-miterlimit="10" stroke-linecap="round" stroke-linejoin="round"/>
<path d="M2.01965 205.023V169.795H11.1917V136.767H20.8654V205.023" stroke="#4B4B4B" stroke-miterlimit="10" stroke-linecap="round" stroke-linejoin="round"/>
<path d="M187.854 205.023V195.121H197.271V205.023" stroke="#4B4B4B" stroke-miterlimit="10" stroke-linecap="round" stroke-linejoin="round"/>
<path d="M151.095 20.2229C151.095 20.2229 154.307 19.5094 155.517 20.4952C156.728 21.4756 157.606 24.7816 157.606 24.7816C157.606 24.7816 159.154 21.1869 161.003 20.2447C163.364 19.0355 166.145 20.0105 166.145 20.0105" stroke="#2F419E" stroke-miterlimit="10" stroke-linecap="round" stroke-linejoin="round"/>
<path d="M163.042 25.0592C163.042 25.0592 165.147 24.2804 166.243 24.7107C167.334 25.1409 168.714 27.3141 168.714 27.3141C168.714 27.3141 169.014 24.3839 170.12 23.2891C171.544 21.8894 173.758 21.9602 173.758 21.9602" stroke="#2F419E" stroke-miterlimit="10" stroke-linecap="round" stroke-linejoin="round"/>
<path d="M64.5225 9.85272C64.5225 4.41166 68.9394 0 74.387 0C79.8346 0 84.2516 4.41166 84.2516 9.85272C84.2516 15.2938 79.8346 19.7054 74.387 19.7054C68.9394 19.7054 64.5225 15.2938 64.5225 9.85272Z" fill="#EEC765"/>
<path d="M70.1227 25.1029C73.3454 25.1029 75.6957 24.4003 77.1516 23.3001C78.9402 21.9439 79.4801 19.6564 78.3677 17.9898C75.6139 13.8613 69.3647 18.0333 69.3647 18.0333C69.3647 18.0333 68.7921 10.9256 63.5136 10.784C56.6373 10.5934 56.7845 17.712 56.7845 17.712C56.7845 17.712 53.2401 13.5672 48.9376 15.9582C45.1423 18.0714 45.3931 24.9667 51.3806 25.0375C62.0467 25.1628 61.5123 25.1029 70.1227 25.1029Z" stroke="#2F419E" stroke-miterlimit="10" stroke-linecap="round" stroke-linejoin="round"/>
<path d="M226.805 31.3611H215.332C212.18 31.3611 209.628 28.6651 209.628 25.3427V17.9464C209.628 14.624 212.18 11.928 215.332 11.928H233.67C236.822 11.928 239.374 14.624 239.374 17.9464V25.3482C239.374 28.6705 236.588 31.3665 233.436 31.3665" stroke="#2F419E" stroke-miterlimit="10" stroke-linecap="round" stroke-linejoin="round"/>
<path d="M226.87 31.4754C226.87 31.4754 227.241 33.2237 225.322 35.1191C223.397 37.0145 220.523 37.6463 220.523 37.6463C220.523 37.6463 226.707 37.5864 228.855 36.7585C233.463 34.9775 233.441 31.3665 233.441 31.3665" stroke="#2F419E" stroke-miterlimit="10" stroke-linecap="round" stroke-linejoin="round"/>
<path d="M215.872 21.8403C215.872 20.9362 216.608 20.2009 217.513 20.2009C218.418 20.2009 219.154 20.9362 219.154 21.8403C219.154 22.7444 218.418 23.4797 217.513 23.4797C216.608 23.4743 215.872 22.7444 215.872 21.8403Z" fill="#2F419E"/>
<path d="M222.862 21.8403C222.862 20.9362 223.599 20.2009 224.504 20.2009C225.409 20.2009 226.145 20.9362 226.145 21.8403C226.145 22.7444 225.409 23.4797 224.504 23.4797C223.599 23.4797 222.862 22.7444 222.862 21.8403Z" fill="#2F419E"/>
<path d="M229.848 21.8403C229.848 20.9362 230.584 20.2009 231.489 20.2009C232.394 20.2009 233.13 20.9362 233.13 21.8403C233.13 22.7444 232.394 23.4797 231.489 23.4797C230.584 23.4743 229.848 22.7444 229.848 21.8403Z" fill="#2F419E"/>
<path d="M43.8281 46.6929L85.6093 56.9105L128.955 40.7181L172.007 56.9105L207.736 40.1407V183.351L172.007 200.409L128.955 181.81L85.6093 200.409L43.8281 192.795V46.6929Z" fill="#2F419E"/>
<path opacity="0.2965" d="M85.4839 56.8997L43.8282 46.5731L41.4888 191.82L84.8841 200.404L85.4839 56.8997Z" fill="#F5F6FF"/>
<path opacity="0.2965" d="M172.274 57.9728L128.972 40.2063L128.661 181.646L171.98 200.404L172.274 57.9728Z" fill="#F5F6FF"/>
<path d="M133.798 148.275L151.978 163.645L169.324 152.3L146.629 131.217L133.798 148.275Z" fill="#F5F6FF"/>
<path d="M53.9326 115.531L49.0358 123.766L48.376 156.309L55.6558 158.008L70.4826 121.021L53.9326 115.531Z" fill="#F5F6FF"/>
<path d="M122.903 157.415L110.841 158.793C110.753 162.415 110.143 181.532 110.088 183.52L122.908 178.122V157.415H122.903ZM107.438 159.185L89.252 161.26V192.305L106.653 184.98C106.713 182.507 107.345 162.692 107.438 159.185Z" fill="#F5F6FF"/>
<path d="M105.442 74.225L99.6728 79.824L104.172 92.4653L114.238 86.6648L105.442 74.225Z" fill="#F5F6FF"/>
<path d="M115.318 88.8979L106.227 96.2289L111.702 113.985L126.169 107.133L115.318 88.8979Z" fill="#F5F6FF"/>
<path d="M50.0173 56.8997L64.2225 61.2078L56.3101 80.4394L48.3978 80.739L50.0173 56.8997Z" fill="#F5F6FF"/>
<path d="M148.745 71.9648L131.191 88.9034L131.268 106.272L146.771 109.698L163.004 80.75L148.745 71.9648Z" fill="#F5F6FF"/>
<path d="M72.597 53.5273L42.4504 122.049L44.4473 122.925L74.5939 54.4037L72.597 53.5273Z" fill="#F5F6FF"/>
<path d="M85.6257 89.9872C85.4621 89.9872 85.2985 89.9491 85.1458 89.8782L62.7175 78.9035L63.6772 76.9483L85.3258 87.5417L122.052 42.1724L123.748 43.5394L86.4709 89.5841C86.2582 89.8456 85.9474 89.9872 85.6257 89.9872Z" fill="#F5F6FF"/>
<path d="M85.6257 122.742C85.4894 122.742 85.3531 122.715 85.2222 122.666L49.8483 108.696L50.6499 106.67L85.5657 120.46L106.238 109.834L107.236 111.773L86.1219 122.628C85.9692 122.699 85.7948 122.742 85.6257 122.742Z" fill="#F5F6FF"/>
<path d="M110.175 120.313C110.039 120.313 109.908 120.291 109.777 120.237C109.488 120.123 109.259 119.894 109.15 119.6L93.6471 77.9449L95.692 77.1879L110.77 117.693L127.112 109.366C127.325 109.257 127.565 109.224 127.799 109.262L171.337 117.111L206.509 94.6058L207.686 96.4412L172.154 119.175C171.925 119.322 171.642 119.382 171.375 119.327L127.783 111.468L110.677 120.183C110.513 120.27 110.344 120.313 110.175 120.313Z" fill="#F5F6FF"/>
<path d="M43.91 175.982L42.983 174.01L85.0968 154.25C85.2168 154.196 85.3476 154.158 85.4839 154.152L127.451 151.222L127.603 153.395L85.8438 156.309L43.91 175.982Z" fill="#F5F6FF"/>
<path d="M128.612 182.632H126.431V152.573L109.205 119.725L111.135 118.712L128.487 151.794C128.568 151.952 128.612 152.121 128.612 152.3V182.632Z" fill="#F5F6FF"/>
<path d="M128.162 151.431L126.872 153.188L151.325 171.091L152.614 169.334L128.162 151.431Z" fill="#F5F6FF"/>
<path d="M131.758 183.563L130.624 181.701L171.456 156.848C171.598 156.761 171.762 156.707 171.925 156.696L207.343 153.515L207.539 155.683L172.373 158.836L131.758 183.563Z" fill="#F5F6FF"/>
<path d="M179.26 156.959L177.372 158.05L195.372 189.115L197.26 188.024L179.26 156.959Z" fill="#F5F6FF"/>
<path d="M172.754 83.8326C172.547 83.8326 172.334 83.7727 172.149 83.6474L142.081 63.6206L143.292 61.807L172.465 81.2346L198.035 43.8771L199.834 45.108L173.659 83.3587C173.441 83.6637 173.098 83.8326 172.754 83.8326Z" fill="#F5F6FF"/>
<path d="M128.225 75.3143C128.132 75.3143 128.039 75.3035 127.947 75.2762L103.266 68.7513L103.823 66.6435L127.958 73.0214L154.748 50.3694L156.155 52.0306L128.928 75.0475C128.732 75.2272 128.481 75.3143 128.225 75.3143Z" fill="#F5F6FF"/>
<path d="M198.07 100.221L174.905 156.996L176.925 157.819L200.09 101.043L198.07 100.221Z" fill="#F5F6FF"/>
<path d="M168.402 80.1716L147.823 113.417L149.678 114.562L170.257 81.3173L168.402 80.1716Z" fill="#F5F6FF"/>
<path d="M74.9907 117.607L55.6014 168.053L57.6378 168.834L77.0271 118.387L74.9907 117.607Z" fill="#F5F6FF"/>
<path d="M85.6093 201.493C85.5439 201.493 85.4785 201.488 85.413 201.477L43.6318 193.863C43.1138 193.77 42.7375 193.318 42.7375 192.79V46.6929C42.7375 46.3607 42.8902 46.0448 43.1574 45.8378C43.4192 45.6308 43.7682 45.56 44.0899 45.6363L85.5439 55.7722L128.574 39.6996C128.819 39.607 129.092 39.607 129.343 39.6996L171.964 55.7287L207.277 39.155C207.616 38.997 208.008 39.0242 208.324 39.2203C208.641 39.4218 208.832 39.765 208.832 40.1408V183.351C208.832 183.77 208.592 184.152 208.21 184.331L172.482 201.39C172.198 201.526 171.871 201.531 171.576 201.406L128.956 182.992L86.0401 201.406C85.9038 201.466 85.7566 201.493 85.6093 201.493ZM44.9188 191.886L85.4839 199.277L128.525 180.808C128.803 180.688 129.114 180.688 129.386 180.808L171.985 199.211L206.645 182.665V41.8564L172.471 57.8964C172.204 58.0216 171.898 58.0325 171.62 57.929L128.95 41.8837L85.9856 57.929C85.7784 58.0053 85.5548 58.0162 85.3421 57.9672L44.9188 48.0818V191.886Z" fill="#4B4B4B"/>
<path d="M93.6417 135.536C91.4386 135.596 89.2247 136.8 88.9739 138.951C88.434 143.613 92.5838 152.361 93.3581 152.306C94.3342 152.235 98.7185 143.608 98.2713 139.038C98.0314 136.566 95.8447 135.476 93.6417 135.536ZM93.6253 138.276C94.6996 138.276 95.572 139.136 95.572 140.198C95.572 141.261 94.6996 142.121 93.6253 142.121C92.5511 142.121 91.6786 141.261 91.6786 140.198C91.6731 139.136 92.5456 138.276 93.6253 138.276Z" fill="#FE5A42"/>
<path d="M93.6144 154.604L127.281 152.246L110.17 119.224L127.521 110.357L148.745 113.995L166.036 85.8805" stroke="#FE5A42" stroke-miterlimit="10" stroke-linecap="round" stroke-linejoin="round" stroke-dasharray="6 8"/>
<path d="M22.8613 209.549L23.6465 197.871L37.7262 197.822L36.9137 209.549H22.8613Z" fill="#EEC765"/>
<path d="M64.2989 208.443L63.5136 197.871L49.4339 197.828L50.2464 208.443H64.2989Z" fill="#EEC765"/>
<path d="M23.3847 200.404H37.7971" stroke="#2F419E" stroke-miterlimit="10" stroke-linecap="round" stroke-linejoin="round"/>
<path d="M49.4339 200.404H63.4809" stroke="#2F419E" stroke-miterlimit="10" stroke-linecap="round" stroke-linejoin="round"/>
<path d="M38.2987 59.9933C38.6423 56.1372 41.696 55.1187 43.2992 55.2657C46.342 55.538 48.5068 56.8234 48.2724 58.0761C47.9942 59.5576 46.8927 59.0075 44.7115 58.8876C44.0081 58.8495 42.5521 58.6534 42.5521 58.6534C42.5521 58.6534 49.363 59.9116 48.7195 62.0902C48.4196 63.0923 47.9997 63.1468 45.8076 62.8146C43.7082 62.4932 42.5249 62.3625 42.5249 62.3625C42.5249 62.3625 48.2124 63.1958 48.2996 65.2437C48.3705 66.9702 43.261 65.7284 43.261 65.7284L43.3046 69.5846C43.3046 69.59 37.688 66.845 38.2987 59.9933Z" fill="#F5F6FF"/>
<path d="M38.157 105.433C38.157 105.433 37.9062 96.3159 45.9931 94.731C49.2594 94.0883 49.8156 96.3377 49.8156 96.3377C49.8156 96.3377 48.5178 96.2451 46.8601 96.61C45.2024 96.9695 43.332 98.4509 43.332 98.4509C43.332 98.4509 45.9276 96.7353 46.9637 96.5719C48.0052 96.4085 50.7972 95.7712 51.0698 97.3562C51.2607 98.4455 49.0795 98.4564 47.9562 98.9956C46.8274 99.5348 45.2078 100.586 45.2078 100.586C45.2078 100.586 46.3911 100.139 48.4633 99.5021C50.4427 98.8921 51.3425 99.6383 51.3807 100.417C51.4243 101.185 46.4075 103.091 46.4075 103.091C46.4075 103.091 46.2875 108.037 42.225 108.848" fill="#F5F6FF"/>
<path d="M38.2987 59.9933C38.6423 56.1372 41.696 55.1187 43.2992 55.2657C46.342 55.538 48.5068 56.8234 48.2724 58.0761C47.9942 59.5576 46.8927 59.0075 44.7115 58.8876C44.0081 58.8495 42.5521 58.6534 42.5521 58.6534C42.5521 58.6534 49.363 59.9116 48.7195 62.0902C48.4196 63.0923 47.9997 63.1468 45.8076 62.8146C43.7082 62.4932 42.5249 62.3625 42.5249 62.3625C42.5249 62.3625 48.2124 63.1958 48.2996 65.2437C48.3705 66.9702 43.261 65.7284 43.261 65.7284L43.3046 69.5846C43.3046 69.59 37.688 66.845 38.2987 59.9933Z" stroke="#4B4B4B" stroke-miterlimit="10" stroke-linecap="round" stroke-linejoin="round"/>
<path d="M41.0253 163.602L36.3902 216.564C36.3902 216.564 11.9497 224.527 7.8763 222.157C6.14224 221.15 9.70307 218.334 13.9728 215.159C17.8226 212.294 22.8231 209.652 22.8231 209.652L26.084 163.602" stroke="#4B4B4B" stroke-miterlimit="10" stroke-linecap="round" stroke-linejoin="round"/>
<path d="M21.9888 215.115L17.381 211.357" stroke="#2F419E" stroke-miterlimit="10" stroke-linecap="round" stroke-linejoin="round"/>
<path d="M19.6821 216.074L15.0743 212.31" stroke="#2F419E" stroke-miterlimit="10" stroke-linecap="round" stroke-linejoin="round"/>
<path d="M36.3848 216.509L36.2593 219.347C36.2593 219.347 30.1629 222.141 22.6104 223.432C15.0634 224.728 7.65817 224.527 7.65817 224.527L7.42914 221.624" stroke="#4B4B4B" stroke-miterlimit="10" stroke-linecap="round" stroke-linejoin="round"/>
<path d="M22.8613 209.478H36.8319" stroke="#4B4B4B" stroke-miterlimit="10" stroke-linecap="round" stroke-linejoin="round"/>
<path d="M48.7632 194.386L50.879 215.257C50.879 215.257 55.1541 216.509 60.5472 217.343C67.9088 218.486 77.2062 219.227 79.1421 218.426C81.0015 217.659 79.1421 214.761 73.869 212.305C68.3014 209.712 64.4516 208.34 64.4516 208.34L63.2028 196.297" stroke="#4B4B4B" stroke-miterlimit="10" stroke-linecap="round" stroke-linejoin="round"/>
<path d="M65.335 212.757L69.9428 208.993" stroke="#2F419E" stroke-miterlimit="10" stroke-linecap="round" stroke-linejoin="round"/>
<path d="M67.6416 213.715L72.2494 209.957" stroke="#2F419E" stroke-miterlimit="10" stroke-linecap="round" stroke-linejoin="round"/>
<path d="M50.8844 215.208L51.0098 218.045C51.0098 218.045 56.3047 219.576 64.5552 220.529C72.1622 221.406 79.5674 220.529 79.5674 220.529L79.7855 217.348" stroke="#4B4B4B" stroke-miterlimit="10" stroke-linecap="round" stroke-linejoin="round"/>
<path d="M64.9641 208.443H50.3282" stroke="#4B4B4B" stroke-miterlimit="10" stroke-linecap="round" stroke-linejoin="round"/>
<path d="M25.2552 126.942L16.8902 167.104H42.6285V117.868L25.2552 126.942Z" fill="#2F419E"/>
<path d="M21.4434 141.609L28.805 141.979L26.1494 156.62L17.9698 156.211L21.4434 141.609Z" fill="#4D55B1" stroke="#4B4B4B" stroke-miterlimit="10" stroke-linecap="round" stroke-linejoin="round"/>
<path d="M19.8129 148.177L25.266 148.537L28.2924 142.061" stroke="#4B4B4B" stroke-miterlimit="10" stroke-linecap="round" stroke-linejoin="round"/>
<path d="M42.7539 87.9447C42.7539 87.9447 39.7711 87.4654 36.761 87.4817C33.7509 87.4981 29.7484 88.6527 29.7484 88.6527C29.7484 88.6527 16.4321 84.7095 14.1091 87.9447C11.7861 91.1799 11.3608 95.1994 13.073 97.3998C14.7853 99.6002 19.6821 96.6319 19.6821 96.6319C19.6821 96.6319 12.026 102.901 11.2953 111.697C10.3683 122.9 16.0122 132.453 26.4057 131.054C36.7992 129.654 43.9427 120.814 45.8676 114.807C47.5635 109.502 45.4423 106.888 42.8357 105.139C41.287 104.099 38.2497 103.854 38.2497 103.854C38.2497 103.854 38.2497 102.187 39.0458 100.635C40.1037 98.5708 42.7921 95.8585 42.7921 95.8585L42.7539 87.9447Z" fill="#EEC765"/>
<path d="M26.542 102.193L25.4568 113.113" stroke="#F5F6FF" stroke-miterlimit="10" stroke-linecap="round" stroke-linejoin="round"/>
<path d="M23.6246 114.807C23.6246 114.807 29.7866 108.271 34.0018 105.504C39.0567 102.193 42.6285 104.894 42.6285 104.894" stroke="#F5F6FF" stroke-miterlimit="10" stroke-linecap="round" stroke-linejoin="round"/>
<path d="M17.25 88.0045C17.25 88.0045 15.1343 89.2953 15.6469 90.2049C16.8901 92.4107 27.4363 89.6602 27.4363 89.6602" stroke="#F5F6FF" stroke-miterlimit="10" stroke-linecap="round" stroke-linejoin="round"/>
<path d="M32.0333 91.3161C32.0333 90.7115 32.524 90.2213 33.1293 90.2213C33.7346 90.2213 34.2254 90.7115 34.2254 91.3161C34.2254 91.9206 33.7346 92.4108 33.1293 92.4108C32.524 92.4054 32.0333 91.9152 32.0333 91.3161Z" fill="#F5F6FF"/>
<path d="M36.0685 90.2213C36.0685 89.6167 36.5593 89.132 37.1645 89.132C37.7698 89.132 38.2606 89.6221 38.2606 90.2213C38.2606 90.8258 37.7698 91.316 37.1645 91.316C36.5593 91.316 36.0685 90.8258 36.0685 90.2213Z" fill="#F5F6FF"/>
<path d="M38.157 105.433C38.157 105.433 37.9062 96.3159 45.9931 94.731C49.2594 94.0883 49.8156 96.3377 49.8156 96.3377C49.8156 96.3377 48.5178 96.2451 46.8601 96.61C45.2024 96.9695 43.332 98.4509 43.332 98.4509C43.332 98.4509 45.9276 96.7353 46.9637 96.5719C48.0052 96.4085 50.7972 95.7712 51.0698 97.3562C51.2607 98.4455 49.0795 98.4564 47.9562 98.9956C46.8274 99.5348 45.2078 100.586 45.2078 100.586C45.2078 100.586 46.3911 100.139 48.4633 99.5021C50.4427 98.8921 51.3425 99.6383 51.3807 100.417C51.4243 101.185 46.4075 103.091 46.4075 103.091C46.4075 103.091 46.2875 108.037 42.225 108.848" stroke="#4B4B4B" stroke-miterlimit="10" stroke-linecap="round" stroke-linejoin="round"/>
<path d="M33.0475 91.4196C31.7006 92.7648 33.1511 95.085 32.7422 96.7353C32.3332 98.3693 29.6939 99.5022 30.321 101.392" stroke="#2F419E" stroke-miterlimit="10" stroke-linecap="round" stroke-linejoin="round"/>
<path d="M36.9573 90.145C38.9422 92.1275 35.2342 96.4357 35.8558 98.9302" stroke="#2F419E" stroke-miterlimit="10" stroke-linecap="round" stroke-linejoin="round"/>
<path d="M24.0827 76.0767C24.0827 72.2968 27.1528 69.2305 30.9372 69.2305C34.7216 69.2305 37.7916 72.2968 37.7916 76.0767C37.7916 79.8566 34.7216 82.923 30.9372 82.923C27.1528 82.923 24.0827 79.8566 24.0827 76.0767Z" fill="#F5F6FF"/>
<path d="M27.3927 72.7544C27.3927 72.7544 28.9959 74.2467 32.9548 73.4733C35.4577 72.9831 39.2476 69.9549 37.23 66.9212C36.1993 65.3744 32.6112 65.1293 29.8629 66.3929C27.1091 67.6565 25.2278 71.4091 25.2278 71.4091C25.2278 71.4091 21.5307 71.676 20.6527 75.7282C19.9602 78.9198 21.2689 81.3816 22.7303 81.7411C24.1917 82.0951 26.4657 79.9002 27.1582 77.629C27.8453 75.3306 27.3927 72.7544 27.3927 72.7544Z" fill="#4B4B4B"/>
<path d="M23.6246 68.5281L26.084 71.8395" stroke="#4B4B4B" stroke-miterlimit="10" stroke-linecap="round" stroke-linejoin="round"/>
<path d="M21.9888 70.0203L25.4514 71.4581" stroke="#4B4B4B" stroke-miterlimit="10" stroke-linecap="round" stroke-linejoin="round"/>
<path d="M31.5098 75.5266C31.1117 75.4993 30.7627 75.788 30.7354 76.1856C30.7082 76.5832 31.019 76.9372 31.4171 76.9699C31.8151 76.9971 32.1532 76.6921 32.175 76.2945C32.2023 75.8915 31.9078 75.5538 31.5098 75.5266Z" fill="#4B4B4B"/>
<path d="M35.4087 74.4755C35.0106 74.4483 34.6616 74.737 34.6344 75.1346C34.6071 75.5376 34.9179 75.8862 35.316 75.9189C35.7141 75.9461 36.0521 75.6411 36.074 75.2435C36.1067 74.8404 35.8122 74.5028 35.4087 74.4755Z" fill="#4B4B4B"/>
<path d="M36.6029 80.9786C38.3424 77.5146 36.9628 73.2718 33.522 71.5071C30.0811 69.737 25.8768 71.1095 24.1373 74.5735C22.3978 78.0375 23.7774 82.2803 27.2182 84.0504C30.6646 85.8151 34.8634 84.4425 36.6029 80.9786Z" stroke="#4B4B4B" stroke-miterlimit="10" stroke-linecap="round" stroke-linejoin="round"/>
<path d="M29.6012 78.2663C29.3667 77.9395 29.4431 77.482 29.7648 77.2478C30.092 77.0136 30.5446 77.0953 30.779 77.4221C31.0135 77.7489 30.9372 78.2064 30.6155 78.4406C30.2937 78.6748 29.8357 78.5986 29.6012 78.2663Z" fill="#2F419E"/>
<path d="M31.7278 78.8817C31.7278 78.8817 32.0605 79.4482 32.7148 79.666C33.4346 79.9057 33.9963 79.617 33.9963 79.617" stroke="#4B4B4B" stroke-miterlimit="10" stroke-linecap="round" stroke-linejoin="round"/>
<path d="M33.402 75.7664L34.9834 77.9722L33.6256 78.043" stroke="#4B4B4B" stroke-miterlimit="10" stroke-linecap="round" stroke-linejoin="round"/>
<path d="M156.013 69.394C153.74 69.4539 151.444 70.7175 151.188 72.9614C150.631 77.8361 154.917 86.9916 155.724 86.9317C156.733 86.8609 161.27 77.8361 160.807 73.054C160.55 70.4669 158.287 69.3341 156.013 69.394ZM155.992 72.2588C157.104 72.2588 158.004 73.1575 158.004 74.2686C158.004 75.3797 157.104 76.2784 155.992 76.2784C154.879 76.2784 153.98 75.3797 153.98 74.2686C153.98 73.1575 154.879 72.2588 155.992 72.2588Z" fill="#FE5A42"/>
<path d="M183.786 154.817L185.738 172.164L192.887 183.089L193.127 223.105H208.128L208.374 204.723L215.719 214.554L227.536 205.899L209.028 181.466L208.826 154.218L183.786 154.817Z" fill="#F5F6FF"/>
<path d="M193.17 211.76H208.123L208.025 222.811H193.17V211.76Z" fill="#EEC765"/>
<path d="M209.197 204.81L220.338 196.956L227.525 206.259L214.983 214.549L209.197 204.81Z" fill="#EEC765"/>
<path d="M193.171 184.184C193.171 184.184 186.976 175.922 186.054 172.382C184.876 167.861 183.786 154.212 183.786 154.212" stroke="#4B4B4B" stroke-miterlimit="10" stroke-linecap="round" stroke-linejoin="round"/>
<path d="M209.197 145.569C209.099 147.943 208.254 236.139 208.254 236.139C208.254 236.139 180.23 236.661 177.488 235.18C175.639 234.183 180.029 231.776 184.266 229.559C188.295 227.451 192.996 225.981 192.996 225.981L192.969 144.839" stroke="#4B4B4B" stroke-miterlimit="10" stroke-linecap="round" stroke-linejoin="round"/>
<path d="M191.851 229.962L187.259 225.632" stroke="#2F419E" stroke-miterlimit="10" stroke-linecap="round" stroke-linejoin="round"/>
<path d="M189.424 230.91L184.833 226.58" stroke="#2F419E" stroke-miterlimit="10" stroke-linecap="round" stroke-linejoin="round"/>
<path d="M208.821 222.811L193.17 222.724" stroke="#4B4B4B" stroke-miterlimit="10" stroke-linecap="round" stroke-linejoin="round"/>
<path d="M208.821 204.723C211.329 208.96 217.284 216.983 217.284 216.983C217.284 216.983 214.568 220.747 212.72 224.614C210.773 228.682 208.826 232.979 210.789 232.685C213.696 232.25 234.548 216.03 234.548 216.03L208.815 181.232" stroke="#4B4B4B" stroke-miterlimit="10" stroke-linecap="round" stroke-linejoin="round"/>
<path d="M218.669 220.633L212.752 219.957" stroke="#2F419E" stroke-miterlimit="10" stroke-linecap="round" stroke-linejoin="round"/>
<path d="M217.376 222.724L211.46 222.048" stroke="#2F419E" stroke-miterlimit="10" stroke-linecap="round" stroke-linejoin="round"/>
<path d="M227.606 205.899L215.435 214.238" stroke="#4B4B4B" stroke-miterlimit="10" stroke-linecap="round" stroke-linejoin="round"/>
<path d="M200.996 228.954C200.996 227.898 201.852 227.043 202.91 227.043C203.967 227.043 204.824 227.898 204.824 228.954C204.824 230.011 203.967 230.866 202.91 230.866C201.852 230.866 200.996 230.006 200.996 228.954Z" stroke="#4B4B4B" stroke-miterlimit="10" stroke-linecap="round" stroke-linejoin="round"/>
<path d="M223.8 213.666C223.8 212.609 224.656 211.754 225.714 211.754C226.772 211.754 227.628 212.609 227.628 213.666C227.628 214.723 226.772 215.578 225.714 215.578C224.656 215.578 223.8 214.723 223.8 213.666Z" stroke="#4B4B4B" stroke-miterlimit="10" stroke-linecap="round" stroke-linejoin="round"/>
<path d="M207.965 214.548H193.449" stroke="#F5F6FF" stroke-miterlimit="10" stroke-linecap="round" stroke-linejoin="round"/>
<path d="M222.246 200.208L211.46 207.746" stroke="#F5F6FF" stroke-miterlimit="10" stroke-linecap="round" stroke-linejoin="round"/>
<path d="M182.815 131.947L177.82 162.398L211.46 161.777V150.024C211.46 150.024 213.728 147.573 214.476 144.054C215.653 138.515 213.614 132.279 213.614 132.279L182.815 131.947Z" fill="#4B4B4B"/>
<path d="M175.541 109.693C175.541 95.3628 185.885 84.4045 199.572 84.4317C212.845 84.4589 223.604 95.3628 223.604 109.693C223.604 124.022 212.845 135.634 199.572 135.634C186.3 135.634 175.541 124.022 175.541 109.693Z" fill="#F5F6FF"/>
<path d="M194.637 87.084C194.637 86.5883 195.041 86.1853 195.537 86.1853C196.033 86.1853 196.437 86.5883 196.437 87.084C196.437 87.5796 196.033 87.9826 195.537 87.9826C195.041 87.9826 194.637 87.585 194.637 87.084Z" fill="#2F419E"/>
<path d="M194.103 90.0089C194.103 89.5133 194.506 89.1102 195.003 89.1102C195.499 89.1102 195.902 89.5133 195.902 90.0089C195.902 90.5045 195.499 90.9076 195.003 90.9076C194.506 90.9076 194.103 90.5045 194.103 90.0089Z" fill="#2F419E"/>
<path d="M200.641 83.7509C199.823 83.7509 196.731 94.8726 196.731 94.8726L190.362 99.4422C190.362 99.4422 192.478 89.1048 193.165 84.753C190.373 85.3739 187.619 86.1528 183.78 89.5895C179.941 93.0317 177.809 98.5054 177.809 98.5054C177.809 98.5054 172.842 91.2234 167.661 92.5034C162.481 93.7833 157.491 99.8725 157.284 104.486C157.093 108.761 164.204 122.672 173.381 127.307C173.251 127.715 167.438 146.402 171.533 149.73C175.541 152.987 179.772 150.394 179.772 150.394L181.528 140.64H186.774L188.47 127.094L191.96 126.065L190.7 140.64H218.658L216.826 129.48C220.174 126.549 227.781 117.704 226.876 106.621C225.714 92.2855 215.31 83.7509 200.641 83.7509Z" fill="#EEC765"/>
<path opacity="0.3023" d="M192.805 84.8564C191.993 85.0416 191.169 85.2867 190.324 85.5808C190.368 85.6516 190.34 85.7442 190.4 85.8096L192.516 88.1897C192.756 86.8989 192.931 86.12 193.089 85.1614L192.805 84.8564ZM213.363 86.4577L212.409 87.4272C211.94 87.9065 211.945 88.669 212.431 89.1428C212.91 89.6112 213.674 89.6058 214.148 89.1211L215.653 87.596C214.928 87.1658 214.143 86.8172 213.363 86.4577ZM187.805 86.7246C186.572 87.4054 185.274 88.2605 183.78 89.6003C183.175 90.145 182.679 90.7768 182.161 91.3922C182.221 91.5774 182.237 91.7789 182.39 91.926C182.87 92.3944 183.633 92.389 184.108 91.9042L187.734 88.206C188.132 87.7976 188.105 87.193 187.805 86.7246ZM206.819 87.0677C206.509 87.0459 206.198 87.1494 205.941 87.3727C205.434 87.8193 205.38 88.5819 205.827 89.0884L209.53 93.2985C209.977 93.805 210.762 93.8377 211.264 93.3911C211.771 92.9445 211.804 92.182 211.356 91.6755L207.654 87.4653C207.436 87.2148 207.13 87.0841 206.819 87.0677ZM202.283 89.4097C201.972 89.4152 201.661 89.5295 201.426 89.7692L197.8 93.4837C197.331 93.963 197.337 94.7255 197.822 95.1993C198.302 95.6677 199.087 95.6623 199.556 95.183L203.16 91.4848C203.629 91.0055 203.624 90.2212 203.139 89.7528C202.899 89.5186 202.593 89.4043 202.283 89.4097ZM219.923 90.9729C219.656 91.414 219.601 91.9532 219.961 92.3617L223.658 96.5719C223.817 96.7516 224.035 96.7952 224.247 96.8551C223.135 94.6057 221.641 92.6722 219.923 90.9729ZM169.804 92.4598C169.733 92.5088 169.641 92.4924 169.575 92.5578L165.954 96.256C165.485 96.7353 165.491 97.5196 165.976 97.988C166.462 98.4564 167.241 98.4509 167.71 97.9662L171.315 94.2517C171.68 93.8813 171.675 93.3639 171.467 92.9173C171.467 92.9173 171.451 92.9173 171.446 92.9173C170.911 92.694 170.36 92.5469 169.804 92.4598ZM216.411 92.6831C216.101 92.6885 215.79 92.8029 215.555 93.0425L211.929 96.757C211.46 97.2363 211.465 97.9988 211.951 98.4727C212.436 98.9465 213.216 98.9356 213.685 98.4509L217.289 94.7527C217.758 94.2734 217.753 93.4891 217.267 93.0207C217.033 92.792 216.728 92.6831 216.411 92.6831ZM189.582 94.0392C189.272 94.0175 188.955 94.1209 188.704 94.3442C188.197 94.7909 188.143 95.5534 188.59 96.0599L190.575 98.3256C190.635 98.0206 190.978 96.2342 191.164 95.2974L190.422 94.4586C190.199 94.2026 189.893 94.0556 189.582 94.0392ZM179.663 94.8562C179.222 95.6078 179.145 95.7876 178.862 96.3594C179.053 96.3159 179.26 96.305 179.412 96.1688C179.805 95.8257 179.832 95.3137 179.663 94.8562ZM185.024 96.3812C184.713 96.3867 184.402 96.5228 184.168 96.7625L180.563 100.455C180.094 100.935 180.1 101.697 180.585 102.171C181.065 102.639 181.828 102.634 182.303 102.149L185.929 98.4509C186.398 97.9716 186.392 97.2091 185.907 96.7353C185.656 96.5065 185.334 96.3758 185.024 96.3812ZM205.009 97.3126C204.698 97.2908 204.387 97.3943 204.131 97.6176C203.624 98.0642 203.569 98.8267 204.017 99.3332L207.719 103.543C208.166 104.05 208.946 104.083 209.453 103.641C209.96 103.195 210.015 102.432 209.568 101.926L205.849 97.7374C205.625 97.4814 205.32 97.3344 205.009 97.3126ZM193.089 97.4869L191.104 98.9139L192.287 100.265C192.734 100.771 193.498 100.804 194.005 100.363C194.512 99.916 194.566 99.1535 194.119 98.647L193.089 97.4869ZM160.054 98.1132C159.536 98.8049 159.045 99.5021 158.664 100.226L160.763 102.607C161.21 103.113 161.974 103.168 162.481 102.721C162.988 102.274 163.042 101.512 162.595 101.005L160.054 98.1132ZM200.472 99.66C200.161 99.6655 199.85 99.8016 199.616 100.041L195.99 103.739C195.521 104.219 195.526 104.981 196.012 105.455C196.497 105.929 197.277 105.918 197.746 105.439L201.35 101.741C201.819 101.261 201.814 100.499 201.328 100.025C201.088 99.7853 200.783 99.6546 200.472 99.66ZM174.968 100.079C174.657 100.058 174.347 100.161 174.09 100.384C173.583 100.831 173.529 101.615 173.976 102.116L177.678 106.305C178.126 106.811 178.911 106.866 179.412 106.419C179.92 105.973 179.974 105.21 179.527 104.703L175.808 100.493C175.584 100.243 175.285 100.096 174.968 100.079ZM220.916 100.079C220.605 100.058 220.294 100.161 220.038 100.384C219.53 100.831 219.476 101.615 219.923 102.116L223.626 106.305C224.073 106.811 224.858 106.866 225.36 106.419C225.867 105.973 225.9 105.21 225.452 104.703L221.75 100.493C221.532 100.243 221.226 100.096 220.916 100.079ZM170.431 102.438C170.12 102.443 169.81 102.558 169.575 102.797L165.954 106.495C165.485 106.975 165.491 107.759 165.976 108.227C166.462 108.696 167.241 108.69 167.71 108.206L171.315 104.513C171.784 104.034 171.778 103.249 171.293 102.781C171.048 102.547 170.742 102.438 170.431 102.438ZM216.373 102.438C216.062 102.443 215.752 102.558 215.517 102.797L211.891 106.495C211.422 106.975 211.427 107.759 211.913 108.227C212.398 108.696 213.156 108.69 213.63 108.206L217.251 104.513C217.72 104.034 217.715 103.249 217.229 102.781C216.995 102.547 216.689 102.438 216.373 102.438ZM188.644 103.375C188.334 103.353 188.023 103.44 187.767 103.658C187.259 104.104 187.205 104.889 187.652 105.39L191.355 109.578C191.802 110.085 192.587 110.139 193.089 109.692C193.596 109.246 193.629 108.483 193.181 107.977L189.479 103.767C189.261 103.522 188.955 103.391 188.644 103.375ZM184.108 105.717C183.797 105.722 183.486 105.836 183.251 106.081L179.631 109.78C179.162 110.259 179.167 111.043 179.652 111.512C180.138 111.98 180.918 111.975 181.386 111.49L184.991 107.792C185.46 107.312 185.454 106.528 184.969 106.06C184.724 105.825 184.418 105.711 184.108 105.717ZM157.579 106.136C157.557 106.136 157.54 106.158 157.524 106.158C157.818 107.568 158.467 109.387 159.433 111.397L160.289 112.367C160.736 112.873 161.521 112.928 162.023 112.481C162.53 112.034 162.563 111.256 162.115 110.749L158.413 106.555C158.195 106.299 157.889 106.152 157.579 106.136ZM205.009 107.067C204.698 107.045 204.387 107.133 204.131 107.356C203.624 107.803 203.569 108.581 204.017 109.088L207.719 113.276C208.166 113.783 208.946 113.837 209.453 113.391C209.96 112.944 210.015 112.182 209.568 111.675L205.849 107.465C205.625 107.214 205.32 107.089 205.009 107.067ZM200.472 109.409C200.161 109.415 199.85 109.529 199.616 109.774L195.99 113.467C195.521 113.946 195.526 114.73 196.012 115.199C196.491 115.667 197.277 115.662 197.746 115.183L201.35 111.484C201.819 111.005 201.814 110.221 201.328 109.752C201.088 109.518 200.783 109.409 200.472 109.409ZM173.18 110.346C172.869 110.324 172.536 110.411 172.285 110.629C171.778 111.076 171.746 111.855 172.193 112.361L175.895 116.55C176.342 117.056 177.106 117.111 177.613 116.664C178.12 116.217 178.175 115.455 177.727 114.948L174.025 110.738C173.796 110.493 173.49 110.362 173.18 110.346ZM220.916 110.346C220.605 110.324 220.294 110.411 220.038 110.629C219.53 111.076 219.476 111.855 219.923 112.361L223.626 116.55C224.073 117.056 224.858 117.111 225.36 116.664C225.48 116.555 225.485 116.397 225.551 116.261C225.611 116.087 225.665 115.907 225.725 115.727C225.714 115.449 225.654 115.172 225.458 114.948L221.755 110.738C221.532 110.493 221.226 110.362 220.916 110.346ZM168.621 112.688C168.31 112.693 167.999 112.808 167.765 113.048L164.144 116.746C163.675 117.225 163.68 118.009 164.166 118.478C164.646 118.946 165.431 118.941 165.9 118.456L169.526 114.758C169.995 114.278 169.99 113.494 169.504 113.026C169.253 112.797 168.932 112.683 168.621 112.688ZM216.373 112.688C216.062 112.693 215.752 112.808 215.517 113.048L211.891 116.746C211.422 117.225 211.427 118.009 211.913 118.478C212.392 118.946 213.156 118.941 213.63 118.456L217.251 114.758C217.72 114.278 217.715 113.494 217.229 113.026C216.995 112.797 216.689 112.683 216.373 112.688ZM188.606 113.107C188.295 113.086 187.985 113.189 187.728 113.412C187.221 113.859 187.167 114.622 187.614 115.128L191.316 119.338C191.764 119.845 192.527 119.899 193.034 119.453C193.541 119.006 193.596 118.222 193.149 117.721L189.446 113.532C189.222 113.271 188.917 113.124 188.606 113.107ZM184.048 115.466C183.737 115.471 183.426 115.586 183.191 115.825L179.587 119.523C179.118 120.003 179.123 120.765 179.609 121.239C180.094 121.713 180.852 121.702 181.326 121.217L184.953 117.525C185.422 117.045 185.416 116.283 184.931 115.809C184.686 115.575 184.364 115.466 184.048 115.466ZM203.215 117.318C202.904 117.296 202.572 117.399 202.321 117.623C201.814 118.069 201.759 118.832 202.206 119.338L205.925 123.532C206.372 124.039 207.136 124.093 207.643 123.646C208.15 123.2 208.205 122.437 207.757 121.931L204.055 117.721C203.831 117.465 203.526 117.334 203.215 117.318ZM172.127 119.66C171.816 119.638 171.484 119.741 171.233 119.965C170.726 120.411 170.671 121.174 171.118 121.68L174.821 125.89C175.268 126.397 176.053 126.451 176.555 126.005C177.062 125.558 177.117 124.774 176.67 124.273L172.951 120.079C172.727 119.823 172.438 119.681 172.127 119.66ZM198.656 119.66C198.345 119.665 198.035 119.779 197.8 120.019L194.179 123.717C193.71 124.197 193.716 124.981 194.201 125.449C194.681 125.918 195.466 125.912 195.935 125.427L199.561 121.729C200.03 121.25 200.003 120.466 199.523 119.997C199.278 119.769 198.973 119.654 198.656 119.66ZM219.105 120.591C218.794 120.569 218.478 120.673 218.227 120.896C217.72 121.343 217.666 122.105 218.113 122.612L220.572 125.395C221.063 124.763 221.554 124.109 222.039 123.374L219.939 120.994C219.721 120.738 219.416 120.613 219.105 120.591ZM167.568 122.023C167.323 122.023 167.105 122.165 166.898 122.307C167.427 122.857 167.983 123.331 168.539 123.832C168.823 123.363 168.839 122.77 168.425 122.366C168.19 122.127 167.885 122.018 167.568 122.023ZM214.563 122.938C214.252 122.944 213.941 123.058 213.707 123.298L210.086 126.991C209.617 127.47 209.622 128.254 210.108 128.723C210.587 129.191 211.373 129.185 211.842 128.706L215.446 125.008C215.915 124.529 215.91 123.744 215.424 123.276C215.179 123.042 214.879 122.933 214.563 122.938ZM188.606 123.352C188.295 123.331 187.985 123.434 187.728 123.657C187.221 124.104 187.167 124.866 187.614 125.373L189.004 126.952L191.578 126.19L189.441 123.772C189.222 123.521 188.917 123.374 188.606 123.352ZM184.048 125.716C183.737 125.722 183.426 125.836 183.191 126.076L179.587 129.774C179.118 130.253 179.123 131.037 179.609 131.506C180.094 131.974 180.852 131.947 181.326 131.468L184.953 127.769C185.422 127.29 185.416 126.528 184.931 126.054C184.686 125.825 184.364 125.711 184.048 125.716ZM203.122 125.967C202.811 125.945 202.501 126.048 202.244 126.272C201.737 126.718 201.683 127.481 202.13 127.987L205.832 132.197C206.28 132.704 207.043 132.758 207.55 132.312C208.057 131.865 208.112 131.086 207.665 130.58L203.962 126.391C203.738 126.13 203.433 125.983 203.122 125.967ZM191.927 126.577L191.644 129.757C192.085 130.019 192.631 130.057 193.034 129.703C193.541 129.256 193.596 128.472 193.149 127.971L191.927 126.577ZM198.58 128.309C198.269 128.314 197.958 128.45 197.724 128.69L194.097 132.388C193.629 132.867 193.634 133.63 194.119 134.104C194.605 134.578 195.363 134.567 195.837 134.082L199.463 130.384C199.932 129.904 199.927 129.142 199.441 128.668C199.202 128.434 198.896 128.303 198.58 128.309ZM172.242 131.544C172.018 132.404 171.789 133.461 171.555 134.479L173.022 136.135C173.469 136.642 174.232 136.696 174.739 136.25C175.246 135.803 175.301 135.024 174.854 134.518L172.242 131.544ZM214.563 132.688C214.252 132.693 213.941 132.807 213.707 133.047L210.086 136.74C209.617 137.225 209.622 138.003 210.108 138.472C210.587 138.94 211.373 138.935 211.842 138.45L215.446 134.752C215.915 134.273 215.91 133.488 215.424 133.02C215.179 132.797 214.879 132.688 214.563 132.688ZM186.796 133.603C186.485 133.581 186.174 133.684 185.918 133.908C185.411 134.354 185.356 135.139 185.803 135.64L187.194 137.219L187.614 134C187.396 133.761 187.096 133.624 186.796 133.603ZM182.254 135.966C181.943 135.972 181.632 136.086 181.397 136.326L177.771 140.024C177.302 140.503 177.308 141.288 177.793 141.756C178.273 142.224 179.036 142.219 179.511 141.734L183.131 138.036C183.6 137.557 183.595 136.772 183.11 136.304C182.875 136.075 182.57 135.961 182.254 135.966ZM201.306 136.211C200.996 136.19 200.685 136.293 200.428 136.516C199.921 136.963 199.867 137.726 200.314 138.232L202.43 140.65H205.691L202.141 136.631C201.928 136.38 201.623 136.233 201.306 136.211ZM190.951 137.796L190.744 140.122C190.913 140.073 191.098 140.073 191.24 139.953C191.747 139.507 191.78 138.744 191.333 138.238L190.951 137.796ZM196.77 138.575C196.459 138.581 196.148 138.695 195.913 138.935L194.234 140.65H197.626L197.647 140.629C198.116 140.149 198.111 139.387 197.626 138.913C197.386 138.684 197.08 138.57 196.77 138.575ZM170.644 139.91C170.595 139.904 170.557 139.964 170.513 139.964C170.382 140.868 170.295 141.712 170.23 142.573L173.36 146.135C173.807 146.642 174.592 146.696 175.094 146.249C175.601 145.803 175.634 145.018 175.192 144.517L171.489 140.329C171.26 140.073 170.955 139.926 170.644 139.91ZM180.503 146.364C180.481 146.386 180.449 146.38 180.427 146.402L176.8 150.1C176.484 150.427 176.468 150.868 176.593 151.282C178.431 151.124 179.778 150.405 179.778 150.405L180.503 146.364Z" fill="#F5F6FF"/>
<path d="M183.786 128.407L182.074 140.656" stroke="#F5F6FF" stroke-miterlimit="10" stroke-linecap="round" stroke-linejoin="round"/>
<path d="M177.82 99.3387C180.765 103.053 182.646 106.621 182.646 106.621C182.646 106.621 187.129 102.057 191.562 98.2167C195.319 94.9597 202.817 92.28 202.817 92.28" stroke="#F5F6FF" stroke-miterlimit="10" stroke-linecap="round" stroke-linejoin="round"/>
<path d="M209.197 111.152C209.197 111.152 203.88 120.291 195.908 124.431C189.528 127.742 188.208 128.205 182.668 128.39C176.288 128.603 172.989 126.582 172.989 126.582" stroke="#F5F6FF" stroke-miterlimit="10" stroke-linecap="round" stroke-linejoin="round"/>
<path d="M191.578 86.1853L187.259 90.9074L190.738 91.6372" stroke="#2F419E" stroke-miterlimit="10" stroke-linecap="round" stroke-linejoin="round"/>
<path d="M202.926 85.0089L206.018 90.3901L199.834 90.3192" stroke="#2F419E" stroke-miterlimit="10" stroke-linecap="round" stroke-linejoin="round"/>
<path d="M193.634 73.3862C193.634 69.4538 196.824 66.2676 200.761 66.2676C204.698 66.2676 207.888 69.4538 207.888 73.3862C207.888 77.3185 204.698 80.5047 200.761 80.5047C196.824 80.5047 193.634 77.3185 193.634 73.3862Z" fill="#F5F6FF"/>
<path d="M206.04 62.3677C202.49 61.6106 200.69 63.6095 198.651 63.8655C195.39 64.274 193.41 62.6509 191.556 63.9908C189.419 65.5376 190.76 68.6584 190.76 68.6584C190.76 68.6584 185.722 71.2237 188.699 74.35C190.226 75.9513 193.885 75.6572 193.885 75.6572L193.618 72.5036L194.566 69.6824C194.566 69.6824 197.075 69.5898 198.1 69.2575C199.223 68.8872 200.439 68.2608 201.459 67.5092C201.143 68.5386 201.176 71.4851 203.362 73.6964C204.584 74.9328 206.127 75.6027 207.376 75.9567C206.389 77.6669 204.518 79.8128 204.518 79.8128C204.518 79.8128 205.511 83.0263 209.993 83.6799C213.767 84.2299 214.426 80.7387 214.426 80.7387C214.426 80.7387 218.402 79.9436 217.846 76.3761C217.366 73.2879 213.963 73.9905 212.627 71.3762C211.978 70.1235 213.336 63.92 206.04 62.3677Z" fill="#4B4B4B"/>
<path d="M193.683 74.1976C193.236 70.2924 196.044 66.7686 199.949 66.3165C203.858 65.8699 207.392 68.6748 207.839 72.58C208.286 76.4851 205.478 80.009 201.574 80.4556C197.664 80.9022 194.13 78.1027 193.683 74.1976Z" stroke="#4B4B4B" stroke-miterlimit="10" stroke-linecap="round" stroke-linejoin="round"/>
<path d="M200.668 75.2541C200.641 74.7531 201.017 74.3228 201.508 74.2956C202.004 74.2683 202.43 74.6496 202.463 75.1452C202.495 75.6463 202.114 76.0766 201.623 76.1038C201.121 76.1365 200.696 75.7552 200.668 75.2541Z" fill="#2F419E"/>
<path d="M198.76 73.8762C198.733 73.4296 199.076 73.0429 199.523 73.0157C199.97 72.9884 200.358 73.3316 200.385 73.7782C200.412 74.2248 200.069 74.6115 199.621 74.6387C199.174 74.666 198.787 74.3283 198.76 73.8762Z" fill="#4B4B4B"/>
<path d="M194.817 73.555C194.79 73.1083 195.134 72.7216 195.581 72.6944C196.028 72.6672 196.415 73.0049 196.442 73.4569C196.47 73.9035 196.126 74.2902 195.679 74.3175C195.226 74.3392 194.845 74.0016 194.817 73.555Z" fill="#4B4B4B"/>
<path d="M199.883 76.6213C199.883 76.6213 199.649 77.4329 199.103 77.727C198.291 78.1627 197.429 77.8414 197.429 77.8414" stroke="#4B4B4B" stroke-miterlimit="10" stroke-linecap="round" stroke-linejoin="round"/>
<path d="M197.593 73.7129L195.875 76.1584L197.506 76.2782" stroke="#4B4B4B" stroke-miterlimit="10" stroke-linecap="round" stroke-linejoin="round"/>
<path d="M213.489 69.8242C213.407 68.8492 218.129 62.15 220.752 61.1642C225.741 59.2906 228.948 65.1565 225.343 67.8743C222.055 70.347 213.559 70.7119 213.489 69.8242Z" fill="#4B4B4B"/>
<path d="M168.495 94.1427C168.495 94.1427 174.259 81.4687 172.727 80.1834C171.566 79.2084 168.495 87.0623 168.495 87.0623C168.495 87.0623 169.117 84.5297 169.422 82.5907C170.126 78.0647 168.926 77.1606 167.677 77.6181C166.08 78.2008 165.436 86.5122 165.436 86.5122C165.436 86.5122 165.933 83.6855 163.201 81.997C160.267 80.1834 156.346 81.8772 156.673 83.1789C157.219 85.3575 159.694 83.8979 160.965 84.8837C162.235 85.8695 162.508 87.9828 161.188 89.1047C159.247 90.755 156.259 86.4795 154.568 87.144C152.169 88.0917 154.121 90.4282 154.568 90.9021C158.991 95.5697 163.855 97.2255 163.855 97.2255" fill="#F5F6FF"/>
<path d="M168.495 94.1427C168.495 94.1427 174.259 81.4687 172.727 80.1834C171.566 79.2084 168.495 87.0623 168.495 87.0623C168.495 87.0623 169.117 84.5297 169.422 82.5907C170.126 78.0647 168.926 77.1606 167.677 77.6181C166.08 78.2008 165.436 86.5122 165.436 86.5122C165.436 86.5122 165.933 83.6855 163.201 81.997C160.267 80.1834 156.346 81.8772 156.673 83.1789C157.219 85.3575 159.694 83.8979 160.965 84.8837C162.235 85.8695 162.508 87.9828 161.188 89.1047C159.247 90.755 156.259 86.4795 154.568 87.144C152.169 88.0917 154.121 90.4282 154.568 90.9021C158.991 95.5697 163.855 97.2255 163.855 97.2255" stroke="#4B4B4B" stroke-miterlimit="10" stroke-linecap="round" stroke-linejoin="round"/>
<path d="M163.893 165.977C163.893 165.977 165.393 153.597 173.42 153.662C179.625 153.711 176.806 166.864 176.806 166.864" stroke="#EEC765" stroke-miterlimit="10" stroke-linecap="round" stroke-linejoin="round"/>
<path d="M169 149.5H180L177.5 160H169V149.5Z" fill="#F5F6FF"/>
<path d="M171.391 144.844C171.391 144.844 168.027 146.941 166.456 151.565C165.616 154.027 165.431 158.782 166.898 158.94C168.365 159.098 169.979 152.932 169.979 152.932C169.979 152.932 172.149 153.771 173.747 152.932C175.344 152.094 176.484 150.416 176.484 150.416" fill="#F5F6FF"/>
<path d="M171.391 144.844C171.391 144.844 168.027 146.941 166.456 151.565C165.616 154.027 165.431 158.782 166.898 158.94C168.365 159.098 169.979 152.932 169.979 152.932C169.979 152.932 172.149 153.771 173.747 152.932C175.344 152.094 176.484 150.416 176.484 150.416" stroke="#4B4B4B" stroke-miterlimit="10" stroke-linecap="round" stroke-linejoin="round"/>
<path d="M168.577 157.088C168.577 157.088 168.359 160.96 169.641 161.118C170.922 161.282 171.975 159.718 172.525 158.302C173.076 156.886 173.485 154.463 173 153.896C171.369 152.012 169.924 157.257 169.924 157.257" fill="#F5F6FF"/>
<path d="M168.577 157.088C168.577 157.088 168.359 160.96 169.641 161.118C170.922 161.282 171.975 159.718 172.525 158.302C173.076 156.886 173.485 154.463 173 153.896C171.369 152.012 169.924 157.257 169.924 157.257" stroke="#4B4B4B" stroke-miterlimit="10" stroke-linecap="round" stroke-linejoin="round"/>
<path d="M171.62 160.062C171.62 160.062 172.438 162.06 174.336 160.514C176.233 158.967 176.713 155.051 175.792 154.256C174.952 153.526 173.321 155.797 173.321 155.797" fill="#F5F6FF"/>
<path d="M171.62 160.062C171.62 160.062 172.438 162.06 174.336 160.514C176.233 158.967 176.713 155.051 175.792 154.256C174.952 153.526 173.321 155.797 173.321 155.797" stroke="#4B4B4B" stroke-miterlimit="10" stroke-linecap="round" stroke-linejoin="round"/>
<path d="M175.208 159.871C175.208 159.871 176.228 161.581 177.662 160.013C179.096 158.444 179.325 154.729 178.453 154.185C177.657 153.684 176.277 155.595 176.277 155.595" fill="#F5F6FF"/>
<path d="M175.208 159.871C175.208 159.871 176.228 161.581 177.662 160.013C179.096 158.444 179.325 154.729 178.453 154.185C177.657 153.684 176.277 155.595 176.277 155.595" stroke="#4B4B4B" stroke-miterlimit="10" stroke-linecap="round" stroke-linejoin="round"/>
<path d="M178.573 154.315C178.573 154.315 179.603 153.319 179.909 151.75C180.214 150.182 180.154 149.523 180.154 149.523" fill="#F5F6FF"/>
<path d="M178.573 154.315C178.573 154.315 179.603 153.319 179.909 151.75C180.214 150.182 180.154 149.523 180.154 149.523" stroke="#4B4B4B" stroke-miterlimit="10" stroke-linecap="round" stroke-linejoin="round"/>
<path d="M160.343 166.924C160.659 166.244 161.368 165.824 162.121 165.873L178.196 166.913C179.265 166.984 180.149 167.654 180.367 168.558L182.608 183.759C182.93 185.105 182.063 186.352 180.487 186.652L173.398 187.866L155.397 184.271C153.903 184.13 152.987 182.681 153.587 181.401L160.343 166.924Z" fill="#EEC765"/>
<path d="M177.82 168.803L174.75 186.101" stroke="#2F419E" stroke-miterlimit="10" stroke-linecap="round" stroke-linejoin="round"/>
<path d="M156.428 175.628L172.863 178.302L177.455 168.809" fill="#EEC765"/>
<path d="M156.428 175.628L172.863 178.302L177.455 168.809" stroke="#2F419E" stroke-miterlimit="10" stroke-linecap="round" stroke-linejoin="round"/>
</svg>
