<svg width="16" height="16" viewBox="0 0 16 16" fill="none" xmlns="http://www.w3.org/2000/svg">
<path d="M8.11327 5.73339C8.76129 5.73339 9.28661 5.20807 9.28661 4.56005C9.28661 3.91204 8.76129 3.38672 8.11327 3.38672C7.46526 3.38672 6.93994 3.91204 6.93994 4.56005C6.93994 5.20807 7.46526 5.73339 8.11327 5.73339Z" stroke="#333333" stroke-linecap="round" stroke-linejoin="round"/>
<path d="M5.76657 12.4534L8.11323 10.1001V7.16675H4.60657" stroke="#333333" stroke-linecap="round" stroke-linejoin="round"/>
<path d="M10.4666 12.4534L8.11328 10.1001V7.16675H11.6266" stroke="#333333" stroke-linecap="round" stroke-linejoin="round"/>
<path d="M8.00004 14.6667C11.6819 14.6667 14.6667 11.6819 14.6667 8.00004C14.6667 4.31814 11.6819 1.33337 8.00004 1.33337C4.31814 1.33337 1.33337 4.31814 1.33337 8.00004C1.33337 11.6819 4.31814 14.6667 8.00004 14.6667Z" stroke="#333333" stroke-linecap="round" stroke-linejoin="round"/>
</svg>
