<svg width="351" height="48" viewBox="0 0 351 48" fill="none" xmlns="http://www.w3.org/2000/svg">
<g filter="url(#filter0_d_240_3110)">
<rect x="4" y="2" width="343" height="40" rx="8" fill="#F5F6FF" shape-rendering="crispEdges"/>
<rect x="4.5" y="2.5" width="342" height="39" rx="7.5" stroke="#121214" shape-rendering="crispEdges"/>
<path d="M123.459 18.8173C122.776 19.2175 122.211 19.7771 121.815 20.4436C121.42 21.1101 121.208 21.8618 121.198 22.6283C121.201 23.491 121.468 24.3339 121.966 25.0528C122.464 25.7716 123.171 26.3348 124 26.6725C123.673 27.6823 123.19 28.6393 122.565 29.5112C121.672 30.7427 120.738 31.974 119.317 31.974C117.896 31.974 117.53 31.1833 115.892 31.1833C114.295 31.1833 113.727 32 112.427 32C111.128 32 110.221 30.8593 109.179 29.4594C107.802 27.4983 107.046 25.1983 107 22.8356C107 18.9469 109.639 16.886 112.238 16.886C113.619 16.886 114.769 17.7544 115.635 17.7544C116.461 17.7544 117.747 16.834 119.317 16.834C120.124 16.8141 120.924 16.9845 121.646 17.3304C122.369 17.6762 122.991 18.1868 123.459 18.8173ZM118.573 15.1879C119.265 14.4082 119.656 13.4247 119.682 12.4016C119.684 12.2668 119.67 12.1321 119.642 12C118.453 12.1112 117.354 12.6539 116.569 13.5166C115.87 14.2653 115.464 15.2225 115.419 16.2257C115.419 16.3477 115.433 16.4693 115.459 16.5887C115.553 16.6056 115.648 16.6143 115.744 16.6146C116.292 16.5729 116.825 16.4249 117.311 16.1796C117.797 15.9343 118.227 15.5969 118.573 15.1879Z" fill="#121214"/>
<path d="M135.017 18.376V21.183H138.559V22.632H135.017V25.495H139.511V27H133.127V16.878H139.511V18.376H135.017ZM142.653 20.7C142.798 20.5553 142.95 20.4223 143.108 20.301C143.272 20.175 143.442 20.07 143.619 19.986C143.801 19.8973 143.995 19.8297 144.2 19.783C144.406 19.7317 144.63 19.706 144.872 19.706C145.264 19.706 145.612 19.7737 145.915 19.909C146.219 20.0397 146.471 20.2263 146.671 20.469C146.877 20.707 147.031 20.994 147.133 21.33C147.241 21.6613 147.294 22.0277 147.294 22.429V27H145.565V22.429C145.565 21.9903 145.465 21.652 145.264 21.414C145.064 21.1713 144.758 21.05 144.347 21.05C144.049 21.05 143.769 21.1177 143.507 21.253C143.246 21.3883 142.999 21.5727 142.765 21.806V27H141.036V19.818H142.093C142.317 19.818 142.464 19.923 142.534 20.133L142.653 20.7ZM151.517 27.112C150.892 27.112 150.411 26.937 150.075 26.587C149.744 26.2323 149.578 25.7447 149.578 25.124V21.113H148.843C148.75 21.113 148.67 21.0827 148.605 21.022C148.54 20.9613 148.507 20.8703 148.507 20.749V20.063L149.662 19.874L150.026 17.914C150.049 17.8207 150.094 17.7483 150.159 17.697C150.224 17.6457 150.308 17.62 150.411 17.62H151.307V19.881H153.225V21.113H151.307V25.005C151.307 25.229 151.361 25.404 151.468 25.53C151.58 25.656 151.732 25.719 151.923 25.719C152.03 25.719 152.119 25.7073 152.189 25.684C152.264 25.656 152.327 25.628 152.378 25.6C152.434 25.572 152.483 25.5463 152.525 25.523C152.567 25.495 152.609 25.481 152.651 25.481C152.702 25.481 152.744 25.495 152.777 25.523C152.81 25.5463 152.845 25.5837 152.882 25.635L153.4 26.475C153.148 26.685 152.859 26.8437 152.532 26.951C152.205 27.0583 151.867 27.112 151.517 27.112ZM156.243 21.064C156.467 20.6347 156.733 20.2987 157.041 20.056C157.349 19.8087 157.713 19.685 158.133 19.685C158.464 19.685 158.73 19.7573 158.931 19.902L158.819 21.197C158.796 21.281 158.761 21.3417 158.714 21.379C158.672 21.4117 158.614 21.428 158.539 21.428C158.469 21.428 158.364 21.4163 158.224 21.393C158.089 21.3697 157.956 21.358 157.825 21.358C157.634 21.358 157.463 21.386 157.314 21.442C157.165 21.498 157.029 21.5797 156.908 21.687C156.791 21.7897 156.686 21.9157 156.593 22.065C156.504 22.2143 156.42 22.3847 156.341 22.576V27H154.612V19.818H155.627C155.804 19.818 155.928 19.8507 155.998 19.916C156.068 19.9767 156.115 20.0887 156.138 20.252L156.243 21.064ZM163.813 23.934C163.314 23.9573 162.894 24.0017 162.553 24.067C162.212 24.1277 161.939 24.207 161.734 24.305C161.529 24.403 161.382 24.5173 161.293 24.648C161.204 24.7787 161.16 24.921 161.16 25.075C161.16 25.3783 161.249 25.5953 161.426 25.726C161.608 25.8567 161.844 25.922 162.133 25.922C162.488 25.922 162.793 25.859 163.05 25.733C163.311 25.6023 163.566 25.4063 163.813 25.145V23.934ZM159.851 20.819C160.677 20.063 161.671 19.685 162.833 19.685C163.253 19.685 163.629 19.755 163.96 19.895C164.291 20.0303 164.571 20.2217 164.8 20.469C165.029 20.7117 165.201 21.0033 165.318 21.344C165.439 21.6847 165.5 22.058 165.5 22.464V27H164.716C164.553 27 164.427 26.9767 164.338 26.93C164.249 26.8787 164.179 26.7783 164.128 26.629L163.974 26.111C163.792 26.2743 163.615 26.419 163.442 26.545C163.269 26.6663 163.09 26.769 162.903 26.853C162.716 26.937 162.516 27 162.301 27.042C162.091 27.0887 161.858 27.112 161.601 27.112C161.298 27.112 161.018 27.0723 160.761 26.993C160.504 26.909 160.283 26.7853 160.096 26.622C159.909 26.4587 159.765 26.2557 159.662 26.013C159.559 25.7703 159.508 25.488 159.508 25.166C159.508 24.984 159.538 24.8043 159.599 24.627C159.66 24.445 159.758 24.2723 159.893 24.109C160.033 23.9457 160.213 23.7917 160.432 23.647C160.651 23.5023 160.92 23.3763 161.237 23.269C161.559 23.1617 161.932 23.0753 162.357 23.01C162.782 22.94 163.267 22.898 163.813 22.884V22.464C163.813 21.9833 163.71 21.6287 163.505 21.4C163.3 21.1667 163.003 21.05 162.616 21.05C162.336 21.05 162.103 21.0827 161.916 21.148C161.734 21.2133 161.573 21.288 161.433 21.372C161.293 21.4513 161.165 21.5237 161.048 21.589C160.936 21.6543 160.81 21.687 160.67 21.687C160.549 21.687 160.446 21.6567 160.362 21.596C160.278 21.5307 160.21 21.456 160.159 21.372L159.851 20.819ZM169.039 21.064C169.263 20.6347 169.529 20.2987 169.837 20.056C170.145 19.8087 170.509 19.685 170.929 19.685C171.261 19.685 171.527 19.7573 171.727 19.902L171.615 21.197C171.592 21.281 171.557 21.3417 171.51 21.379C171.468 21.4117 171.41 21.428 171.335 21.428C171.265 21.428 171.16 21.4163 171.02 21.393C170.885 21.3697 170.752 21.358 170.621 21.358C170.43 21.358 170.26 21.386 170.11 21.442C169.961 21.498 169.826 21.5797 169.704 21.687C169.588 21.7897 169.483 21.9157 169.389 22.065C169.301 22.2143 169.217 22.3847 169.137 22.576V27H167.408V19.818H168.423C168.601 19.818 168.724 19.8507 168.794 19.916C168.864 19.9767 168.911 20.0887 168.934 20.252L169.039 21.064ZM181.439 21.337C181.388 21.4023 181.337 21.4537 181.285 21.491C181.239 21.5283 181.169 21.547 181.075 21.547C180.987 21.547 180.9 21.5213 180.816 21.47C180.732 21.414 180.632 21.3533 180.515 21.288C180.399 21.218 180.259 21.1573 180.095 21.106C179.937 21.05 179.738 21.022 179.5 21.022C179.197 21.022 178.931 21.078 178.702 21.19C178.474 21.2973 178.282 21.4537 178.128 21.659C177.979 21.8643 177.867 22.114 177.792 22.408C177.718 22.6973 177.68 23.0263 177.68 23.395C177.68 23.7777 177.72 24.1183 177.799 24.417C177.883 24.7157 178.002 24.9677 178.156 25.173C178.31 25.3737 178.497 25.5277 178.716 25.635C178.936 25.7377 179.183 25.789 179.458 25.789C179.734 25.789 179.955 25.7563 180.123 25.691C180.296 25.621 180.441 25.5463 180.557 25.467C180.674 25.383 180.774 25.3083 180.858 25.243C180.947 25.173 181.045 25.138 181.152 25.138C181.292 25.138 181.397 25.1917 181.467 25.299L181.964 25.929C181.773 26.153 181.565 26.342 181.341 26.496C181.117 26.6453 180.884 26.7667 180.641 26.86C180.403 26.9487 180.156 27.0117 179.899 27.049C179.647 27.0863 179.395 27.105 179.143 27.105C178.7 27.105 178.282 27.0233 177.89 26.86C177.498 26.692 177.155 26.4493 176.861 26.132C176.567 25.8147 176.334 25.4273 176.161 24.97C175.993 24.508 175.909 23.983 175.909 23.395C175.909 22.8677 175.984 22.38 176.133 21.932C176.287 21.4793 176.511 21.0897 176.805 20.763C177.099 20.4317 177.463 20.1727 177.897 19.986C178.331 19.7993 178.831 19.706 179.395 19.706C179.932 19.706 180.401 19.7923 180.802 19.965C181.208 20.1377 181.572 20.385 181.894 20.707L181.439 21.337ZM186.383 19.706C186.915 19.706 187.398 19.7923 187.832 19.965C188.271 20.1377 188.644 20.3827 188.952 20.7C189.265 21.0173 189.505 21.4047 189.673 21.862C189.841 22.3193 189.925 22.8303 189.925 23.395C189.925 23.9643 189.841 24.4777 189.673 24.935C189.505 25.3923 189.265 25.782 188.952 26.104C188.644 26.426 188.271 26.6733 187.832 26.846C187.398 27.0187 186.915 27.105 186.383 27.105C185.847 27.105 185.359 27.0187 184.92 26.846C184.482 26.6733 184.106 26.426 183.793 26.104C183.485 25.782 183.245 25.3923 183.072 24.935C182.904 24.4777 182.82 23.9643 182.82 23.395C182.82 22.8303 182.904 22.3193 183.072 21.862C183.245 21.4047 183.485 21.0173 183.793 20.7C184.106 20.3827 184.482 20.1377 184.92 19.965C185.359 19.7923 185.847 19.706 186.383 19.706ZM186.383 25.775C186.981 25.775 187.422 25.5743 187.706 25.173C187.996 24.7717 188.14 24.1837 188.14 23.409C188.14 22.6343 187.996 22.044 187.706 21.638C187.422 21.232 186.981 21.029 186.383 21.029C185.777 21.029 185.326 21.2343 185.032 21.645C184.743 22.051 184.598 22.639 184.598 23.409C184.598 24.179 184.743 24.767 185.032 25.173C185.326 25.5743 185.777 25.775 186.383 25.775ZM191.524 27V19.818H192.581C192.805 19.818 192.952 19.923 193.022 20.133L193.134 20.665C193.26 20.525 193.391 20.3967 193.526 20.28C193.666 20.1633 193.813 20.063 193.967 19.979C194.126 19.895 194.294 19.8297 194.471 19.783C194.653 19.7317 194.852 19.706 195.066 19.706C195.519 19.706 195.89 19.8297 196.179 20.077C196.473 20.3197 196.693 20.644 196.837 21.05C196.949 20.812 197.089 20.609 197.257 20.441C197.425 20.2683 197.61 20.1283 197.81 20.021C198.011 19.9137 198.223 19.8343 198.447 19.783C198.676 19.7317 198.905 19.706 199.133 19.706C199.53 19.706 199.882 19.7667 200.19 19.888C200.498 20.0093 200.757 20.1867 200.967 20.42C201.177 20.6533 201.336 20.938 201.443 21.274C201.555 21.61 201.611 21.995 201.611 22.429V27H199.882V22.429C199.882 21.9717 199.782 21.6287 199.581 21.4C199.381 21.1667 199.087 21.05 198.699 21.05C198.522 21.05 198.356 21.0803 198.202 21.141C198.053 21.2017 197.92 21.2903 197.803 21.407C197.691 21.519 197.603 21.6613 197.537 21.834C197.472 22.0067 197.439 22.205 197.439 22.429V27H195.703V22.429C195.703 21.9483 195.605 21.5983 195.409 21.379C195.218 21.1597 194.936 21.05 194.562 21.05C194.31 21.05 194.075 21.113 193.855 21.239C193.641 21.3603 193.44 21.5283 193.253 21.743V27H191.524ZM212.375 23.178L211.143 19.811C211.083 19.6617 211.02 19.4843 210.954 19.279C210.889 19.0737 210.824 18.852 210.758 18.614C210.698 18.852 210.635 19.076 210.569 19.286C210.504 19.4913 210.441 19.671 210.38 19.825L209.155 23.178H212.375ZM215.7 27H214.244C214.081 27 213.948 26.9603 213.845 26.881C213.743 26.797 213.666 26.6943 213.614 26.573L212.858 24.508H208.665L207.909 26.573C207.872 26.6803 207.8 26.7783 207.692 26.867C207.585 26.9557 207.452 27 207.293 27H205.823L209.806 16.878H211.724L215.7 27ZM218.47 25.138C218.666 25.376 218.879 25.544 219.107 25.642C219.341 25.74 219.593 25.789 219.863 25.789C220.125 25.789 220.36 25.74 220.57 25.642C220.78 25.544 220.958 25.3947 221.102 25.194C221.252 24.9933 221.366 24.7413 221.445 24.438C221.525 24.13 221.564 23.7683 221.564 23.353C221.564 22.933 221.529 22.5783 221.459 22.289C221.394 21.995 221.298 21.757 221.172 21.575C221.046 21.393 220.892 21.26 220.71 21.176C220.533 21.092 220.33 21.05 220.101 21.05C219.742 21.05 219.436 21.127 219.184 21.281C218.932 21.4303 218.694 21.6427 218.47 21.918V25.138ZM218.379 20.798C218.673 20.4667 219.007 20.1983 219.38 19.993C219.754 19.7877 220.192 19.685 220.696 19.685C221.088 19.685 221.445 19.7667 221.767 19.93C222.094 20.0933 222.374 20.3313 222.607 20.644C222.845 20.952 223.027 21.3347 223.153 21.792C223.284 22.2447 223.349 22.765 223.349 23.353C223.349 23.8897 223.277 24.3867 223.132 24.844C222.988 25.3013 222.78 25.698 222.509 26.034C222.243 26.37 221.919 26.6337 221.536 26.825C221.158 27.0117 220.734 27.105 220.262 27.105C219.861 27.105 219.518 27.0443 219.233 26.923C218.949 26.797 218.694 26.6243 218.47 26.405V29.345H216.741V19.818H217.798C218.022 19.818 218.169 19.923 218.239 20.133L218.379 20.798ZM226.707 25.138C226.903 25.376 227.116 25.544 227.344 25.642C227.578 25.74 227.83 25.789 228.1 25.789C228.362 25.789 228.597 25.74 228.807 25.642C229.017 25.544 229.195 25.3947 229.339 25.194C229.489 24.9933 229.603 24.7413 229.682 24.438C229.762 24.13 229.801 23.7683 229.801 23.353C229.801 22.933 229.766 22.5783 229.696 22.289C229.631 21.995 229.535 21.757 229.409 21.575C229.283 21.393 229.129 21.26 228.947 21.176C228.77 21.092 228.567 21.05 228.338 21.05C227.979 21.05 227.673 21.127 227.421 21.281C227.169 21.4303 226.931 21.6427 226.707 21.918V25.138ZM226.616 20.798C226.91 20.4667 227.244 20.1983 227.617 19.993C227.991 19.7877 228.429 19.685 228.933 19.685C229.325 19.685 229.682 19.7667 230.004 19.93C230.331 20.0933 230.611 20.3313 230.844 20.644C231.082 20.952 231.264 21.3347 231.39 21.792C231.521 22.2447 231.586 22.765 231.586 23.353C231.586 23.8897 231.514 24.3867 231.369 24.844C231.225 25.3013 231.017 25.698 230.746 26.034C230.48 26.37 230.156 26.6337 229.773 26.825C229.395 27.0117 228.971 27.105 228.499 27.105C228.098 27.105 227.755 27.0443 227.47 26.923C227.186 26.797 226.931 26.6243 226.707 26.405V29.345H224.978V19.818H226.035C226.259 19.818 226.406 19.923 226.476 20.133L226.616 20.798ZM234.965 16.598V27H233.236V16.598H234.965ZM241.595 22.583C241.595 22.359 241.562 22.149 241.497 21.953C241.436 21.7523 241.343 21.5773 241.217 21.428C241.091 21.2787 240.93 21.162 240.734 21.078C240.543 20.9893 240.319 20.945 240.062 20.945C239.563 20.945 239.168 21.0873 238.879 21.372C238.594 21.6567 238.412 22.0603 238.333 22.583H241.595ZM238.298 23.626C238.326 23.9947 238.391 24.3143 238.494 24.585C238.597 24.851 238.732 25.0727 238.9 25.25C239.068 25.4227 239.266 25.5533 239.495 25.642C239.728 25.726 239.985 25.768 240.265 25.768C240.545 25.768 240.785 25.7353 240.986 25.67C241.191 25.6047 241.369 25.5323 241.518 25.453C241.672 25.3737 241.805 25.3013 241.917 25.236C242.034 25.1707 242.146 25.138 242.253 25.138C242.398 25.138 242.505 25.1917 242.575 25.299L243.072 25.929C242.881 26.153 242.666 26.342 242.428 26.496C242.19 26.6453 241.94 26.7667 241.679 26.86C241.422 26.9487 241.159 27.0117 240.888 27.049C240.622 27.0863 240.363 27.105 240.111 27.105C239.612 27.105 239.147 27.0233 238.718 26.86C238.289 26.692 237.915 26.447 237.598 26.125C237.281 25.7983 237.031 25.397 236.849 24.921C236.667 24.4403 236.576 23.885 236.576 23.255C236.576 22.765 236.655 22.3053 236.814 21.876C236.973 21.442 237.199 21.0663 237.493 20.749C237.792 20.427 238.153 20.1727 238.578 19.986C239.007 19.7993 239.49 19.706 240.027 19.706C240.48 19.706 240.897 19.7783 241.28 19.923C241.663 20.0677 241.992 20.28 242.267 20.56C242.542 20.8353 242.757 21.176 242.911 21.582C243.07 21.9833 243.149 22.443 243.149 22.961C243.149 23.2223 243.121 23.3997 243.065 23.493C243.009 23.5817 242.902 23.626 242.743 23.626H238.298Z" fill="#121214"/>
</g>
<defs>
<filter id="filter0_d_240_3110" x="0" y="0" width="351" height="48" filterUnits="userSpaceOnUse" color-interpolation-filters="sRGB">
<feFlood flood-opacity="0" result="BackgroundImageFix"/>
<feColorMatrix in="SourceAlpha" type="matrix" values="0 0 0 0 0 0 0 0 0 0 0 0 0 0 0 0 0 0 127 0" result="hardAlpha"/>
<feOffset dy="2"/>
<feGaussianBlur stdDeviation="2"/>
<feComposite in2="hardAlpha" operator="out"/>
<feColorMatrix type="matrix" values="0 0 0 0 0 0 0 0 0 0 0 0 0 0 0 0 0 0 0.04 0"/>
<feBlend mode="normal" in2="BackgroundImageFix" result="effect1_dropShadow_240_3110"/>
<feBlend mode="normal" in="SourceGraphic" in2="effect1_dropShadow_240_3110" result="shape"/>
</filter>
</defs>
</svg>
