<svg width="24" height="24" viewBox="0 0 24 24" fill="none" xmlns="http://www.w3.org/2000/svg">
<circle cx="5.5" cy="15.5" r="3.75" stroke="#333333" stroke-width="1.5"/>
<circle cx="18.5" cy="15.5" r="3.75" stroke="#333333" stroke-width="1.5"/>
<path d="M6.4 5.95238L7.49215 6.17527C8.24999 6.32993 8.85072 6.90771 9.03478 7.65895L9.2 8.33333M9.2 8.33333L12 15M9.2 8.33333H16.06M9.2 8.33333L5.5 11.5M18.0667 7.38095L18.2862 7.15691C18.7031 6.73153 18.768 6.07345 18.4422 5.57484V5.57484C18.2079 5.21619 17.8084 5 17.38 5H15.1933C14.9761 5 14.8 5.17609 14.8 5.39332V5.39332C14.8 5.44797 14.8114 5.50202 14.8334 5.55202L16.06 8.33333M19 15L16.06 8.33333M16.06 8.33333L12 15M12 15H5" stroke="#333333" stroke-width="1.5" stroke-linecap="round"/>
</svg>
