<svg width="25" height="24" viewBox="0 0 25 24" fill="none" xmlns="http://www.w3.org/2000/svg">
<path d="M4.5 17.25V12.5121C4.5 12.3381 4.5227 12.1649 4.56753 11.9968L5.16667 9.75M4.5 17.25V17.7049C4.5 18.5582 5.19176 19.25 6.04509 19.25V19.25C6.63032 19.25 7.16533 18.9193 7.42705 18.3959L8 17.25M4.5 17.25H8M20.5 17.25V12.5121C20.5 12.3381 20.4773 12.1649 20.4325 11.9968L19.8333 9.75M20.5 17.25V17.7049C20.5 18.5582 19.8082 19.25 18.9549 19.25V19.25C18.3697 19.25 17.8347 18.9193 17.5729 18.3959L17 17.25M20.5 17.25H17M5.16667 9.75L6.10409 6.23467C6.33756 5.35917 7.13046 4.75 8.03656 4.75L12.5 4.75M5.16667 9.75H19.8333M5.16667 9.75L3 9.25M19.8333 9.75L18.8959 6.23467C18.6624 5.35917 17.8695 4.75 16.9634 4.75L12.5 4.75M19.8333 9.75L22 9.25M8 17.25H17M12.5 4.75V6.25V7.25M12.5 7.25H11.5M12.5 7.25H13.5M8 14.25H8.5C8.77614 14.25 9 14.0261 9 13.75V13.75C9 13.4739 8.77614 13.25 8.5 13.25H8C7.72386 13.25 7.5 13.4739 7.5 13.75V13.75C7.5 14.0261 7.72386 14.25 8 14.25ZM16.5 14.25H17C17.2761 14.25 17.5 14.0261 17.5 13.75V13.75C17.5 13.4739 17.2761 13.25 17 13.25H16.5C16.2239 13.25 16 13.4739 16 13.75V13.75C16 14.0261 16.2239 14.25 16.5 14.25Z" stroke="#F5F6FF" stroke-width="1.5" stroke-linecap="round"/>
</svg>
