<svg width="17" height="16" viewBox="0 0 17 16" fill="none" xmlns="http://www.w3.org/2000/svg">
<path d="M15.1667 5.99993V9.99993C15.1667 11.6666 14.8334 12.8333 14.0867 13.5866L9.83337 9.33326L14.9867 4.17993C15.1067 4.7066 15.1667 5.3066 15.1667 5.99993Z" stroke="#A0A0A0" stroke-linecap="round" stroke-linejoin="round"/>
<path d="M14.9867 4.17992L4.68003 14.4866C2.67337 14.0266 1.83337 12.6399 1.83337 9.99992V5.99992C1.83337 2.66659 3.16671 1.33325 6.50004 1.33325H10.5C13.14 1.33325 14.5267 2.17325 14.9867 4.17992Z" stroke="#A0A0A0" stroke-linecap="round" stroke-linejoin="round"/>
<path d="M14.0867 13.5866C13.3334 14.3333 12.1667 14.6666 10.5001 14.6666H6.50006C5.80673 14.6666 5.20672 14.6066 4.68005 14.4866L9.83339 9.33325L14.0867 13.5866Z" stroke="#A0A0A0" stroke-linecap="round" stroke-linejoin="round"/>
<path d="M4.65981 5.31998C5.11314 3.36665 8.04648 3.36665 8.49982 5.31998C8.75982 6.46665 8.03981 7.43998 7.40647 8.03998C6.94647 8.47998 6.21982 8.47998 5.75315 8.03998C5.11982 7.43998 4.39314 6.46665 4.65981 5.31998Z" stroke="#A0A0A0"/>
<path d="M6.56307 5.80001H6.56906" stroke="#A0A0A0" stroke-linecap="round" stroke-linejoin="round"/>
</svg>
