<svg width="16" height="16" viewBox="0 0 16 16" fill="none" xmlns="http://www.w3.org/2000/svg">
<path d="M8.33311 14.6669H2.71978C1.94644 14.6669 1.31311 14.0469 1.31311 13.2869V3.39361C1.31311 1.64694 2.61311 0.853607 4.20644 1.63361L7.16644 3.08694C7.80644 3.40027 8.33311 4.23361 8.33311 4.94027V14.6669Z" stroke="#333333" stroke-linecap="round" stroke-linejoin="round"/>
<path d="M14.6467 10.0402V12.5602C14.6467 14.0002 13.98 14.6669 12.54 14.6669H8.33337V6.9469L8.64671 7.01357L11.6467 7.6869L13 7.9869C13.88 8.18023 14.6 8.63357 14.64 9.91357C14.6467 9.95357 14.6467 9.99357 14.6467 10.0402Z" stroke="#333333" stroke-linecap="round" stroke-linejoin="round"/>
<path d="M3.66663 6.00024H5.97996" stroke="#333333" stroke-linecap="round" stroke-linejoin="round"/>
<path d="M3.66663 8.66687H5.97996" stroke="#333333" stroke-linecap="round" stroke-linejoin="round"/>
<path d="M11.6465 7.68688V9.83355C11.6465 10.6602 10.9732 11.3335 10.1465 11.3335C9.31982 11.3335 8.64648 10.6602 8.64648 9.83355V7.01355L11.6465 7.68688Z" stroke="#333333" stroke-linecap="round" stroke-linejoin="round"/>
<path d="M14.6398 9.91356C14.5998 10.7002 13.9465 11.3336 13.1465 11.3336C12.3198 11.3336 11.6465 10.6602 11.6465 9.83356V7.68689L12.9998 7.98689C13.8798 8.18022 14.5998 8.63356 14.6398 9.91356Z" stroke="#333333" stroke-linecap="round" stroke-linejoin="round"/>
</svg>
