<svg width="26" height="26" viewBox="0 0 26 26" fill="none" xmlns="http://www.w3.org/2000/svg">
<rect width="26" height="26" rx="13" fill="url(#paint0_linear_2010_9399)"/>
<path fill-rule="evenodd" clip-rule="evenodd" d="M12.6672 5C11.6912 5 11.0054 5.72815 10.6145 6.50592L10.6136 6.50779L9.44028 8.85437C9.43834 8.85711 9.43322 8.86411 9.42367 8.87482C9.40572 8.89495 9.37836 8.9211 9.34157 8.94839C9.30489 8.97558 9.27157 8.99445 9.24637 9.0062C9.23234 9.01274 9.22352 9.01583 9.22016 9.01695L7.10385 9.36856C6.25324 9.51033 5.38171 9.95185 5.09039 10.8641C4.7994 11.7754 5.2522 12.6401 5.8609 13.2488L7.51072 14.8986C7.51225 14.9006 7.51871 14.9093 7.52803 14.9264C7.54194 14.9518 7.55777 14.9881 7.57078 15.0335C7.58371 15.0787 7.58969 15.1184 7.59153 15.1487C7.59292 15.1715 7.59168 15.1838 7.59148 15.1861L7.1204 17.2229C6.91389 18.1155 6.92452 19.247 7.79023 19.8786C8.65491 20.5096 9.7358 20.1765 10.5245 19.7086L12.5091 18.5338C12.5091 18.5338 12.5234 18.5274 12.549 18.5214C12.5802 18.514 12.6217 18.5083 12.6705 18.5083C12.7197 18.5083 12.7603 18.5141 12.7896 18.5211C12.8096 18.5259 12.8201 18.5302 12.8224 18.5311L14.8123 19.7091C15.5995 20.1741 16.6823 20.5125 17.5479 19.8814C18.4153 19.2491 18.4209 18.1139 18.2157 17.2234L17.7445 15.1861C17.7443 15.1838 17.7431 15.1715 17.7445 15.1487C17.7463 15.1184 17.7523 15.0787 17.7652 15.0335C17.7782 14.9881 17.7941 14.9518 17.808 14.9264C17.8173 14.9093 17.8238 14.9006 17.8253 14.8986L19.4733 13.2506C20.0856 12.6419 20.5411 11.7756 20.2475 10.8623C19.9546 9.95092 19.0819 9.51018 18.2322 9.36856L16.1114 9.01622C16.1087 9.01537 16.0989 9.01224 16.0825 9.00465C16.0567 8.99279 16.0232 8.97392 15.9867 8.947C15.9501 8.91999 15.923 8.89411 15.9053 8.87425C15.8959 8.86375 15.8908 8.85688 15.889 8.8542L14.7162 6.50865C14.3285 5.7298 13.6445 5 12.6672 5ZM12.6672 6C12.25 6 11.8294 6.31565 11.508 6.95497L10.3356 9.29983L10.3347 9.30167C10.2547 9.46487 10.1082 9.62489 9.93717 9.75167C9.76656 9.87817 9.57229 9.97112 9.3964 10.0014L9.39359 10.0019L7.26825 10.355C6.58555 10.4688 6.16906 10.7736 6.043 11.1683C5.91691 11.5632 6.07936 12.053 6.568 12.5417L8.22134 14.195C8.3612 14.3349 8.4696 14.5398 8.53217 14.7583C8.5945 14.9761 8.61107 15.2063 8.56867 15.3986L8.56727 15.405L8.09468 17.4483C7.90714 18.2588 8.0332 18.818 8.37967 19.0708C8.7261 19.3236 9.29773 19.2737 10.0142 18.8486L12.0088 17.6679L12.011 17.6666C12.1935 17.5613 12.432 17.5083 12.6705 17.5083C12.9099 17.5083 13.148 17.5618 13.3278 17.6682L15.3209 18.8481C15.3209 18.8481 14.087 18.1262 15.4274 18.9176C16.7678 19.7091 17.6162 19 17.2413 17.4483L16.7678 15.4008L16.7674 15.3988C16.7249 15.2065 16.7415 14.9761 16.8038 14.7583C16.8664 14.5398 16.9748 14.3349 17.1147 14.195L18.7668 12.5429L18.7679 12.5417C19.2597 12.053 19.4223 11.5629 19.2955 11.1683C19.1686 10.7735 18.7506 10.4688 18.068 10.355L15.9412 10.0016C15.7615 9.97165 15.5648 9.87845 15.393 9.75167C15.222 9.62547 15.076 9.46635 14.9958 9.30394L13.8212 6.95473C13.5032 6.3155 13.0843 6 12.6672 6Z" fill="#A0A0A0"/>
<defs>
<linearGradient id="paint0_linear_2010_9399" x1="26" y1="2.6319" x2="-4.35866" y2="12.268" gradientUnits="userSpaceOnUse">
<stop stop-color="#E6E8F2"/>
<stop offset="1" stop-color="#D1D7EF"/>
</linearGradient>
</defs>
</svg>
