<svg width="9" height="9" viewBox="0 0 9 9" fill="none" xmlns="http://www.w3.org/2000/svg">
<path d="M4.30664 3.11669C4.63064 3.11669 4.8933 2.85403 4.8933 2.53003C4.8933 2.20602 4.63064 1.94336 4.30664 1.94336C3.98263 1.94336 3.71997 2.20602 3.71997 2.53003C3.71997 2.85403 3.98263 3.11669 4.30664 3.11669Z" stroke="#2D3370" stroke-width="0.5" stroke-linecap="round" stroke-linejoin="round"/>
<path d="M3.13334 6.47671L4.30668 5.30004V3.83337H2.55334" stroke="#2D3370" stroke-width="0.5" stroke-linecap="round" stroke-linejoin="round"/>
<path d="M5.48331 6.47671L4.30664 5.30004V3.83337H6.06331" stroke="#2D3370" stroke-width="0.5" stroke-linecap="round" stroke-linejoin="round"/>
<path d="M4.24996 7.58335C6.09091 7.58335 7.58329 6.09097 7.58329 4.25002C7.58329 2.40907 6.09091 0.916687 4.24996 0.916687C2.40901 0.916687 0.916626 2.40907 0.916626 4.25002C0.916626 6.09097 2.40901 7.58335 4.24996 7.58335Z" stroke="#2D3370" stroke-width="0.5" stroke-linecap="round" stroke-linejoin="round"/>
</svg>
