<svg width="9" height="9" viewBox="0 0 9 9" fill="none" xmlns="http://www.w3.org/2000/svg">
<path d="M2.06779 5.83331C1.98779 6.79665 2.71446 7.58331 3.68112 7.58331H5.27779C6.36446 7.58331 7.11112 6.70665 6.93112 5.63331C6.74112 4.50665 5.65446 3.58331 4.51112 3.58331C3.27112 3.58331 2.17112 4.59665 2.06779 5.83331Z" stroke="#2D3370" stroke-width="0.5" stroke-linecap="round" stroke-linejoin="round"/>
<path d="M4.08785 2.74998C4.54809 2.74998 4.92118 2.37688 4.92118 1.91665C4.92118 1.45641 4.54809 1.08331 4.08785 1.08331C3.62761 1.08331 3.25452 1.45641 3.25452 1.91665C3.25452 2.37688 3.62761 2.74998 4.08785 2.74998Z" stroke="#2D3370" stroke-width="0.5" stroke-linecap="round" stroke-linejoin="round"/>
<path d="M6.36454 3.14998C6.73273 3.14998 7.03121 2.85151 7.03121 2.48332C7.03121 2.11513 6.73273 1.81665 6.36454 1.81665C5.99635 1.81665 5.69788 2.11513 5.69788 2.48332C5.69788 2.85151 5.99635 3.14998 6.36454 3.14998Z" stroke="#2D3370" stroke-width="0.5" stroke-linecap="round" stroke-linejoin="round"/>
<path d="M7.5979 4.48334C7.87404 4.48334 8.0979 4.25948 8.0979 3.98334C8.0979 3.7072 7.87404 3.48334 7.5979 3.48334C7.32176 3.48334 7.0979 3.7072 7.0979 3.98334C7.0979 4.25948 7.32176 4.48334 7.5979 4.48334Z" stroke="#2D3370" stroke-width="0.5" stroke-linecap="round" stroke-linejoin="round"/>
<path d="M1.92118 3.81667C2.28937 3.81667 2.58785 3.51819 2.58785 3.15C2.58785 2.78181 2.28937 2.48334 1.92118 2.48334C1.55299 2.48334 1.25452 2.78181 1.25452 3.15C1.25452 3.51819 1.55299 3.81667 1.92118 3.81667Z" stroke="#2D3370" stroke-width="0.5" stroke-linecap="round" stroke-linejoin="round"/>
</svg>
