<svg width="9" height="9" viewBox="0 0 9 9" fill="none" xmlns="http://www.w3.org/2000/svg">
<path d="M3.61218 0.916687V1.91669" stroke="#2D3370" stroke-width="0.5" stroke-miterlimit="10" stroke-linecap="round" stroke-linejoin="round"/>
<path d="M6.27893 0.916687V1.91669" stroke="#2D3370" stroke-width="0.5" stroke-miterlimit="10" stroke-linecap="round" stroke-linejoin="round"/>
<path d="M2.11218 3.27997H7.77885" stroke="#2D3370" stroke-width="0.5" stroke-miterlimit="10" stroke-linecap="round" stroke-linejoin="round"/>
<path d="M8.27885 6.58333C8.27885 6.83333 8.20885 7.07 8.08552 7.27C7.85552 7.65667 7.43218 7.91667 6.94552 7.91667C6.60885 7.91667 6.30218 7.79333 6.06885 7.58333C5.96552 7.49667 5.87552 7.39 5.80552 7.27C5.68218 7.07 5.61218 6.83333 5.61218 6.58333C5.61218 5.84667 6.20885 5.25 6.94552 5.25C7.34552 5.25 7.70218 5.42666 7.94552 5.70333C8.15218 5.94 8.27885 6.24667 8.27885 6.58333Z" stroke="#2D3370" stroke-width="0.5" stroke-miterlimit="10" stroke-linecap="round" stroke-linejoin="round"/>
<path d="M6.42566 6.58332L6.75566 6.91332L7.46566 6.25665" stroke="#2D3370" stroke-width="0.5" stroke-linecap="round" stroke-linejoin="round"/>
<path d="M7.94556 3.08335V5.70335C7.70222 5.42668 7.34556 5.25002 6.94556 5.25002C6.20889 5.25002 5.61222 5.84669 5.61222 6.58335C5.61222 6.83335 5.68222 7.07002 5.80556 7.27002C5.87556 7.39002 5.96556 7.49669 6.06889 7.58335H3.61222C2.44556 7.58335 1.94556 6.91669 1.94556 5.91669V3.08335C1.94556 2.08335 2.44556 1.41669 3.61222 1.41669H6.27889C7.44556 1.41669 7.94556 2.08335 7.94556 3.08335Z" stroke="#2D3370" stroke-width="0.5" stroke-miterlimit="10" stroke-linecap="round" stroke-linejoin="round"/>
<path d="M4.94401 4.81669H4.947" stroke="#2D3370" stroke-width="0.5" stroke-linecap="round" stroke-linejoin="round"/>
<path d="M3.71037 4.81669H3.71336" stroke="#2D3370" stroke-width="0.5" stroke-linecap="round" stroke-linejoin="round"/>
<path d="M3.71057 5.81665H3.71357" stroke="#2D3370" stroke-width="0.5" stroke-linecap="round" stroke-linejoin="round"/>
</svg>
