<svg width="16" height="16" viewBox="0 0 16 16" fill="none" xmlns="http://www.w3.org/2000/svg">
<path d="M11.58 5.61332V13.0533C11.58 14.1267 11.0467 14.6667 9.97335 14.6667H6.08C5.00666 14.6667 4.46667 14.1267 4.46667 13.0533V5.61332C4.46667 4.53999 5.00666 4 6.08 4H9.97335C11.0467 4 11.58 4.53999 11.58 5.61332Z" stroke="#333333" stroke-miterlimit="10" stroke-linecap="round" stroke-linejoin="round"/>
<path d="M11.5853 9.30159V7.1646C11.5853 6.16851 11.7732 6 12.2983 6H13.8772C14.4022 6 14.6666 6.39001 14.6666 7.1646V13.5021C14.6666 14.2767 14.4022 14.6667 13.8772 14.6667H8.66663" stroke="#333333" stroke-miterlimit="10" stroke-linecap="round" stroke-linejoin="round"/>
<path d="M4.41467 9.30159V7.1646C4.41467 6.16851 4.22683 6 3.70175 6H2.12284C1.59776 6 1.33337 6.39001 1.33337 7.1646V13.5021C1.33337 14.2767 1.59776 14.6667 2.12284 14.6667H7.33337" stroke="#333333" stroke-miterlimit="10" stroke-linecap="round" stroke-linejoin="round"/>
<path d="M6.66687 2H9.33354" stroke="#333333" stroke-miterlimit="10" stroke-linecap="round" stroke-linejoin="round"/>
<path d="M6.66663 6H9.33329" stroke="#333333" stroke-miterlimit="10" stroke-linecap="round" stroke-linejoin="round"/>
<path d="M6.66663 8H9.33329" stroke="#333333" stroke-miterlimit="10" stroke-linecap="round" stroke-linejoin="round"/>
<path d="M8.00012 3.33329V0.666626" stroke="#333333" stroke-miterlimit="10" stroke-linecap="round" stroke-linejoin="round"/>
<path d="M8 14.6667V12" stroke="#333333" stroke-miterlimit="10" stroke-linecap="round" stroke-linejoin="round"/>
</svg>
