<svg width="80" height="80" viewBox="0 0 61 50" fill="none" xmlns="http://www.w3.org/2000/svg">
<g filter="url(#filter0_d_401_2952)">
<rect x="2" width="57" height="46" rx="4" fill="#2F419E" shape-rendering="crispEdges"/>
<path fill-rule="evenodd" clip-rule="evenodd" d="M30.5 25.5227C31.8149 25.5227 36.5484 18.3147 36.5484 14.8147C36.5484 11.3146 33.8405 8.47729 30.5 8.47729C27.1596 8.47729 24.4517 11.3146 24.4517 14.8147C24.4517 18.3147 29.1852 25.5227 30.5 25.5227ZM30.4999 17.2748C32.0183 17.2748 33.2492 16.0439 33.2492 14.5255C33.2492 13.0072 32.0183 11.7763 30.4999 11.7763C28.9815 11.7763 27.7506 13.0072 27.7506 14.5255C27.7506 16.0439 28.9815 17.2748 30.4999 17.2748Z" fill="#F5F6FF"/>
<path d="M20.244 37.487H22.503V38H19.614V31.709H20.244V37.487ZM25.5531 38.072C25.0911 38.072 24.6741 37.97 24.3021 37.766C23.9361 37.556 23.6451 37.262 23.4291 36.884C23.2191 36.5 23.1141 36.053 23.1141 35.543C23.1141 35.033 23.2221 34.589 23.4381 34.211C23.6541 33.827 23.9481 33.533 24.3201 33.329C24.6921 33.119 25.1091 33.014 25.5711 33.014C26.0331 33.014 26.4501 33.119 26.8221 33.329C27.2001 33.533 27.4941 33.827 27.7041 34.211C27.9201 34.589 28.0281 35.033 28.0281 35.543C28.0281 36.047 27.9201 36.491 27.7041 36.875C27.4881 37.259 27.1911 37.556 26.8131 37.766C26.4351 37.97 26.0151 38.072 25.5531 38.072ZM25.5531 37.523C25.8771 37.523 26.1771 37.451 26.4531 37.307C26.7291 37.157 26.9511 36.935 27.1191 36.641C27.2931 36.341 27.3801 35.975 27.3801 35.543C27.3801 35.111 27.2961 34.748 27.1281 34.454C26.9601 34.154 26.7381 33.932 26.4621 33.788C26.1861 33.638 25.8861 33.563 25.5621 33.563C25.2381 33.563 24.9381 33.638 24.6621 33.788C24.3861 33.932 24.1641 34.154 23.9961 34.454C23.8341 34.748 23.7531 35.111 23.7531 35.543C23.7531 35.975 23.8341 36.341 23.9961 36.641C24.1641 36.935 24.3831 37.157 24.6531 37.307C24.9291 37.451 25.2291 37.523 25.5531 37.523ZM28.8885 35.543C28.8885 35.033 28.9905 34.589 29.1945 34.211C29.3985 33.827 29.6805 33.533 30.0405 33.329C30.4005 33.119 30.8115 33.014 31.2735 33.014C31.8795 33.014 32.3775 33.164 32.7675 33.464C33.1635 33.764 33.4185 34.172 33.5325 34.688H32.8575C32.7735 34.334 32.5905 34.058 32.3085 33.86C32.0325 33.656 31.6875 33.554 31.2735 33.554C30.9435 33.554 30.6465 33.629 30.3825 33.779C30.1185 33.929 29.9085 34.154 29.7525 34.454C29.6025 34.748 29.5275 35.111 29.5275 35.543C29.5275 35.975 29.6025 36.341 29.7525 36.641C29.9085 36.941 30.1185 37.166 30.3825 37.316C30.6465 37.466 30.9435 37.541 31.2735 37.541C31.6875 37.541 32.0325 37.442 32.3085 37.244C32.5905 37.04 32.7735 36.758 32.8575 36.398H33.5325C33.4185 36.902 33.1635 37.307 32.7675 37.613C32.3715 37.919 31.8735 38.072 31.2735 38.072C30.8115 38.072 30.4005 37.97 30.0405 37.766C29.6805 37.556 29.3985 37.262 29.1945 36.884C28.9905 36.5 28.8885 36.053 28.8885 35.543ZM34.4081 35.534C34.4081 35.03 34.5071 34.589 34.7051 34.211C34.9091 33.827 35.1881 33.533 35.5421 33.329C35.9021 33.119 36.3071 33.014 36.7571 33.014C37.2251 33.014 37.6271 33.122 37.9631 33.338C38.3051 33.554 38.5511 33.83 38.7011 34.166V33.086H39.3311V38H38.7011V36.911C38.5451 37.247 38.2961 37.526 37.9541 37.748C37.6181 37.964 37.2161 38.072 36.7481 38.072C36.3041 38.072 35.9021 37.967 35.5421 37.757C35.1881 37.547 34.9091 37.25 34.7051 36.866C34.5071 36.482 34.4081 36.038 34.4081 35.534ZM38.7011 35.543C38.7011 35.147 38.6201 34.799 38.4581 34.499C38.2961 34.199 38.0741 33.968 37.7921 33.806C37.5161 33.644 37.2101 33.563 36.8741 33.563C36.5261 33.563 36.2141 33.641 35.9381 33.797C35.6621 33.953 35.4431 34.181 35.2811 34.481C35.1251 34.775 35.0471 35.126 35.0471 35.534C35.0471 35.936 35.1251 36.29 35.2811 36.596C35.4431 36.896 35.6621 37.127 35.9381 37.289C36.2141 37.445 36.5261 37.523 36.8741 37.523C37.2101 37.523 37.5161 37.442 37.7921 37.28C38.0741 37.118 38.2961 36.887 38.4581 36.587C38.6201 36.287 38.7011 35.939 38.7011 35.543ZM41.3993 31.34V38H40.7693V31.34H41.3993Z" fill="#F5F6FF"/>
</g>
<defs>
<filter id="filter0_d_401_2952" x="0" y="0" width="61" height="50" filterUnits="userSpaceOnUse" color-interpolation-filters="sRGB">
<feFlood flood-opacity="0" result="BackgroundImageFix"/>
<feColorMatrix in="SourceAlpha" type="matrix" values="0 0 0 0 0 0 0 0 0 0 0 0 0 0 0 0 0 0 127 0" result="hardAlpha"/>
<feOffset dy="2"/>
<feGaussianBlur stdDeviation="1"/>
<feComposite in2="hardAlpha" operator="out"/>
<feColorMatrix type="matrix" values="0 0 0 0 0 0 0 0 0 0 0 0 0 0 0 0 0 0 0.04 0"/>
<feBlend mode="normal" in2="BackgroundImageFix" result="effect1_dropShadow_401_2952"/>
<feBlend mode="normal" in="SourceGraphic" in2="effect1_dropShadow_401_2952" result="shape"/>
</filter>
</defs>
</svg>
