<svg width="99" height="21" viewBox="0 0 99 21" fill="none" xmlns="http://www.w3.org/2000/svg">
<path d="M44.3978 0.00714111H51.4672V20.9943H44.3978V0.00714111Z" fill="#344691"/>
<path d="M92.5928 6.00674H83.8174L74.1804 14.9961H84.1768L92.5928 6.00674Z" fill="#2E356D"/>
<path d="M92.5928 6.00674V0.00857544H76.1574H71.2847C71.2847 0.00857544 71.9865 0.503549 72.6684 1.12548C73.219 1.62901 73.7239 2.25664 73.9921 2.57616C74.353 3.00694 74.8708 3.81431 75.2531 4.65733C75.5426 5.29352 75.7252 6.00817 75.7252 6.00817H79.5823H83.816H92.5928V6.00674Z" fill="#344691"/>
<path d="M92.5928 14.9961H74.1804V20.9957H92.5928V14.9961Z" fill="#344691"/>
<path d="M92.5928 14.9961L95.5926 17.9959L98.5924 20.9957V14.9961H92.5928Z" fill="#344691"/>
<path d="M74.1034 6.61298C73.831 5.32348 73.1876 4.19802 72.3218 3.19381C71.4973 2.23524 70.2991 1.21962 68.9297 0.68328C67.2066 0.00857537 65.8957 0.00857544 64.1098 0.00857544H54.0876V20.9957H61.1571V17.6165H63.7974C68.295 17.6165 70.4389 16.1801 70.4389 16.1801C71.9937 15.3257 73.0992 13.5069 73.7753 11.9393C74.7753 9.62704 74.2717 7.4075 74.1034 6.61298ZM67.1524 10.7753C66.4777 11.5727 65.3636 11.9864 63.7746 11.9864H61.1571V5.94968H63.7746C64.5805 5.94968 65.2581 6.06237 65.8044 6.28204C66.3507 6.50314 66.7929 6.81696 67.1524 7.19924C67.9683 8.06652 68.0382 9.72974 67.1524 10.7753Z" fill="#344691"/>
<path d="M0 0.00732422V5.94986H5.94253V20.9959H13.012V5.94986L18.8932 5.95271V0.00732422H5.94253V5.94986L0 0.00732422Z" fill="#344691"/>
<path d="M37.8676 16.18C39.4224 15.3256 40.5279 13.5069 41.204 11.9392C42.2025 9.62699 41.699 7.40745 41.5307 6.61436C41.2582 5.32486 40.6149 4.1994 39.7491 3.19519C38.9246 2.23662 37.7264 1.221 36.357 0.684659C34.6339 0.00995443 33.323 0.0099545 31.5371 0.0099545H21.5149V-3.05176e-05V5.95249H28.5843H28.7042H31.2004C32.0064 5.95249 32.6839 6.06518 33.2302 6.28485C33.7766 6.50595 34.2188 6.81976 34.5782 7.20205C35.3941 8.06932 35.4626 9.73255 34.5782 10.7781C33.9035 11.5755 32.7895 11.9892 31.2004 11.9892H28.5829V8.57713H21.5135V21H28.5829V17.6207H31.2232L34.9134 21H42.5648L37.8676 16.18Z" fill="#344691"/>
</svg>
