<svg width="44" height="44" viewBox="0 0 44 44" fill="none" xmlns="http://www.w3.org/2000/svg">
<rect width="44" height="44" rx="22" fill="#F4F3F5"/>
<path fill-rule="evenodd" clip-rule="evenodd" d="M10.5 15C10.5 14.4477 10.9477 14 11.5 14H32.5C33.0523 14 33.5 14.4477 33.5 15V29C33.5 29.5523 33.0523 30 32.5 30H11.5C10.9477 30 10.5 29.5523 10.5 29V15ZM12.891 15.3714L20.5928 22.9539C21.4258 23.7739 22.7881 23.7668 23.612 22.9381L31.1342 15.3714H12.891ZM32.0918 16.3798L26.4315 22.0735L32.0918 27.6461V16.3798ZM31.109 28.6286L25.4518 23.059L24.6236 23.892C23.2506 25.2732 20.98 25.2851 19.5917 23.9184L18.6335 22.975L12.891 28.6286H31.109ZM11.9082 27.6461V16.3539L17.6431 22L11.9082 27.6461Z" fill="#2F419E"/>
</svg>
