<svg width="16" height="16" viewBox="0 0 16 16" fill="none" xmlns="http://www.w3.org/2000/svg">
<path d="M8.2467 1.43343L14.2467 3.83342C14.48 3.92675 14.6667 4.20674 14.6667 4.45341V6.66675C14.6667 7.03342 14.3667 7.33342 14 7.33342H2.00004C1.63337 7.33342 1.33337 7.03342 1.33337 6.66675V4.45341C1.33337 4.20674 1.52004 3.92675 1.75338 3.83342L7.75338 1.43343C7.88671 1.3801 8.11337 1.3801 8.2467 1.43343Z" stroke="#333333" stroke-miterlimit="10" stroke-linecap="round" stroke-linejoin="round"/>
<path d="M14.6667 14.6667H1.33337V12.6667C1.33337 12.3 1.63337 12 2.00004 12H14C14.3667 12 14.6667 12.3 14.6667 12.6667V14.6667Z" stroke="#333333" stroke-miterlimit="10" stroke-linecap="round" stroke-linejoin="round"/>
<path d="M2.66663 12V7.33337" stroke="#333333" stroke-miterlimit="10" stroke-linecap="round" stroke-linejoin="round"/>
<path d="M5.33337 12V7.33337" stroke="#333333" stroke-miterlimit="10" stroke-linecap="round" stroke-linejoin="round"/>
<path d="M8 12V7.33337" stroke="#333333" stroke-miterlimit="10" stroke-linecap="round" stroke-linejoin="round"/>
<path d="M10.6666 12V7.33337" stroke="#333333" stroke-miterlimit="10" stroke-linecap="round" stroke-linejoin="round"/>
<path d="M13.3334 12V7.33337" stroke="#333333" stroke-miterlimit="10" stroke-linecap="round" stroke-linejoin="round"/>
<path d="M0.666626 14.6666H15.3333" stroke="#333333" stroke-miterlimit="10" stroke-linecap="round" stroke-linejoin="round"/>
<path d="M8 5.66663C8.55228 5.66663 9 5.21891 9 4.66663C9 4.11434 8.55228 3.66663 8 3.66663C7.44772 3.66663 7 4.11434 7 4.66663C7 5.21891 7.44772 5.66663 8 5.66663Z" stroke="#333333" stroke-miterlimit="10" stroke-linecap="round" stroke-linejoin="round"/>
</svg>
