<svg width="25" height="24" viewBox="0 0 25 24" fill="none" xmlns="http://www.w3.org/2000/svg">
<path d="M12 9L10.5 14.5M12 9L13.1554 9.77024C13.376 9.91735 13.5292 10.1461 13.5812 10.4062L13.8938 11.9688C13.96 12.3002 14.1892 12.5757 14.503 12.7012L16.5 13.5M12 9L11.0863 8.69544C10.727 8.57566 10.3308 8.66918 10.063 8.93702L8.21409 10.7859C8.07449 10.9255 7.97934 11.1033 7.94062 11.2969L7.5 13.5M10.5 14.5L15 20.5M10.5 14.5V17.2344C10.5 17.4085 10.4546 17.5795 10.3682 17.7306L8.5 21M12.25 6.75V6.75C12.6642 7.16421 13.3358 7.16421 13.75 6.75V6.75C14.1642 6.33579 14.1642 5.66421 13.75 5.25V5.25C13.3358 4.83579 12.6642 4.83579 12.25 5.25V5.25C11.8358 5.66421 11.8358 6.33579 12.25 6.75Z" stroke="#333333" stroke-width="1.5" stroke-linecap="round"/>
</svg>
