<svg width="16" height="16" viewBox="0 0 16 16" fill="none" xmlns="http://www.w3.org/2000/svg">
<path d="M2.93978 11.1666C2.77978 13.0933 4.23311 14.6666 6.16644 14.6666H9.35978C11.5331 14.6666 13.0264 12.9133 12.6664 10.7666C12.2864 8.51329 10.1131 6.66663 7.82644 6.66663C5.34644 6.66663 3.14644 8.69329 2.93978 11.1666Z" stroke="#333333" stroke-linecap="round" stroke-linejoin="round"/>
<path d="M6.97978 4.99996C7.90025 4.99996 8.64644 4.25377 8.64644 3.33329C8.64644 2.41282 7.90025 1.66663 6.97978 1.66663C6.0593 1.66663 5.31311 2.41282 5.31311 3.33329C5.31311 4.25377 6.0593 4.99996 6.97978 4.99996Z" stroke="#333333" stroke-linecap="round" stroke-linejoin="round"/>
<path d="M11.5334 5.79997C12.2698 5.79997 12.8667 5.20301 12.8667 4.46663C12.8667 3.73025 12.2698 3.1333 11.5334 3.1333C10.797 3.1333 10.2001 3.73025 10.2001 4.46663C10.2001 5.20301 10.797 5.79997 11.5334 5.79997Z" stroke="#333333" stroke-linecap="round" stroke-linejoin="round"/>
<path d="M14 8.46667C14.5523 8.46667 15 8.01896 15 7.46667C15 6.91439 14.5523 6.46667 14 6.46667C13.4477 6.46667 13 6.91439 13 7.46667C13 8.01896 13.4477 8.46667 14 8.46667Z" stroke="#333333" stroke-linecap="round" stroke-linejoin="round"/>
<path d="M2.64644 7.13334C3.38282 7.13334 3.97978 6.53639 3.97978 5.80001C3.97978 5.06363 3.38282 4.46667 2.64644 4.46667C1.91006 4.46667 1.31311 5.06363 1.31311 5.80001C1.31311 6.53639 1.91006 7.13334 2.64644 7.13334Z" stroke="#333333" stroke-linecap="round" stroke-linejoin="round"/>
</svg>
