<svg width="44" height="44" viewBox="0 0 44 44" fill="none" xmlns="http://www.w3.org/2000/svg">
<rect width="44" height="44" rx="22" fill="#F4F3F5"/>
<path d="M31.882 26.2375C32.4248 26.5033 32.7855 26.6353 32.9203 26.8565C33.0569 27.0776 33.0569 28.1389 32.6051 29.3786C32.1534 30.6165 29.9912 31.7474 28.9511 31.899C28.0185 32.0345 26.8382 32.0916 25.5412 31.6885C24.7562 31.4441 23.747 31.1177 22.4556 30.5719C17.0256 28.2763 13.4809 22.9216 13.2095 22.5684L13.2031 22.56C12.9106 22.177 11 19.6751 11 17.0853C11 14.4758 12.3989 13.1951 12.8944 12.6635C13.3898 12.132 13.9764 12 14.337 12L15.3753 12.0178C15.7068 12.0339 16.1531 11.8948 16.5939 12.9275C17.0438 13.9888 18.1258 16.5984 18.2624 16.8624C18.399 17.1281 18.4883 17.4385 18.308 17.7917C18.1258 18.1466 18.0366 18.3678 17.7615 18.6746C17.4901 18.985 17.1932 19.3667 16.9491 19.6039C16.6795 19.8679 16.3972 20.1551 16.7123 20.6848C17.0274 21.2164 18.1149 22.9519 19.7233 24.3575C21.7907 26.1644 23.5357 26.7227 24.0767 26.9885C24.6177 27.2542 24.9347 27.2096 25.2498 26.8565C25.5649 26.5033 26.6032 25.3082 26.9639 24.7784C27.3263 24.2469 27.687 24.3361 28.1825 24.5127C28.6797 24.6893 31.341 25.9717 31.882 26.2375Z" fill="#2F419E"/>
</svg>
