<svg width="16" height="16" viewBox="0 0 16 16" fill="none" xmlns="http://www.w3.org/2000/svg">
<path d="M1.38008 3.06667C1.91341 0.760003 5.38674 0.760003 5.91341 3.06667C6.22674 4.42 5.36674 5.56667 4.62008 6.28C4.07341 6.8 3.21341 6.79334 2.66674 6.28C1.92674 5.56667 1.06674 4.42 1.38008 3.06667Z" stroke="#333333"/>
<path d="M10.0467 11.0667C10.58 8.76 14.0733 8.76 14.6067 11.0667C14.92 12.42 14.06 13.5667 13.3067 14.28C12.76 14.8 11.8933 14.7933 11.3467 14.28C10.5933 13.5667 9.73333 12.42 10.0467 11.0667Z" stroke="#333333"/>
<path d="M8 3.33337H9.78667C11.02 3.33337 11.5933 4.86004 10.6667 5.67337L5.34 10.3334C4.41334 11.14 4.98667 12.6667 6.21334 12.6667H8" stroke="#333333" stroke-linecap="round" stroke-linejoin="round"/>
<path d="M3.65748 3.66671H3.66518" stroke="#333333" stroke-linecap="round" stroke-linejoin="round"/>
<path d="M12.3241 11.6667H12.3318" stroke="#333333" stroke-linecap="round" stroke-linejoin="round"/>
</svg>
