<svg width="15" height="15" viewBox="0 0 15 15" fill="none" xmlns="http://www.w3.org/2000/svg">
<path fill-rule="evenodd" clip-rule="evenodd" d="M8.76783 1.7546C8.41502 1.04544 7.8635 0.522583 7.16614 0.522583C6.46957 0.522583 5.91636 1.04449 5.56023 1.75304L5.55976 1.75398L4.38642 4.10064L4.38461 4.10432C4.34939 4.17622 4.2652 4.27855 4.13834 4.37261C4.01189 4.46636 3.88923 4.51767 3.81061 4.53119L1.68502 4.88434C0.918286 5.01213 0.274363 5.38527 0.0656664 6.03882C-0.142878 6.69189 0.164748 7.36913 0.713418 7.9178L2.36675 9.57114C2.43182 9.63621 2.50472 9.7588 2.55045 9.91852C2.59589 10.0773 2.59973 10.2212 2.57937 10.3136L2.57908 10.3149L2.10651 12.3582C1.90948 13.2097 1.97782 14.0551 2.58392 14.4973C3.18952 14.9392 4.01572 14.7477 4.76834 14.3012L6.75842 13.1231L6.75976 13.1223C6.84925 13.0707 6.9966 13.0309 7.16947 13.0309C7.34366 13.0309 7.48803 13.0713 7.57207 13.1211L9.5656 14.3012C10.3192 14.7464 11.1467 14.9415 11.7524 14.4999C12.3589 14.0578 12.4239 13.2108 12.2275 12.3586L11.7549 10.3149L11.7546 10.3136C11.7342 10.2213 11.738 10.0773 11.7835 9.91852C11.8292 9.7588 11.9021 9.63621 11.9672 9.57114L13.6193 7.91901C14.1715 7.37033 14.4807 6.69194 14.2705 6.03791C14.0605 5.38478 13.4154 5.01209 12.6492 4.88439L10.5225 4.53105C10.4401 4.51729 10.3155 4.4654 10.1888 4.37192C10.0618 4.27818 9.97781 4.17607 9.94267 4.10432L8.76783 1.7546Z" fill="#EEC765"/>
</svg>
