<svg width="56" height="34" viewBox="0 0 56 34" fill="none" xmlns="http://www.w3.org/2000/svg">
<g filter="url(#filter0_d_240_2221)">
<rect x="4" y="3" width="48" height="26" rx="8" fill="#EEC765" shape-rendering="crispEdges"/>
<path d="M15.5 20.3333C17.8932 20.3333 19.8333 18.3932 19.8333 16C19.8333 13.6067 17.8932 11.6666 15.5 11.6666C13.1067 11.6666 11.1666 13.6067 11.1666 16C11.1666 18.3932 13.1067 20.3333 15.5 20.3333Z" stroke="#121214" stroke-linecap="round" stroke-linejoin="round"/>
<path d="M20.26 20.76L20.1734 20.6734M20.1734 11.3267L20.26 11.24L20.1734 11.3267ZM10.74 20.76L10.8267 20.6734L10.74 20.76ZM15.5 9.38671V9.33337V9.38671ZM15.5 22.6667V22.6134V22.6667ZM8.88671 16H8.83337H8.88671ZM22.1667 16H22.1134H22.1667ZM10.8267 11.3267L10.74 11.24L10.8267 11.3267Z" stroke="#121214" stroke-width="2" stroke-linecap="round" stroke-linejoin="round"/>
<path d="M30.9289 18.77C31.7756 18.09 32.4389 17.5333 32.9189 17.1C33.3989 16.66 33.8023 16.2033 34.1289 15.73C34.4623 15.25 34.6289 14.78 34.6289 14.32C34.6289 13.8867 34.5223 13.5467 34.3089 13.3C34.1023 13.0467 33.7656 12.92 33.2989 12.92C32.8456 12.92 32.4923 13.0633 32.2389 13.35C31.9923 13.63 31.8589 14.0067 31.8389 14.48H30.9589C30.9856 13.7333 31.2123 13.1567 31.6389 12.75C32.0656 12.3433 32.6156 12.14 33.2889 12.14C33.9756 12.14 34.5189 12.33 34.9189 12.71C35.3256 13.09 35.5289 13.6133 35.5289 14.28C35.5289 14.8333 35.3623 15.3733 35.0289 15.9C34.7023 16.42 34.3289 16.88 33.9089 17.28C33.4889 17.6733 32.9523 18.1333 32.2989 18.66H35.7389V19.42H30.9289V18.77ZM38.1109 15.74C37.7376 15.5933 37.4509 15.38 37.2509 15.1C37.0509 14.82 36.9509 14.48 36.9509 14.08C36.9509 13.72 37.0409 13.3967 37.2209 13.11C37.4009 12.8167 37.6676 12.5867 38.0209 12.42C38.3809 12.2467 38.8142 12.16 39.3209 12.16C39.8276 12.16 40.2576 12.2467 40.6109 12.42C40.9709 12.5867 41.2409 12.8167 41.4209 13.11C41.6076 13.3967 41.7009 13.72 41.7009 14.08C41.7009 14.4667 41.5976 14.8067 41.3909 15.1C41.1842 15.3867 40.9009 15.6 40.5409 15.74C40.9542 15.8667 41.2809 16.09 41.5209 16.41C41.7676 16.7233 41.8909 17.1033 41.8909 17.55C41.8909 17.9833 41.7842 18.3633 41.5709 18.69C41.3576 19.01 41.0542 19.26 40.6609 19.44C40.2742 19.6133 39.8276 19.7 39.3209 19.7C38.8142 19.7 38.3676 19.6133 37.9809 19.44C37.6009 19.26 37.3042 19.01 37.0909 18.69C36.8776 18.3633 36.7709 17.9833 36.7709 17.55C36.7709 17.1033 36.8909 16.72 37.1309 16.4C37.3709 16.08 37.6976 15.86 38.1109 15.74ZM40.8209 14.19C40.8209 13.7833 40.6876 13.47 40.4209 13.25C40.1542 13.03 39.7876 12.92 39.3209 12.92C38.8609 12.92 38.4976 13.03 38.2309 13.25C37.9642 13.47 37.8309 13.7867 37.8309 14.2C37.8309 14.5733 37.9676 14.8733 38.2409 15.1C38.5209 15.3267 38.8809 15.44 39.3209 15.44C39.7676 15.44 40.1276 15.3267 40.4009 15.1C40.6809 14.8667 40.8209 14.5633 40.8209 14.19ZM39.3209 16.14C38.8276 16.14 38.4242 16.2567 38.1109 16.49C37.7976 16.7167 37.6409 17.06 37.6409 17.52C37.6409 17.9467 37.7909 18.29 38.0909 18.55C38.3976 18.81 38.8076 18.94 39.3209 18.94C39.8342 18.94 40.2409 18.81 40.5409 18.55C40.8409 18.29 40.9909 17.9467 40.9909 17.52C40.9909 17.0733 40.8376 16.7333 40.5309 16.5C40.2242 16.26 39.8209 16.14 39.3209 16.14ZM42.7595 14.26C42.7595 13.7333 42.9228 13.31 43.2495 12.99C43.5828 12.67 44.0095 12.51 44.5295 12.51C45.0495 12.51 45.4728 12.67 45.7995 12.99C46.1262 13.31 46.2895 13.7333 46.2895 14.26C46.2895 14.6133 46.2128 14.9233 46.0595 15.19C45.9062 15.4567 45.6928 15.6633 45.4195 15.81C45.1528 15.9567 44.8495 16.03 44.5095 16.03C43.9895 16.03 43.5662 15.87 43.2395 15.55C42.9195 15.2233 42.7595 14.7933 42.7595 14.26ZM45.5595 14.26C45.5595 13.88 45.4595 13.5833 45.2595 13.37C45.0662 13.15 44.8195 13.04 44.5195 13.04C44.2262 13.04 43.9795 13.15 43.7795 13.37C43.5862 13.5833 43.4895 13.88 43.4895 14.26C43.4895 14.6533 43.5828 14.9567 43.7695 15.17C43.9628 15.3767 44.2095 15.48 44.5095 15.48C44.8095 15.48 45.0595 15.3733 45.2595 15.16C45.4595 14.9467 45.5595 14.6467 45.5595 14.26Z" fill="#121214"/>
</g>
<defs>
<filter id="filter0_d_240_2221" x="0" y="0" width="56" height="34" filterUnits="userSpaceOnUse" color-interpolation-filters="sRGB">
<feFlood flood-opacity="0" result="BackgroundImageFix"/>
<feColorMatrix in="SourceAlpha" type="matrix" values="0 0 0 0 0 0 0 0 0 0 0 0 0 0 0 0 0 0 127 0" result="hardAlpha"/>
<feOffset dy="1"/>
<feGaussianBlur stdDeviation="2"/>
<feComposite in2="hardAlpha" operator="out"/>
<feColorMatrix type="matrix" values="0 0 0 0 0 0 0 0 0 0 0 0 0 0 0 0 0 0 0.1 0"/>
<feBlend mode="normal" in2="BackgroundImageFix" result="effect1_dropShadow_240_2221"/>
<feBlend mode="normal" in="SourceGraphic" in2="effect1_dropShadow_240_2221" result="shape"/>
</filter>
</defs>
</svg>
