<svg width="25" height="24" viewBox="0 0 25 24" fill="none" xmlns="http://www.w3.org/2000/svg">
<path d="M17.4 20.6818H7.60001M17.4 20.6818C19.11 20.6818 20.5 19.4182 20.5 17.8636M17.4 20.6818V22.5H20.5V17.8636M7.60001 20.6818C5.90001 20.6818 4.5 19.4182 4.5 17.8636M7.60001 20.6818V22.5H4.5V17.8636M4.5 17.8636V5.31819C4.5 4.09461 5.93545 3.98223 7.38203 3.98849C8.06722 3.99146 8.69357 3.61287 9 3V3C9.30643 2.38713 9.93283 2 10.618 2H14.382C15.0672 2 15.6936 2.38713 16 3V3C16.3064 3.61287 16.9328 3.99139 17.618 3.98754C19.0609 3.97943 20.5 4.08851 20.5 5.31819V17.8636" stroke="white" stroke-width="1.5" stroke-linecap="round" stroke-linejoin="round"/>
<path d="M12.5 7.5H5.5C4.71368 7.5 5 7.5 4.92105 9.9V9.5001M12.5 7.5H20.0789C20.0789 8.5 20.0789 8.572 20.0789 9.9V9.5001M12.5 7.5V13.5001M12.5 13.5001H18.6579C20.0789 13.5001 20.0789 12.4281 20.0789 11.1001V9.5001M12.5 13.5001H6.34211C4.92105 13.5001 4.92105 12.4281 4.92105 11.1001V9.5001M20.0789 9.5001H21.5M4.92105 9.5001H3.5" stroke="white" stroke-width="1.5" stroke-linecap="round" stroke-linejoin="round"/>
<path d="M16 17H17M9 17H8" stroke="white" stroke-width="2.5" stroke-linecap="round" stroke-linejoin="round"/>
</svg>
