<svg width="16" height="16" viewBox="0 0 16 16" fill="none" xmlns="http://www.w3.org/2000/svg">
<path d="M14.4533 11.3067L12.3667 6.43334C11.66 4.78 10.36 4.71334 9.48666 6.28667L8.22666 8.56C7.58666 9.71334 6.39332 9.81334 5.56666 8.78L5.41999 8.59334C4.55999 7.51334 3.34666 7.64667 2.72666 8.88L1.57999 11.18C0.773325 12.78 1.93999 14.6667 3.72666 14.6667H12.2333C13.9667 14.6667 15.1333 12.9 14.4533 11.3067Z" stroke="#333333" stroke-linecap="round" stroke-linejoin="round"/>
<path d="M4.64661 5.33337C5.75118 5.33337 6.64661 4.43794 6.64661 3.33337C6.64661 2.2288 5.75118 1.33337 4.64661 1.33337C3.54204 1.33337 2.64661 2.2288 2.64661 3.33337C2.64661 4.43794 3.54204 5.33337 4.64661 5.33337Z" stroke="#333333" stroke-linecap="round" stroke-linejoin="round"/>
</svg>
